<?xml version="1.0" encoding="UTF-8"?>
<svg id="Camada_2" data-name="Camada 2" xmlns="http://www.w3.org/2000/svg" viewBox="0 0 162.99 162.99">
  <defs>
    <style>
      .cls-1 {
        fill: #266e63;
      }
    </style>
  </defs>
  <g id="Camada_1-2" data-name="Camada 1">
    <g>
      <path class="cls-1" d="M145.79,0H17.2C7.7,0,0,7.7,0,17.2v128.59c0,9.5,7.7,17.2,17.2,17.2h128.59c9.5,0,17.2-7.7,17.2-17.2V17.2c0-9.5-7.7-17.2-17.2-17.2ZM147.92,81.5l-.04,2.39c0,.26-.02.53-.03.8-.01.26-.03.52-.04.78l-.05.81c-.04.53-.08,1.06-.13,1.59-.03.26-.05.53-.08.79l-.09.82c-.08.62-.16,1.24-.25,1.86,0,.01,0,.03,0,.04-.18,1.22-.4,2.44-.65,3.66-.12.61-.26,1.22-.41,1.83,0,.03-.01.05-.02.08-.14.58-.29,1.17-.44,1.75-.15.58-.32,1.15-.49,1.72-.11.4-.24.8-.37,1.2-.08.24-.15.49-.23.73-.19.59-.4,1.17-.61,1.76l-1.28,3.25c-.19.46-.39.92-.6,1.38l-.38.84c-.11.24-.23.49-.35.73l-.72,1.44c-.4.77-.81,1.54-1.24,2.3-.26.47-.54.94-.81,1.4-.27.46-.55.92-.84,1.37,0,0,0,0,0,.01-.27.43-.54.85-.82,1.27-.04.06-.08.13-.12.19-.28.42-.56.84-.85,1.25-.25.36-.51.72-.77,1.07-.16.22-.32.43-.47.64l-.48.64c-.16.21-.32.42-.49.63-.16.21-.33.42-.49.62-.17.21-.34.41-.5.62l-1.07,1.27c-.15.18-.31.36-.48.54l-.96,1.06c-.2.21-.39.42-.58.62-.2.21-.4.41-.6.62-.01.01-.03.03-.04.04-.19.19-.38.38-.56.57-.2.2-.4.41-.61.6-.2.2-.41.4-.62.6-.41.39-.83.78-1.25,1.16-.21.19-.42.38-.64.57-.21.18-.42.37-.64.55-.93.8-1.87,1.57-2.84,2.3-.21.16-.42.32-.64.48-1.72,1.29-3.49,2.48-5.3,3.58-.46.28-.92.55-1.38.81-.48.28-.97.55-1.45.81-.45.24-.91.48-1.37.72-.24.12-.48.24-.72.36-.22.11-.43.22-.65.32-.26.13-.53.26-.8.38-.24.12-.49.23-.73.34-.24.11-.49.22-.74.33-.17.08-.35.15-.52.23l-.33.14c-.5.21-1,.41-1.5.61-.25.1-.5.19-.75.29-.36.14-.73.27-1.09.4-.9.32-1.8.62-2.72.9-.39.12-.79.24-1.18.35-1.19.34-2.38.65-3.58.93-.03,0-.06,0-.08.02-.63.14-1.25.28-1.89.4-1.01.2-2.01.37-3.02.52-.66.1-1.32.19-1.98.27l-.79.09c-.26.03-.53.06-.79.08-.53.05-1.06.09-1.59.13-.26.02-.53.03-.79.05-.26.02-.53.03-.8.04-.26.01-.53.03-.8.03-.79.03-1.59.04-2.38.04h0l-2.39-.04c-.26,0-.53-.02-.8-.03-.26-.01-.52-.03-.78-.04l-.81-.05c-.53-.04-1.06-.08-1.59-.13-.26-.03-.53-.06-.79-.08l-.82-.09c-.87-.1-1.73-.23-2.59-.36-.29-.05-.58-.09-.86-.15l-.86-.15c-.28-.05-.55-.11-.83-.16-.58-.12-1.16-.24-1.74-.37-.29-.06-.57-.13-.85-.2-.85-.2-1.69-.43-2.54-.67-.02,0-.03,0-.05-.01-.82-.23-1.63-.49-2.45-.76-.28-.09-.57-.18-.85-.28-.64-.22-1.27-.45-1.89-.68l-2.36-.95c-.55-.23-1.1-.47-1.65-.72-.1-.05-.2-.09-.3-.14-.1-.05-.2-.1-.3-.14-.28-.13-.55-.26-.83-.39-.07-.03-.14-.07-.21-.1-.08-.04-.15-.08-.23-.12-.54-.26-1.07-.53-1.6-.82-.46-.24-.91-.48-1.36-.73-.01,0-.03-.01-.03-.02-.7-.39-1.39-.79-2.08-1.21-.68-.41-1.36-.84-2.03-1.28-.44-.29-.89-.59-1.32-.89,0,0,0,0,0,0-.44-.3-.87-.61-1.3-.93-.64-.47-1.28-.95-1.91-1.45-.09-.07-.18-.14-.26-.2-.54-.43-1.07-.87-1.6-1.31l-.64-.54c-.33-.29-.66-.58-.99-.88l-2.48-2.35c-.81-.81-1.6-1.64-2.35-2.48-.29-.33-.59-.66-.88-.99-.18-.21-.37-.42-.54-.64-.45-.52-.88-1.06-1.31-1.6-.07-.09-.14-.17-.2-.26-.5-.63-.98-1.27-1.45-1.91-.31-.43-.62-.86-.93-1.3,0,0,0,0,0,0-.3-.44-.6-.88-.89-1.32-.44-.67-.87-1.34-1.28-2.03-.42-.69-.82-1.38-1.21-2.08,0,0-.02-.02-.02-.03-.42-.75-.81-1.5-1.19-2.25-.13-.25-.26-.5-.38-.76-.03-.06-.06-.12-.09-.18-.03-.07-.07-.14-.1-.21-.13-.28-.26-.55-.39-.83-.09-.19-.18-.37-.26-.56,0-.01-.01-.03-.02-.04-.25-.55-.49-1.1-.72-1.65-.33-.78-.65-1.57-.95-2.36-.23-.63-.47-1.26-.68-1.89-.1-.28-.19-.57-.28-.85-.27-.81-.52-1.63-.75-2.45,0-.02,0-.03-.01-.05-.24-.84-.46-1.69-.67-2.54-.07-.29-.14-.57-.2-.85-.13-.58-.26-1.16-.37-1.74-.06-.28-.11-.55-.16-.83-.05-.29-.1-.57-.15-.86-.05-.29-.1-.58-.14-.86-.14-.86-.26-1.72-.36-2.59-.03-.27-.06-.55-.09-.82-.03-.26-.06-.53-.08-.79-.05-.53-.09-1.06-.13-1.59-.02-.27-.03-.54-.05-.81-.02-.26-.03-.52-.04-.78-.01-.26-.03-.53-.03-.8-.03-.8-.04-1.6-.04-2.39h0s.04-2.39.04-2.39c0-.27.02-.53.03-.8s.03-.53.04-.8l.05-.79c.04-.53.08-1.06.13-1.59.03-.26.06-.53.08-.79l.09-.79c.08-.66.17-1.32.27-1.98.15-1.01.33-2.02.52-3.02.12-.63.26-1.26.4-1.89,0-.03.01-.05.02-.08.28-1.2.59-2.39.93-3.58.12-.39.23-.79.35-1.18.28-.91.58-1.82.9-2.72.13-.37.26-.73.4-1.09.1-.25.19-.5.29-.76.2-.5.4-1,.61-1.5l.14-.33c.07-.18.15-.35.23-.52.11-.25.22-.5.33-.74.11-.25.22-.49.34-.73l.38-.8c.1-.22.2-.44.32-.65.12-.24.24-.48.36-.72.23-.46.47-.92.72-1.37l.81-1.45c.27-.46.54-.93.81-1.38l3.58-5.3c.16-.21.32-.43.48-.64l2.3-2.84c.18-.21.37-.43.55-.64l.57-.64c.38-.42.76-.84,1.16-1.25.2-.21.4-.41.6-.62l.6-.61c.19-.19.38-.38.57-.56.01-.01.03-.03.04-.04.2-.2.41-.4.62-.6.2-.2.41-.39.62-.58.35-.32.7-.64,1.06-.96.18-.17.36-.32.54-.48.42-.37.84-.73,1.27-1.07.2-.17.41-.34.62-.5.2-.17.41-.33.62-.49.21-.17.42-.33.63-.49.21-.17.42-.32.64-.48.21-.16.43-.32.64-.47,1.14-.83,2.29-1.62,3.46-2.36.39-.26.79-.5,1.19-.74.35-.21.69-.42,1.04-.62.7-.41,1.39-.8,2.1-1.17.36-.19.71-.38,1.07-.56.48-.25.96-.49,1.44-.72.24-.12.49-.23.73-.35.28-.13.56-.26.84-.38.46-.2.92-.41,1.38-.6,1.07-.46,2.16-.88,3.25-1.28.58-.21,1.17-.41,1.76-.61.24-.08.48-.16.73-.23.4-.13.8-.25,1.2-.37.57-.17,1.14-.33,1.72-.49.58-.15,1.16-.3,1.75-.44.03,0,.05-.01.08-.02.61-.15,1.22-.28,1.83-.41,1.22-.25,2.44-.47,3.66-.65.01,0,.03,0,.04,0,.62-.09,1.24-.17,1.86-.25.27-.03.55-.06.82-.09.26-.03.53-.06.79-.08.53-.05,1.06-.09,1.59-.13.27-.02.54-.03.81-.05.26-.02.52-.03.78-.04.26-.01.53-.03.8-.03.8-.03,1.6-.04,2.39-.04s1.59.02,2.38.04c.27,0,.53.02.8.03.26.01.53.03.8.04.26.02.53.03.79.05.53.04,1.06.08,1.59.13.26.03.53.05.79.08l.79.09c.63.08,1.25.16,1.88.25.01,0,.03,0,.04,0,.86.13,1.71.27,2.56.44,0,0,.02,0,.03,0,.84.16,1.68.34,2.51.53.02,0,.03,0,.05,0,.78.18,1.57.38,2.34.59.89.24,1.78.5,2.66.78.3.09.61.19.91.29.61.2,1.21.41,1.81.63.25.09.5.19.76.28.25.09.5.19.75.29.22.09.45.17.67.26.39.16.78.32,1.16.49.17.07.35.15.52.23,1.26.55,2.51,1.14,3.74,1.77.43.22.85.44,1.27.67.02,0,.03.02.05.03.46.25.92.51,1.38.77,0,0,.02,0,.03.02.47.26.93.54,1.38.81t0,0c.45.28.9.56,1.35.84.02,0,.03.02.05.03.65.42,1.3.85,1.95,1.3.04.03.08.05.12.08.4.28.79.55,1.18.84.96.7,1.9,1.42,2.82,2.18.22.17.44.35.65.54.21.18.43.36.64.55.21.18.43.37.64.55.21.19.43.38.64.57.21.19.42.38.63.58.62.58,1.24,1.17,1.85,1.78.61.61,1.2,1.22,1.78,1.85.19.21.38.42.58.63.19.21.38.42.57.64.19.21.37.42.55.64.18.22.37.43.55.64.18.22.36.44.54.65.75.92,1.48,1.86,2.18,2.82.29.39.57.79.84,1.18.03.04.06.08.08.12.45.64.88,1.29,1.3,1.95.01.02.02.03.03.05.29.45.57.9.84,1.35t0,0c.28.46.55.92.81,1.38,0,0,.01.02.02.03.26.46.52.92.77,1.38.01.02.02.03.03.05.23.42.45.84.67,1.27.63,1.23,1.22,2.48,1.78,3.74.08.17.15.35.23.52.17.38.32.77.49,1.16.09.22.17.45.26.67.1.25.2.5.29.76.09.25.19.5.28.76.22.6.43,1.2.63,1.81.1.3.2.61.29.91.28.88.54,1.77.78,2.66.21.78.41,1.56.59,2.34,0,.02,0,.03,0,.05.19.83.37,1.67.53,2.51,0,.01,0,.02,0,.03.16.85.31,1.71.44,2.56,0,.01,0,.03,0,.04.09.62.17,1.25.25,1.88.03.26.06.53.09.79s.06.53.08.79c.05.53.09,1.06.13,1.59.02.26.03.53.05.79.02.26.03.53.04.8s.03.53.03.8c.03.79.04,1.59.04,2.39h0Z"/>
      <path class="cls-1" d="M128.47,34.52c-9.95,9.95-22.26,16.08-35.14,18.4-7.46-10.74-11.83-23.79-11.83-37.86,0,14.07-4.37,27.12-11.83,37.86-12.87-2.32-25.19-8.45-35.14-18.4,9.94,9.95,16.08,22.26,18.4,35.14-10.74,7.46-23.79,11.83-37.86,11.83,14.07,0,27.12,4.37,37.86,11.83-2.32,12.87-8.45,25.19-18.4,35.14,9.95-9.95,22.27-16.08,35.14-18.4,7.46,10.74,11.83,23.79,11.83,37.86,0-14.07,4.37-27.12,11.83-37.86,12.87,2.32,25.19,8.46,35.14,18.4-9.95-9.95-16.08-22.27-18.4-35.14,10.74-7.46,23.79-11.83,37.86-11.83-14.07,0-27.12-4.37-37.86-11.83,2.32-12.87,8.45-25.19,18.4-35.14Z"/>
    </g>
  </g>
</svg>