<?xml version="1.0" encoding="UTF-8"?>
<svg id="Camada_2" data-name="Camada 2" xmlns="http://www.w3.org/2000/svg" viewBox="0 0 123.05 127.98">
  <defs>
    <style>
      .cls-1 {
        fill: #f1885b;
      }
    </style>
  </defs>
  <g id="Camada_1-2" data-name="Camada 1">
    <g>
      <path class="cls-1" d="M58.06,40.08C48.3,23.03,33.13,8.84,13.72.37c-.57-.25-1.16-.37-1.76-.37-1.68,0-3.29.99-4.01,2.62C2.55,14.98,0,27.85,0,40.53c0,34.32,18.72,67.1,50.43,83.88-11.24-28.84-7.45-59.84,7.63-84.33Z"/>
      <path class="cls-1" d="M116.46,4.6h0c-.88-2.25-3.42-3.36-5.67-2.48h0C61.97,21.29,37.93,76.39,57.1,125.2h0c.88,2.25,3.42,3.36,5.67,2.48,48.81-19.16,72.85-74.27,53.68-123.08Z"/>
    </g>
  </g>
</svg>