<?xml version="1.0" encoding="UTF-8"?>
<svg id="Camada_2" data-name="Camada 2" xmlns="http://www.w3.org/2000/svg" viewBox="0 0 419.2 557.97">
  <defs>
    <style>
      .cls-1 {
        fill: #d46239;
      }

      .cls-2 {
        fill: #faf7d4;
      }

      .cls-3 {
        fill: #f1885b;
      }
    </style>
  </defs>
  <g id="Camada_1-2" data-name="Camada 1">
    <g>
      <rect class="cls-3" width="419.2" height="536.93" rx="8.26" ry="8.26"/>
      <g>
        <path class="cls-2" d="M75.8,395.71c0,3.47-1.41,6.66-4.23,9.56-2.82,2.91-5.97,4.36-9.43,4.36l-44.96-.12c-1.54,0-2.79-1.26-2.79-2.8v-98.9c0-1.55,1.25-2.8,2.8-2.8h44.96c3.47,0,6.61,1.41,9.43,4.23,2.82,2.82,4.23,5.97,4.23,9.43v41.64c0,2.52-.83,4.94-2.47,7.29-.83,1.17-1.76,2.21-2.81,3.1-1.35,1.15-1.4,3.21-.03,4.34,1.06.86,2,1.88,2.83,3.04,1.65,2.3,2.47,4.71,2.47,7.22v10.41ZM48.48,346.33v-11.19c0-1.55-1.25-2.8-2.8-2.8h-1.17c-1.55,0-2.8,1.25-2.8,2.8v11.19c0,1.55,1.25,2.8,2.8,2.8h1.17c1.55,0,2.8-1.25,2.8-2.8ZM48.61,379.25h0c0-1.55-1.25-2.8-2.8-2.8h-1.3c-1.55,0-2.8,1.25-2.8,2.8h0c0,1.55,1.25,2.8,2.8,2.8h1.3c1.55,0,2.8-1.25,2.8-2.8Z"/>
        <path class="cls-2" d="M150.55,409.5h-21.73c-1.55,0-2.8-1.25-2.8-2.8v-11.84c0-1.55-1.25-2.8-2.8-2.8h-7.16c-1.55,0-2.8,1.25-2.8,2.8v11.84c0,1.55-1.25,2.8-2.8,2.8h-21.73c-1.55,0-2.8-1.25-2.8-2.8v-99.01c0-1.55,1.26-2.8,2.81-2.8l44.95.12c3.38,0,6.51,1.41,9.37,4.23,2.86,2.82,4.29,5.97,4.29,9.43v46.97c0,2.6-.95,5.16-2.86,7.68-.17.23-.35.45-.52.66-1.5,1.8-.17,4.55,2.18,4.55h4.4c1.55,0,2.8,1.25,2.8,2.8v25.37c0,1.55-1.25,2.8-2.8,2.8ZM120.04,361.94v-26.8c0-1.55-1.25-2.8-2.8-2.8h-1.17c-1.55,0-2.8,1.25-2.8,2.8v26.8c0,1.55,1.25,2.8,2.8,2.8h1.17c1.55,0,2.8-1.25,2.8-2.8Z"/>
        <path class="cls-2" d="M222.31,395.97c0,3.47-1.43,6.62-4.29,9.43-2.86,2.82-5.99,4.23-9.37,4.23h-34.09c-3.47,0-6.62-1.41-9.43-4.23-2.82-2.82-4.23-5.96-4.23-9.43v-77.29c0-3.47,1.41-6.61,4.23-9.43,2.82-2.82,5.96-4.23,9.43-4.23h34.09c3.38,0,6.51,1.41,9.37,4.23,2.86,2.82,4.29,5.97,4.29,9.43v77.29ZM194.99,379.25v-44.11c0-1.55-1.25-2.8-2.8-2.8h-1.17c-1.55,0-2.8,1.25-2.8,2.8v44.11c0,1.55,1.25,2.8,2.8,2.8h1.17c1.55,0,2.8-1.25,2.8-2.8Z"/>
        <path class="cls-2" d="M289.39,409.5h-21.73c-1.55,0-2.8-1.25-2.8-2.8v-71.56c0-1.55-1.25-2.8-2.8-2.8h-1.17c-1.55,0-2.8,1.25-2.8,2.8v71.56c0,1.55-1.25,2.8-2.8,2.8h-21.73c-1.55,0-2.8-1.25-2.8-2.8v-99.01c0-1.55,1.26-2.8,2.81-2.8l44.95.12c3.47,0,6.61,1.41,9.43,4.23,2.82,2.82,4.23,5.97,4.23,9.43v88.03c0,1.55-1.25,2.8-2.8,2.8Z"/>
        <path class="cls-2" d="M350.57,308.54l-18.8,69.98c-.48,1.78.86,3.52,2.7,3.52h13.07c1.55,0,2.8,1.25,2.8,2.8v21.86c0,1.55-1.25,2.8-2.8,2.8h-48.6c-1.84,0-3.18-1.74-2.7-3.52l18.68-70.12c.47-1.78-.87-3.52-2.7-3.52h-8.13c-1.55,0-2.8-1.25-2.8-2.8v-21.73c0-1.55,1.25-2.8,2.8-2.8h43.78c1.84,0,3.18,1.75,2.7,3.52Z"/>
        <path class="cls-2" d="M404.81,329.21v-21.74c0-1.55-1.25-2.8-2.8-2.8h-31.29c-3.48,0-6.62,1.41-9.43,4.23-2.83,2.82-4.23,5.97-4.23,9.43v77.16c0,3.47,1.41,6.61,4.23,9.43,2.81,2.82,5.96,4.23,9.43,4.23h31.29c1.55,0,2.8-1.25,2.8-2.8v-21.74c0-1.55-1.25-2.8-2.8-2.8h-14.84c-1.55,0-2.8-1.25-2.8-2.8v-5.65c0-1.55,1.25-2.8,2.8-2.8h7.07c1.55,0,2.8-1.25,2.8-2.8v-21.86c0-1.55-1.25-2.8-2.8-2.8h-7.07c-1.55,0-2.8-1.25-2.8-2.8v-5.53c0-1.55,1.25-2.8,2.8-2.8h14.84c1.55,0,2.8-1.25,2.8-2.8Z"/>
      </g>
      <g>
        <path class="cls-2" d="M192.48,234.78c.47,0,.93.09,1.37.29.68.3,1.35.61,2,.95,1.66.85,3.64-.37,3.64-2.24v-7.81c0-2.58-1.06-4.91-3.19-7.01-2.13-2.09-4.44-3.14-6.96-3.14h-25.32c-2.58,0-4.91,1.04-7.01,3.14-2.09,2.09-3.14,4.43-3.14,7.01v57.42c0,2.58,1.05,4.91,3.14,7.01,2.09,2.09,4.43,3.14,7.01,3.14h25.32c2.51,0,4.83-1.05,6.96-3.14,2.13-2.09,3.19-4.43,3.19-7.01v-3.73c0-.74-.31-1.45-.87-1.93-7.69-6.62-12.24-16.33-12.24-26.77,0-4.88,1-9.63,2.96-14.12.55-1.25,1.78-2.05,3.13-2.05ZM176.67,273.05h0c-1.39,0-2.51-1.13-2.51-2.51v-31.9c0-1.39,1.13-2.51,2.51-2.51h0c1.39,0,2.51,1.13,2.51,2.51v31.9c0,1.39-1.13,2.51-2.51,2.51Z"/>
        <path class="cls-2" d="M263.08,266.52c1.38-1.87,2.08-3.77,2.08-5.71v-34.89c0-2.58-1.05-4.91-3.14-7.01-2.1-2.09-4.43-3.14-7.01-3.14l-32.95-.09c-1.39,0-2.52,1.12-2.52,2.51v16.81c0,1.9,2.01,3.09,3.69,2.22,1.1-.57,2.24-1.09,3.42-1.56,1.76-.68,3.74.18,4.44,1.94,1.66,4.23,2.44,8.59,2.44,12.88,0,10.6-4.8,20.77-13.06,27.49-.58.47-.93,1.17-.93,1.92v10.99c0,1.39,1.13,2.51,2.51,2.51h15.27c1.39,0,2.51-1.13,2.51-2.51v-7.93c0-1.39,1.13-2.51,2.51-2.51h0c1.39,0,2.51,1.13,2.51,2.51v7.93c0,1.39,1.13,2.51,2.51,2.51h15.27c1.39,0,2.51-1.13,2.51-2.51v-10.92c0-1.99-.69-3.91-2.08-5.75-.56-.74-1.16-1.38-1.8-1.94-1.15-.99-1.16-2.77-.01-3.76.65-.57,1.25-1.23,1.81-1.98ZM242.34,260.14h0c-1.39,0-2.51-1.13-2.51-2.51v-19.04c0-1.39,1.13-2.51,2.51-2.51h0c1.39,0,2.51,1.13,2.51,2.51v19.04c0,1.39-1.13,2.51-2.51,2.51Z"/>
        <path class="cls-2" d="M88.42,238.73v3.23c0,1.39,1.13,2.51,2.51,2.51h4.38c1.39,0,2.51,1.13,2.51,2.51v15.37c0,1.39-1.13,2.51-2.51,2.51h-4.38c-1.39,0-2.51,1.13-2.51,2.51v3.33c0,1.39,1.13,2.51,2.51,2.51h10.15c1.39,0,2.51,1.13,2.51,2.51v15.28c0,1.39-1.13,2.51-2.51,2.51h-22.81c-2.58,0-4.92-1.05-7.01-3.14-2.1-2.09-3.14-4.43-3.14-7.01v-57.32c0-2.58,1.04-4.91,3.14-7.01,2.09-2.09,4.43-3.14,7.01-3.14h22.81c1.39,0,2.51,1.13,2.51,2.51v15.28c0,1.39-1.13,2.51-2.51,2.51h-10.15c-1.39,0-2.51,1.13-2.51,2.51Z"/>
        <path class="cls-2" d="M151.54,283.39c0,2.58-1.05,4.91-3.14,7.01-2.09,2.09-4.43,3.14-7.01,3.14h-25.32c-2.51,0-4.83-1.05-6.96-3.14-2.13-2.09-3.19-4.43-3.19-7.01v-57.42c0-2.58,1.06-4.91,3.19-7.01,2.13-2.09,4.45-3.14,6.96-3.14h25.32c2.58,0,4.91,1.05,7.01,3.14,2.09,2.09,3.14,4.43,3.14,7.01v16.43c0,1.39-1.13,2.51-2.51,2.51h-15.27c-1.39,0-2.51-1.13-2.51-2.51v-3.77c0-1.39-1.13-2.51-2.51-2.51h0c-1.39,0-2.51,1.13-2.51,2.51v32.09c0,1.39,1.13,2.51,2.51,2.51h0c1.39,0,2.51-1.13,2.51-2.51v-3.77c0-1.39,1.13-2.51,2.51-2.51h15.27c1.39,0,2.51,1.13,2.51,2.51v16.43Z"/>
        <path class="cls-2" d="M351.08,283.34c0,2.58-1.05,4.91-3.14,7.01-2.1,2.1-4.43,3.14-7.01,3.14h-25.32c-2.51,0-4.83-1.05-6.96-3.14-2.13-2.09-3.19-4.43-3.19-7.01v-57.42c0-2.58,1.06-4.91,3.19-7.01,2.13-2.09,4.45-3.14,6.96-3.14h25.32c2.58,0,4.91,1.05,7.01,3.14,2.09,2.09,3.14,4.43,3.14,7.01v16.43c0,1.39-1.13,2.51-2.51,2.51h-15.27c-1.39,0-2.51-1.13-2.51-2.51v-3.77c0-1.39-1.13-2.51-2.51-2.51h0c-1.39,0-2.51,1.13-2.51,2.51v32.09c0,1.39,1.13,2.51,2.51,2.51h0c1.39,0,2.51-1.13,2.51-2.51v-3.77c0-1.39,1.13-2.51,2.51-2.51h15.27c1.39,0,2.51,1.13,2.51,2.51v16.43Z"/>
        <path class="cls-2" d="M287.77,238.54v3.24c0,1.39,1.13,2.51,2.51,2.51h4.38c1.39,0,2.51,1.13,2.51,2.51v15.37c0,1.39-1.13,2.51-2.51,2.51h-4.38c-1.39,0-2.51,1.13-2.51,2.51v3.33c0,1.39,1.13,2.51,2.51,2.51h10.15c1.39,0,2.51,1.13,2.51,2.51v15.28c0,1.39-1.13,2.51-2.51,2.51h-22.81c-2.58,0-4.92-1.05-7.01-3.14-2.1-2.09-3.14-4.43-3.14-7.01v-57.32c0-2.58,1.04-4.91,3.14-7.01,2.09-2.09,4.43-3.14,7.01-3.14h22.81c1.39,0,2.51,1.13,2.51,2.51v15.28c0,1.39-1.13,2.51-2.51,2.51h-10.15c-1.39,0-2.51,1.13-2.51,2.51Z"/>
        <g>
          <path class="cls-2" d="M208.74,250.8c-3.44-6.02-8.79-11.02-15.64-14.01-.2-.09-.41-.13-.62-.13-.59,0-1.16.35-1.41.93-1.9,4.36-2.8,8.9-2.8,13.37,0,12.1,6.6,23.67,17.79,29.59-3.96-10.17-2.63-21.11,2.69-29.74Z"/>
          <path class="cls-2" d="M229.33,238.28h0c-.31-.79-1.21-1.18-2-.87h0c-17.22,6.76-25.69,26.2-18.93,43.41h0c.31.79,1.21,1.18,2,.87,17.22-6.76,25.69-26.2,18.93-43.41Z"/>
        </g>
      </g>
      <g>
        <rect class="cls-1" x="291.28" y="452.16" width="72.61" height="72.61" rx="7.66" ry="7.66"/>
        <rect class="cls-1" x="133.97" y="452.16" width="72.61" height="72.61" rx="7.66" ry="7.66"/>
        <g>
          <path class="cls-3" d="M326.49,480.65c-3.07-5.37-7.85-9.84-13.97-12.51-.18-.08-.37-.12-.55-.12-.53,0-1.04.31-1.26.83-1.7,3.89-2.5,7.95-2.5,11.94,0,10.81,5.9,21.13,15.89,26.42-3.54-9.09-2.35-18.85,2.4-26.56Z"/>
          <path class="cls-3" d="M344.89,469.47h0c-.28-.71-1.08-1.06-1.79-.78h0c-15.38,6.04-22.95,23.39-16.91,38.77h0c.28.71,1.08,1.06,1.79.78,15.38-6.04,22.95-23.39,16.91-38.77Z"/>
        </g>
        <rect class="cls-1" x="212.62" y="452.16" width="72.61" height="72.61" rx="7.66" ry="7.66"/>
        <path class="cls-3" d="M247.97,461.88c-10.76.5-19.33,9.38-19.33,20.26v31.94c0,.55.44.99.99.99h4.55c.55,0,.99-.44.99-.99v-23.25c0-8.95,6.16-16.2,13.76-16.2s13.76,7.25,13.76,16.2v23.25c0,.55.44.99.99.99h4.55c.55,0,.99-.44.99-.99v-31.65c0-11.62-9.63-21.09-21.24-20.55Z"/>
        <path class="cls-2" d="M120.26,452.16h-57.29c-4.23,0-7.66,5-7.66,11.16v83.47c0,6.17,3.43,11.16,7.66,11.16h57.29c4.23,0,7.66-5,7.66-11.16v-83.47c0-6.17-3.43-11.16-7.66-11.16Z"/>
        <g>
          <path class="cls-3" d="M112.54,467.54c-.27-.27-.55-.53-.82-.79-.09-.09-.19-.17-.28-.26-.09-.09-.19-.17-.28-.25-.09-.08-.19-.17-.28-.25-.1-.08-.19-.16-.29-.24-.1-.08-.19-.16-.29-.24-.41-.34-.83-.66-1.26-.97-.17-.13-.35-.25-.53-.38-.02-.01-.04-.02-.05-.04-.29-.2-.58-.39-.87-.58,0,0-.02,0-.02-.01-.2-.13-.4-.25-.6-.38t0,0c-.2-.12-.41-.25-.62-.36,0,0,0,0-.01,0-.2-.12-.41-.23-.61-.34,0,0-.02,0-.02-.01-.19-.1-.38-.2-.57-.3-.55-.28-1.1-.55-1.67-.79-.08-.03-.16-.07-.23-.1-.17-.07-.34-.14-.52-.22-.1-.04-.2-.08-.3-.12-.11-.04-.22-.09-.34-.13-.11-.04-.22-.08-.34-.13-.27-.1-.54-.19-.81-.28-.13-.05-.27-.09-.4-.13-.39-.12-.79-.24-1.18-.35-.35-.09-.69-.18-1.04-.26,0,0-.01,0-.02,0-.37-.09-.74-.16-1.12-.24,0,0,0,0-.01,0-.38-.07-.76-.14-1.14-.19,0,0-.01,0-.02,0-.28-.04-.56-.08-.84-.11-.12-.01-.24-.03-.35-.04-.12-.01-.24-.02-.35-.04-.24-.02-.47-.04-.71-.06-.12,0-.24-.02-.35-.02-.12,0-.24-.01-.36-.02s-.24-.01-.36-.02c-.35-.01-.71-.02-1.06-.02,0,6.27,1.95,12.08,5.27,16.87,5.73-1.03,11.22-3.77,15.65-8.2Z"/>
          <path class="cls-3" d="M91.61,458.87c-.36,0-.71,0-1.07.02-.12,0-.24,0-.36.02-.12,0-.23.01-.35.02-.12,0-.24.02-.36.02-.24.02-.47.04-.71.06-.12.01-.24.02-.35.04-.12.01-.25.03-.37.04-.28.03-.55.07-.83.11,0,0-.01,0-.02,0-.55.08-1.09.18-1.63.29-.27.06-.55.12-.82.18-.01,0-.02,0-.03,0-.26.06-.52.13-.78.2-.26.07-.51.14-.77.22-.18.05-.36.11-.54.16-.11.03-.22.07-.32.1-.26.09-.52.18-.78.27-.49.18-.97.36-1.45.57-.21.09-.41.17-.61.27-.12.06-.25.11-.37.17-.11.05-.22.1-.33.15-.21.1-.43.21-.64.32-.16.08-.32.16-.48.25-.31.17-.63.34-.94.52-.15.09-.31.18-.46.28-.18.11-.36.22-.53.33-.52.33-1.04.68-1.54,1.05-.1.07-.19.14-.29.21-.1.07-.19.14-.28.21-.1.07-.19.14-.28.22-.09.07-.19.15-.28.22-.09.07-.18.15-.28.22-.19.16-.38.32-.56.48-.08.07-.16.14-.24.21-.16.14-.32.28-.47.43-.09.09-.19.17-.28.26-.09.09-.18.18-.28.27,0,0-.01.01-.02.02-.08.08-.17.17-.25.25,4.43,4.43,9.92,7.17,15.65,8.2,3.32-4.79,5.27-10.6,5.27-16.87Z"/>
          <path class="cls-3" d="M70.69,467.54l-.27.27c-.09.09-.18.18-.27.28-.17.18-.35.37-.52.56l-.25.28c-.08.09-.17.19-.25.28l-1.02,1.26c-.07.09-.14.19-.21.28l-1.6,2.36c-.12.2-.24.41-.36.62l-.36.65c-.11.2-.21.4-.32.61-.06.11-.11.21-.16.32-.05.1-.1.19-.14.29l-.17.36c-.05.11-.1.22-.15.33-.05.11-.1.22-.15.33-.03.08-.07.16-.1.23l-.06.15c-.09.22-.18.44-.27.67-.04.11-.09.22-.13.34-.06.16-.12.32-.18.49-.14.4-.28.8-.4,1.21-.06.17-.11.35-.16.53-.15.53-.29,1.06-.41,1.59,0,.01,0,.02,0,.04-.06.28-.12.56-.18.84-.09.45-.17.9-.23,1.35-.04.29-.08.59-.12.88l-.04.35c-.01.12-.02.24-.04.35-.02.24-.04.47-.06.71l-.02.35c0,.12-.01.24-.02.36,0,.12-.01.24-.02.36l-.02,1.06c6.27,0,12.08-1.95,16.87-5.27-1.03-5.73-3.77-11.22-8.2-15.65Z"/>
          <path class="cls-3" d="M104.34,493.74c1.03,5.73,3.76,11.22,8.2,15.65.08-.08.17-.17.25-.25,0,0,.01-.01.02-.02.09-.09.18-.18.27-.28.09-.09.17-.18.26-.28l.43-.47c.07-.08.14-.16.21-.24l.48-.56c.07-.09.15-.18.22-.28.07-.09.15-.18.22-.28.07-.09.15-.19.22-.28l.21-.28c.07-.1.14-.19.21-.29.12-.16.23-.32.34-.48.13-.18.25-.37.38-.55.02-.03.04-.06.06-.08.12-.19.25-.37.36-.56,0,0,0,0,0,0,.13-.2.25-.4.37-.61.12-.21.25-.42.36-.63.19-.34.37-.68.55-1.03l.32-.64.15-.32.17-.37c.09-.2.18-.41.27-.61l.57-1.45c.09-.26.18-.52.27-.78.04-.11.07-.21.1-.32.06-.18.11-.36.16-.54.08-.25.15-.51.22-.77.07-.26.13-.52.2-.78,0-.01,0-.02,0-.03.06-.27.13-.54.18-.82.11-.54.21-1.09.29-1.63,0,0,0-.01,0-.02.04-.28.08-.55.11-.83l.04-.37c.01-.12.02-.24.04-.35.02-.24.04-.47.06-.71l.02-.36c0-.12.01-.23.02-.35,0-.12.01-.24.02-.36l.02-1.06h0c-6.27,0-12.08,1.95-16.87,5.27Z"/>
          <path class="cls-3" d="M121.21,488.47c0-.36,0-.71-.02-1.06,0-.12,0-.24-.02-.36,0-.12-.01-.24-.02-.36,0-.12-.02-.24-.02-.35-.02-.24-.04-.47-.06-.71-.01-.12-.02-.24-.04-.35-.01-.12-.03-.24-.04-.35-.03-.28-.07-.56-.11-.84,0,0,0-.01,0-.02-.06-.38-.12-.76-.19-1.14,0,0,0,0,0-.01-.07-.37-.15-.75-.24-1.12,0,0,0-.01,0-.02-.08-.35-.17-.7-.26-1.04-.11-.4-.22-.79-.35-1.18-.04-.13-.09-.27-.13-.4-.09-.27-.18-.54-.28-.81-.04-.11-.08-.22-.13-.34-.04-.11-.09-.22-.13-.34-.04-.1-.08-.2-.12-.3-.07-.17-.14-.35-.22-.52-.03-.08-.07-.16-.1-.23-.25-.56-.51-1.12-.79-1.67-.1-.19-.2-.38-.3-.57,0,0,0-.02-.01-.02-.11-.21-.22-.41-.34-.61,0,0,0,0,0-.01-.12-.21-.24-.41-.36-.62t0,0c-.12-.2-.25-.4-.38-.6,0,0,0-.02-.01-.02-.19-.29-.38-.58-.58-.87-.01-.02-.02-.04-.04-.05-.12-.18-.25-.35-.38-.53-.31-.43-.63-.85-.97-1.26-.08-.1-.16-.19-.24-.29-.08-.09-.16-.19-.24-.29-.08-.1-.16-.19-.25-.28-.08-.1-.17-.19-.25-.28-.09-.1-.17-.19-.26-.28-.26-.28-.52-.55-.79-.82-4.43,4.43-7.17,9.92-8.2,15.65,4.79,3.32,10.6,5.27,16.87,5.27Z"/>
          <path class="cls-3" d="M91.61,518.06c.36,0,.71,0,1.06-.02.12,0,.24,0,.36-.02s.24-.01.36-.02c.12,0,.24-.02.35-.02.24-.02.47-.04.71-.06.12-.01.24-.02.35-.04l.35-.04c.29-.04.59-.08.88-.12.45-.07.9-.15,1.35-.23.28-.06.56-.12.84-.18.01,0,.02,0,.04,0,.53-.12,1.06-.26,1.59-.41.17-.05.35-.1.53-.16.41-.13.81-.26,1.21-.4.16-.06.32-.12.49-.18.11-.04.22-.09.34-.13.22-.09.45-.18.67-.27l.15-.06c.08-.03.16-.07.23-.1.11-.05.22-.1.33-.15.11-.05.22-.1.33-.15.12-.06.24-.11.36-.17.1-.05.19-.09.29-.14.11-.05.21-.11.32-.16.21-.1.41-.21.61-.32.22-.12.43-.24.65-.36.21-.12.41-.24.62-.36.81-.49,1.59-1.02,2.36-1.6.1-.07.19-.14.28-.21.43-.33.85-.67,1.26-1.02.1-.08.19-.17.28-.25.1-.08.19-.17.28-.25.19-.17.37-.34.56-.52.09-.09.18-.18.28-.27.09-.09.18-.18.27-.27-4.43-4.43-9.92-7.16-15.65-8.2-3.32,4.79-5.27,10.6-5.27,16.87Z"/>
          <path class="cls-3" d="M70.69,509.4l1.1,1.05c.15.13.29.26.44.39l.28.24c.23.2.47.39.71.58.04.03.08.06.12.09.28.22.56.44.85.64.19.14.38.28.58.41,0,0,0,0,0,0,.19.13.39.27.59.4.3.2.6.39.9.57.31.19.62.37.93.54,0,0,0,0,.02,0,.2.11.4.22.61.33.24.13.47.25.71.36.03.02.07.04.1.05.03.02.06.03.1.05.12.06.25.12.37.17.04.02.09.04.13.06.04.02.09.04.13.06.24.11.49.22.73.32l1.05.42c.28.1.56.21.84.3.13.04.25.09.38.13.36.12.73.23,1.09.34,0,0,.02,0,.02,0,.38.11.75.21,1.13.3.13.03.25.06.38.09.26.06.52.11.77.17.12.02.25.05.37.07l.38.07c.13.02.26.04.38.06.38.06.77.12,1.15.16l.37.04c.12.01.24.02.35.04.24.02.47.04.71.06l.36.02c.12,0,.23.01.35.02.12,0,.24.01.36.02l1.06.02h0c0-6.27-1.95-12.08-5.27-16.87-5.73,1.03-11.22,3.77-15.65,8.2Z"/>
          <path class="cls-3" d="M62.02,488.47h0c0,.36,0,.71.02,1.07,0,.12,0,.24.02.36,0,.12.01.23.02.35,0,.12.02.24.02.36.02.24.04.47.06.71.01.12.02.24.04.35.01.12.03.25.04.37.05.39.1.77.16,1.15.02.13.04.26.06.38.02.13.05.25.07.38.02.12.05.25.07.37.05.26.11.52.17.77.03.13.06.25.09.38.09.38.19.75.3,1.13,0,0,0,.02,0,.02.1.36.22.73.34,1.09.04.13.08.25.13.38.1.28.2.56.3.84.13.35.27.71.42,1.05.1.25.21.49.32.73,0,0,0,.01,0,.02.04.08.08.17.12.25.06.12.11.25.17.37.02.03.03.06.05.09.01.03.03.05.04.08.06.11.11.23.17.34.17.34.35.67.53,1,0,0,0,.01,0,.02.17.31.35.62.54.93.18.3.37.6.57.9.13.2.26.4.4.59,0,0,0,0,0,0,.13.2.27.39.41.58.21.29.42.57.64.85.03.04.06.08.09.12.19.24.38.48.58.71.08.1.16.19.24.28.13.15.26.29.39.44.34.37.69.74,1.05,1.1,4.43-4.43,7.17-9.92,8.2-15.65-4.79-3.32-10.6-5.27-16.87-5.27Z"/>
        </g>
        <path class="cls-3" d="M192.66,500.04l2.04,2.53-3.21-.51c-8.51-1.32-16.93,3.54-20.04,11.57l-1.17,3.04-1.17-3.04c-3.1-8.03-11.53-12.89-20.04-11.57l-3.21.51,2.05-2.53c5.4-6.7,5.4-16.44,0-23.14l-2.05-2.53,3.21.5c8.51,1.33,16.94-3.54,20.04-11.57l1.17-3.03,1.17,3.03c2.76,7.15,9.74,11.79,17.24,11.79.93,0,1.86-.07,2.8-.22l3.21-.5-2.04,2.53c-5.4,6.7-5.4,16.44,0,23.14Z"/>
      </g>
      <g>
        <path class="cls-2" d="M267.54,49.8c-.75-.75-1.51-1.48-2.28-2.19-.26-.24-.52-.47-.78-.71-.26-.24-.52-.47-.78-.7-.26-.23-.52-.46-.78-.68-.27-.23-.53-.45-.79-.67-.27-.23-.54-.45-.81-.66-1.14-.93-2.3-1.83-3.48-2.68-.48-.36-.97-.7-1.46-1.04-.05-.04-.1-.07-.15-.1-.79-.55-1.59-1.09-2.4-1.61-.02-.02-.04-.03-.06-.04-.55-.35-1.11-.7-1.66-1.04t-.01,0c-.56-.34-1.13-.68-1.71-1.01-.01-.01-.02-.02-.03-.02-.56-.32-1.13-.64-1.7-.95-.02-.02-.04-.03-.06-.04-.52-.28-1.04-.55-1.57-.83-1.52-.78-3.06-1.51-4.62-2.19-.22-.09-.43-.19-.65-.28-.47-.21-.95-.4-1.43-.6-.27-.11-.55-.22-.83-.33-.31-.12-.62-.24-.93-.36-.31-.12-.62-.23-.93-.35-.74-.27-1.48-.53-2.23-.77-.37-.13-.75-.25-1.12-.36-1.09-.34-2.18-.66-3.28-.96-.96-.26-1.92-.5-2.89-.73-.02,0-.04,0-.06-.01-1.03-.24-2.06-.45-3.09-.65-.02,0-.03,0-.04,0-1.05-.2-2.1-.38-3.16-.54-.02,0-.03,0-.05,0-.77-.11-1.54-.22-2.32-.31-.33-.04-.65-.07-.98-.11-.33-.04-.65-.07-.98-.1-.65-.06-1.31-.12-1.96-.16-.33-.02-.65-.04-.98-.06-.33-.02-.66-.04-.98-.05s-.65-.03-.98-.04c-.98-.03-1.96-.05-2.94-.05,0,17.36,5.39,33.45,14.6,46.7,15.88-2.86,31.07-10.42,43.34-22.7Z"/>
        <path class="cls-2" d="M209.6,25.8c-.98,0-1.97.02-2.95.05-.33.01-.66.03-.98.04-.32.02-.64.03-.96.05-.33.02-.66.04-1,.06-.65.05-1.31.1-1.96.16-.33.03-.65.06-.98.1-.34.04-.68.08-1.02.12-.76.09-1.53.19-2.29.31-.02,0-.03,0-.05,0-1.51.23-3.02.49-4.52.81-.76.15-1.51.32-2.26.5-.03,0-.06.02-.09.02-.72.17-1.44.36-2.16.55-.71.19-1.42.39-2.12.6-.49.14-.99.29-1.48.45-.3.09-.6.19-.89.29-.73.24-1.45.49-2.17.75-1.35.49-2.68,1.01-4.01,1.57-.57.24-1.14.48-1.7.74-.34.16-.69.32-1.03.47-.3.14-.6.28-.9.43-.59.28-1.19.58-1.78.88-.44.23-.88.45-1.32.69-.87.46-1.73.95-2.59,1.45-.43.25-.85.51-1.28.76-.49.29-.98.6-1.47.92-1.45.92-2.87,1.89-4.27,2.92-.27.19-.53.39-.79.58-.26.19-.52.39-.78.59-.26.2-.52.4-.78.61-.26.2-.52.41-.77.61-.26.21-.51.42-.76.62-.53.43-1.05.87-1.56,1.33-.22.19-.45.38-.67.59-.44.38-.87.78-1.31,1.18-.26.24-.52.48-.77.72-.26.24-.51.49-.76.74-.02.02-.04.03-.05.05-.23.23-.47.46-.7.69,12.27,12.27,27.47,19.84,43.35,22.7,9.2-13.25,14.6-29.34,14.6-46.7Z"/>
        <path class="cls-2" d="M151.66,49.8l-.74.75c-.25.25-.49.51-.74.76-.48.51-.96,1.02-1.43,1.54l-.7.78c-.23.26-.46.52-.68.78l-2.84,3.5c-.2.26-.4.52-.59.78l-4.42,6.54c-.34.56-.67,1.13-1.01,1.7l-1.01,1.79c-.3.56-.59,1.12-.88,1.69-.15.29-.3.59-.45.88-.14.27-.27.54-.39.81l-.47.99c-.14.3-.28.6-.42.91-.14.3-.27.61-.41.91-.09.22-.19.43-.28.65l-.17.41c-.26.61-.51,1.23-.75,1.85-.12.31-.24.62-.36.93-.17.45-.33.89-.49,1.35-.4,1.11-.77,2.23-1.12,3.35-.15.48-.29.97-.44,1.46-.42,1.46-.81,2.93-1.15,4.41,0,.04-.01.07-.02.1-.17.77-.34,1.55-.49,2.33-.24,1.24-.46,2.48-.65,3.73-.12.81-.23,1.63-.33,2.44l-.11.98c-.03.33-.07.65-.1.98-.06.65-.12,1.31-.16,1.96l-.06.98c-.02.33-.04.66-.05.98-.02.33-.03.65-.04.98l-.05,2.94c17.36,0,33.45-5.39,46.7-14.6-2.86-15.88-10.43-31.07-22.7-43.34Z"/>
        <path class="cls-2" d="M244.84,122.33c2.86,15.88,10.42,31.07,22.7,43.35.23-.23.46-.47.69-.7.02-.02.03-.04.05-.05.25-.25.49-.51.74-.76.24-.25.48-.51.72-.77l1.18-1.31c.21-.22.4-.45.59-.67l1.33-1.56c.21-.25.42-.51.62-.76.21-.25.41-.51.61-.77.21-.26.41-.52.61-.78l.59-.78c.19-.26.39-.53.58-.79.32-.44.64-.88.95-1.32.35-.51.71-1.02,1.05-1.54.05-.07.11-.15.15-.23.34-.52.68-1.04,1.01-1.56,0,0,0-.01.01-.02.35-.56.69-1.12,1.03-1.69.34-.57.68-1.15,1.01-1.73.53-.94,1.04-1.89,1.53-2.84l.88-1.78.43-.9.47-1.03c.25-.56.5-1.13.74-1.7l1.57-4.01c.26-.72.51-1.44.75-2.17.1-.29.19-.59.29-.89.16-.49.31-.99.45-1.48.21-.71.41-1.41.6-2.12.19-.72.37-1.44.55-2.16,0-.03.02-.06.02-.09.18-.75.35-1.51.5-2.26.31-1.5.58-3,.81-4.52,0-.02,0-.03,0-.05.12-.76.22-1.53.31-2.29l.12-1.02c.04-.33.07-.65.1-.98.06-.65.12-1.31.16-1.96l.06-1c.02-.32.04-.64.05-.96.02-.33.03-.66.04-.98l.05-2.95h0c-17.36,0-33.45,5.39-46.7,14.59Z"/>
        <path class="cls-2" d="M291.54,107.73c0-.98-.02-1.96-.05-2.94-.01-.33-.03-.66-.04-.98-.02-.33-.03-.66-.05-.98-.02-.33-.04-.65-.06-.98-.05-.66-.1-1.31-.16-1.96-.03-.33-.06-.65-.1-.98-.04-.33-.07-.65-.11-.98-.09-.77-.2-1.55-.31-2.32,0-.02,0-.03,0-.05-.16-1.06-.34-2.11-.54-3.16,0-.01,0-.02,0-.04-.2-1.04-.42-2.07-.65-3.09,0-.02,0-.04-.01-.06-.23-.97-.47-1.93-.73-2.89-.29-1.1-.62-2.19-.96-3.28-.12-.37-.24-.75-.36-1.12-.25-.75-.51-1.49-.77-2.23-.12-.31-.23-.62-.35-.93-.12-.31-.24-.62-.36-.93-.11-.27-.22-.55-.33-.83-.2-.48-.39-.96-.6-1.43-.09-.22-.18-.43-.28-.65-.68-1.56-1.41-3.09-2.19-4.62-.27-.53-.54-1.05-.83-1.57-.01-.02-.02-.04-.04-.06-.31-.57-.62-1.14-.95-1.7,0-.01-.01-.02-.02-.03-.33-.57-.66-1.14-1-1.7t0-.01c-.34-.56-.69-1.11-1.04-1.66-.01-.02-.02-.04-.04-.06-.52-.81-1.05-1.6-1.6-2.4-.03-.05-.06-.1-.1-.15-.34-.49-.69-.98-1.04-1.46-.86-1.18-1.75-2.34-2.68-3.48-.22-.27-.44-.54-.66-.81-.22-.26-.45-.53-.67-.79-.23-.26-.45-.53-.68-.78-.23-.26-.46-.53-.7-.78-.24-.26-.47-.52-.71-.78-.72-.77-1.45-1.53-2.19-2.28-12.27,12.27-19.84,27.46-22.7,43.34,13.25,9.2,29.34,14.6,46.7,14.6Z"/>
        <path class="cls-2" d="M209.6,189.68c.98,0,1.96-.02,2.94-.05.33-.01.66-.03.98-.04s.66-.03.98-.05c.33-.02.65-.04.98-.06.66-.05,1.31-.1,1.96-.16.33-.03.65-.07.98-.1l.98-.11c.82-.1,1.63-.21,2.44-.33,1.25-.19,2.49-.41,3.73-.65.78-.15,1.55-.32,2.33-.49.03-.01.06-.02.1-.02,1.48-.34,2.95-.73,4.41-1.15.48-.14.97-.28,1.46-.44,1.13-.35,2.24-.72,3.35-1.12.45-.16.9-.33,1.35-.49.31-.12.62-.24.93-.36.62-.24,1.24-.49,1.85-.75l.41-.17c.22-.09.43-.18.65-.28.31-.13.61-.27.91-.41.31-.14.61-.27.91-.42.33-.15.66-.31.99-.47.27-.13.54-.26.81-.39.29-.15.59-.29.88-.45.57-.29,1.13-.58,1.69-.88.6-.33,1.2-.66,1.79-1.01.57-.33,1.14-.66,1.71-1.01,2.23-1.36,4.42-2.83,6.54-4.42.26-.19.53-.39.78-.59,1.19-.91,2.35-1.85,3.5-2.84.26-.23.53-.46.78-.68.26-.23.53-.46.78-.7.52-.47,1.03-.94,1.54-1.43.26-.24.51-.49.76-.74.25-.24.5-.49.75-.74-12.27-12.27-27.46-19.83-43.34-22.7-9.2,13.25-14.6,29.34-14.6,46.7Z"/>
        <path class="cls-2" d="M151.66,165.68l3.06,2.9c.41.36.81.73,1.22,1.08l.78.67c.65.55,1.31,1.08,1.97,1.62.11.08.21.17.32.25.78.62,1.56,1.21,2.36,1.78.53.38,1.06.77,1.6,1.14,0,0,0,0,0,0,.54.37,1.08.74,1.63,1.1.83.55,1.66,1.08,2.5,1.58.85.52,1.7,1.02,2.57,1.49.01.01.03.02.04.03.56.31,1.12.61,1.68.91.65.35,1.31.68,1.97,1.01.09.05.19.1.28.15.09.04.17.08.26.13.34.16.68.32,1.02.48.12.05.24.12.37.17.12.06.24.12.37.17.67.31,1.35.6,2.03.89l2.92,1.17c.77.29,1.55.57,2.34.84.35.12.7.24,1.05.35,1.01.33,2.01.64,3.02.93.02,0,.04.01.06.02,1.04.29,2.08.57,3.13.83.35.08.7.17,1.05.25.71.16,1.43.32,2.14.46.34.07.68.14,1.02.2l1.06.19c.35.06.71.12,1.06.18,1.06.17,2.13.32,3.19.45l1.02.12c.33.03.65.07.98.1.65.06,1.31.12,1.96.16l1,.06c.32.02.64.04.96.05.33.02.66.03.98.04l2.95.05h0c0-17.36-5.39-33.45-14.6-46.7-15.88,2.86-31.07,10.42-43.35,22.7Z"/>
        <path class="cls-2" d="M127.66,107.73h0c0,.98.02,1.97.05,2.95.01.33.03.66.04.98.02.32.03.64.05.96.02.33.04.66.06,1,.05.65.1,1.31.16,1.96.03.33.07.65.1.98.04.34.08.68.12,1.02.13,1.07.28,2.13.45,3.19.06.35.12.71.18,1.06.06.35.13.71.19,1.06.06.34.13.68.2,1.02.14.72.29,1.43.46,2.14.08.35.16.7.25,1.05.25,1.05.53,2.09.83,3.13,0,.02.01.04.02.06.29,1.01.6,2.02.93,3.02.11.35.23.7.35,1.05.27.78.55,1.56.84,2.34.37.98.76,1.95,1.17,2.92.29.68.58,1.36.89,2.03,0,.02.02.03.02.05.11.23.22.46.33.69.16.34.32.68.48,1.02.04.09.08.17.13.26.04.07.08.15.12.22.15.32.31.63.47.94.47.93.96,1.86,1.47,2.78,0,.02.02.03.03.04.48.86.97,1.72,1.49,2.57.51.84,1.04,1.67,1.58,2.5.36.55.73,1.09,1.1,1.63,0,0,0,0,0,0,.37.54.76,1.07,1.14,1.61.57.79,1.17,1.58,1.78,2.36.08.11.17.22.25.32.53.66,1.06,1.32,1.62,1.97.22.26.44.52.67.78.36.41.72.82,1.08,1.22.94,1.04,1.9,2.06,2.9,3.06,12.27-12.27,19.84-27.47,22.7-43.35-13.25-9.2-29.34-14.6-46.7-14.6Z"/>
      </g>
    </g>
  </g>
</svg>