<?xml version="1.0" encoding="UTF-8"?>
<svg id="Camada_2" data-name="Camada 2" xmlns="http://www.w3.org/2000/svg" viewBox="0 0 162.99 162.99">
  <defs>
    <style>
      .cls-1 {
        fill: #266e63;
      }
    </style>
  </defs>
  <g id="Camada_1-2" data-name="Camada 1">
    <path class="cls-1" d="M145.79,0H17.2C7.7,0,0,7.7,0,17.2v128.59c0,9.5,7.7,17.2,17.2,17.2h128.59c9.5,0,17.2-7.7,17.2-17.2V17.2c0-9.5-7.7-17.2-17.2-17.2ZM37.99,64.91c0-8.96,1.8-18.07,5.62-26.8.51-1.16,1.65-1.86,2.84-1.86.42,0,.84.09,1.24.26,13.72,5.99,24.46,16.02,31.35,28.08-10.66,17.31-13.34,39.23-5.39,59.62-22.42-11.87-35.66-35.05-35.66-59.31ZM82.38,126.52c-1.59.63-3.39-.16-4.01-1.75h0c-13.55-34.51,3.44-73.47,37.96-87.02h0c1.59-.62,3.39.16,4.01,1.75,13.55,34.51-3.44,73.47-37.96,87.02Z"/>
  </g>
</svg>