<?xml version="1.0" encoding="UTF-8"?>
<svg id="Camada_2" data-name="Camada 2" xmlns="http://www.w3.org/2000/svg" viewBox="0 0 162.99 162.99">
  <defs>
    <style>
      .cls-1 {
        fill: #f1885b;
      }
    </style>
  </defs>
  <g id="Camada_1-2" data-name="Camada 1">
    <path class="cls-1" d="M145.79,0H17.2C7.7,0,0,7.7,0,17.2v128.59c0,9.5,7.7,17.2,17.2,17.2h128.59c9.5,0,17.2-7.7,17.2-17.2V17.2c0-9.5-7.7-17.2-17.2-17.2ZM127.03,139c0,1.22-.99,2.22-2.21,2.22h-10.21c-1.22,0-2.22-.99-2.22-2.22v-52.19c0-20.08-13.83-36.36-30.89-36.36s-30.89,16.28-30.89,36.36v52.19c0,1.22-.99,2.22-2.22,2.22h-10.21c-1.22,0-2.22-.99-2.22-2.22v-71.7c0-24.42,19.24-44.36,43.38-45.48,26.06-1.21,47.68,20.04,47.68,46.13v71.05Z"/>
  </g>
</svg>