<?xml version="1.0" encoding="UTF-8"?>
<svg id="Camada_2" data-name="Camada 2" xmlns="http://www.w3.org/2000/svg" viewBox="0 0 419.2 557.97">
  <defs>
    <style>
      .cls-1 {
        fill: #faf7d4;
      }

      .cls-2 {
        fill: #1b5a50;
      }

      .cls-3 {
        fill: #266e63;
      }
    </style>
  </defs>
  <g id="Camada_1-2" data-name="Camada 1">
    <g>
      <rect class="cls-3" width="419.2" height="536.93" rx="8.26" ry="8.26"/>
      <g>
        <path class="cls-1" d="M356.23,452.16h-57.29c-4.23,0-7.66,5-7.66,11.16v83.47c0,6.17,3.43,11.16,7.66,11.16h57.29c4.23,0,7.66-5,7.66-11.16v-83.47c0-6.17-3.43-11.16-7.66-11.16Z"/>
        <path class="cls-2" d="M198.91,452.73h-57.29c-4.23,0-7.66,3.4-7.66,7.6v56.84c0,4.2,3.43,7.6,7.66,7.6h57.29c4.23,0,7.66-3.4,7.66-7.6v-56.84c0-4.2-3.43-7.6-7.66-7.6Z"/>
        <g>
          <path class="cls-3" d="M326.49,480.65c-3.07-5.37-7.85-9.84-13.97-12.51-.18-.08-.37-.12-.55-.12-.53,0-1.04.31-1.26.83-1.7,3.89-2.5,7.95-2.5,11.94,0,10.81,5.9,21.13,15.89,26.42-3.54-9.09-2.35-18.85,2.4-26.56Z"/>
          <path class="cls-3" d="M344.89,469.47h0c-.28-.71-1.08-1.06-1.79-.78h0c-15.38,6.04-22.95,23.39-16.91,38.77h0c.28.71,1.08,1.06,1.79.78,15.38-6.04,22.95-23.39,16.91-38.77Z"/>
        </g>
        <path class="cls-2" d="M277.57,452.16h-57.29c-4.23,0-7.66,3.44-7.66,7.68v57.4c0,4.24,3.43,7.68,7.66,7.68h57.29c4.23,0,7.66-3.44,7.66-7.68v-57.4c0-4.24-3.43-7.68-7.66-7.68Z"/>
        <path class="cls-3" d="M247.97,461.88c-10.76.5-19.33,9.38-19.33,20.26v31.94c0,.55.44.99.99.99h4.55c.55,0,.99-.44.99-.99v-23.25c0-8.95,6.16-16.2,13.76-16.2s13.76,7.25,13.76,16.2v23.25c0,.55.44.99.99.99h4.55c.55,0,.99-.44.99-.99v-31.65c0-11.62-9.63-21.09-21.24-20.55Z"/>
        <path class="cls-2" d="M120.26,452.02h-57.29c-4.23,0-7.66,3.44-7.66,7.69v57.51c0,4.25,3.43,7.69,7.66,7.69h57.29c4.23,0,7.66-3.44,7.66-7.69v-57.51c0-4.25-3.43-7.69-7.66-7.69Z"/>
        <g>
          <path class="cls-3" d="M112.54,466.69c-.27-.27-.55-.53-.82-.79-.09-.09-.19-.17-.28-.26-.09-.09-.19-.17-.28-.25-.09-.08-.19-.17-.28-.25-.1-.08-.19-.16-.29-.24-.1-.08-.19-.16-.29-.24-.41-.34-.83-.66-1.26-.97-.17-.13-.35-.25-.53-.38-.02-.01-.04-.02-.05-.04-.29-.2-.58-.39-.87-.58,0,0-.02,0-.02-.01-.2-.13-.4-.25-.6-.38t0,0c-.2-.12-.41-.25-.62-.36,0,0,0,0-.01,0-.2-.12-.41-.23-.61-.34,0,0-.02,0-.02-.01-.19-.1-.38-.2-.57-.3-.55-.28-1.1-.55-1.67-.79-.08-.03-.16-.07-.23-.1-.17-.07-.34-.14-.52-.22-.1-.04-.2-.08-.3-.12-.11-.04-.22-.09-.34-.13-.11-.04-.22-.08-.34-.13-.27-.1-.54-.19-.81-.28-.13-.05-.27-.09-.4-.13-.39-.12-.79-.24-1.18-.35-.35-.09-.69-.18-1.04-.26,0,0-.01,0-.02,0-.37-.09-.74-.16-1.12-.24,0,0,0,0-.01,0-.38-.07-.76-.14-1.14-.19,0,0-.01,0-.02,0-.28-.04-.56-.08-.84-.11-.12-.01-.24-.03-.35-.04-.12-.01-.24-.02-.35-.04-.24-.02-.47-.04-.71-.06-.12,0-.24-.02-.35-.02-.12,0-.24-.01-.36-.02s-.24-.01-.36-.02c-.35-.01-.71-.02-1.06-.02,0,6.27,1.95,12.08,5.27,16.87,5.73-1.03,11.22-3.77,15.65-8.2Z"/>
          <path class="cls-3" d="M91.61,458.03c-.36,0-.71,0-1.07.02-.12,0-.24,0-.36.02-.12,0-.23.01-.35.02-.12,0-.24.02-.36.02-.24.02-.47.04-.71.06-.12.01-.24.02-.35.04-.12.01-.25.03-.37.04-.28.03-.55.07-.83.11,0,0-.01,0-.02,0-.55.08-1.09.18-1.63.29-.27.06-.55.12-.82.18-.01,0-.02,0-.03,0-.26.06-.52.13-.78.2-.26.07-.51.14-.77.22-.18.05-.36.11-.54.16-.11.03-.22.07-.32.1-.26.09-.52.18-.78.27-.49.18-.97.36-1.45.57-.21.09-.41.17-.61.27-.12.06-.25.11-.37.17-.11.05-.22.1-.33.15-.21.1-.43.21-.64.32-.16.08-.32.16-.48.25-.31.17-.63.34-.94.52-.15.09-.31.18-.46.28-.18.11-.36.22-.53.33-.52.33-1.04.68-1.54,1.05-.1.07-.19.14-.29.21-.1.07-.19.14-.28.21-.1.07-.19.14-.28.22-.09.07-.19.15-.28.22-.09.07-.18.15-.28.22-.19.16-.38.32-.56.48-.08.07-.16.14-.24.21-.16.14-.32.28-.47.43-.09.09-.19.17-.28.26-.09.09-.18.18-.28.27,0,0-.01.01-.02.02-.08.08-.17.17-.25.25,4.43,4.43,9.92,7.17,15.65,8.2,3.32-4.79,5.27-10.6,5.27-16.87Z"/>
          <path class="cls-3" d="M70.69,466.69l-.27.27c-.09.09-.18.18-.27.28-.17.18-.35.37-.52.56l-.25.28c-.08.09-.17.19-.25.28l-1.02,1.26c-.07.09-.14.19-.21.28l-1.6,2.36c-.12.2-.24.41-.36.62l-.36.65c-.11.2-.21.4-.32.61-.06.11-.11.21-.16.32-.05.1-.1.19-.14.29l-.17.36c-.05.11-.1.22-.15.33-.05.11-.1.22-.15.33-.03.08-.07.16-.1.23l-.06.15c-.09.22-.18.44-.27.67-.04.11-.09.22-.13.34-.06.16-.12.32-.18.49-.14.4-.28.8-.4,1.21-.06.17-.11.35-.16.53-.15.53-.29,1.06-.41,1.59,0,.01,0,.02,0,.04-.06.28-.12.56-.18.84-.09.45-.17.9-.23,1.35-.04.29-.08.59-.12.88l-.04.35c-.01.12-.02.24-.04.35-.02.24-.04.47-.06.71l-.02.35c0,.12-.01.24-.02.36,0,.12-.01.24-.02.36l-.02,1.06c6.27,0,12.08-1.95,16.87-5.27-1.03-5.73-3.77-11.22-8.2-15.65Z"/>
          <path class="cls-3" d="M104.34,492.89c1.03,5.73,3.76,11.22,8.2,15.65.08-.08.17-.17.25-.25,0,0,.01-.01.02-.02.09-.09.18-.18.27-.28.09-.09.17-.18.26-.28l.43-.47c.07-.08.14-.16.21-.24l.48-.56c.07-.09.15-.18.22-.28.07-.09.15-.18.22-.28.07-.09.15-.19.22-.28l.21-.28c.07-.1.14-.19.21-.29.12-.16.23-.32.34-.48.13-.18.25-.37.38-.55.02-.03.04-.06.06-.08.12-.19.25-.37.36-.56,0,0,0,0,0,0,.13-.2.25-.4.37-.61.12-.21.25-.42.36-.63.19-.34.37-.68.55-1.03l.32-.64.15-.32.17-.37c.09-.2.18-.41.27-.61l.57-1.45c.09-.26.18-.52.27-.78.04-.11.07-.21.1-.32.06-.18.11-.36.16-.54.08-.25.15-.51.22-.77.07-.26.13-.52.2-.78,0-.01,0-.02,0-.03.06-.27.13-.54.18-.82.11-.54.21-1.09.29-1.63,0,0,0-.01,0-.02.04-.28.08-.55.11-.83l.04-.37c.01-.12.02-.24.04-.35.02-.24.04-.47.06-.71l.02-.36c0-.12.01-.23.02-.35,0-.12.01-.24.02-.36l.02-1.06h0c-6.27,0-12.08,1.95-16.87,5.27Z"/>
          <path class="cls-3" d="M121.21,487.62c0-.36,0-.71-.02-1.06,0-.12,0-.24-.02-.36,0-.12-.01-.24-.02-.36,0-.12-.02-.24-.02-.35-.02-.24-.04-.47-.06-.71-.01-.12-.02-.24-.04-.35-.01-.12-.03-.24-.04-.35-.03-.28-.07-.56-.11-.84,0,0,0-.01,0-.02-.06-.38-.12-.76-.19-1.14,0,0,0,0,0-.01-.07-.37-.15-.75-.24-1.12,0,0,0-.01,0-.02-.08-.35-.17-.7-.26-1.04-.11-.4-.22-.79-.35-1.18-.04-.13-.09-.27-.13-.4-.09-.27-.18-.54-.28-.81-.04-.11-.08-.22-.13-.34-.04-.11-.09-.22-.13-.34-.04-.1-.08-.2-.12-.3-.07-.17-.14-.35-.22-.52-.03-.08-.07-.16-.1-.23-.25-.56-.51-1.12-.79-1.67-.1-.19-.2-.38-.3-.57,0,0,0-.02-.01-.02-.11-.21-.22-.41-.34-.61,0,0,0,0,0-.01-.12-.21-.24-.41-.36-.62t0,0c-.12-.2-.25-.4-.38-.6,0,0,0-.02-.01-.02-.19-.29-.38-.58-.58-.87-.01-.02-.02-.04-.04-.05-.12-.18-.25-.35-.38-.53-.31-.43-.63-.85-.97-1.26-.08-.1-.16-.19-.24-.29-.08-.09-.16-.19-.24-.29-.08-.1-.16-.19-.25-.28-.08-.1-.17-.19-.25-.28-.09-.1-.17-.19-.26-.28-.26-.28-.52-.55-.79-.82-4.43,4.43-7.17,9.92-8.2,15.65,4.79,3.32,10.6,5.27,16.87,5.27Z"/>
          <path class="cls-3" d="M91.61,517.21c.36,0,.71,0,1.06-.02.12,0,.24,0,.36-.02s.24-.01.36-.02c.12,0,.24-.02.35-.02.24-.02.47-.04.71-.06.12-.01.24-.02.35-.04l.35-.04c.29-.04.59-.08.88-.12.45-.07.9-.15,1.35-.23.28-.06.56-.12.84-.18.01,0,.02,0,.04,0,.53-.12,1.06-.26,1.59-.41.17-.05.35-.1.53-.16.41-.13.81-.26,1.21-.4.16-.06.32-.12.49-.18.11-.04.22-.09.34-.13.22-.09.45-.18.67-.27l.15-.06c.08-.03.16-.07.23-.1.11-.05.22-.1.33-.15.11-.05.22-.1.33-.15.12-.06.24-.11.36-.17.1-.05.19-.09.29-.14.11-.05.21-.11.32-.16.21-.1.41-.21.61-.32.22-.12.43-.24.65-.36.21-.12.41-.24.62-.36.81-.49,1.59-1.02,2.36-1.6.1-.07.19-.14.28-.21.43-.33.85-.67,1.26-1.02.1-.08.19-.17.28-.25.1-.08.19-.17.28-.25.19-.17.37-.34.56-.52.09-.09.18-.18.28-.27.09-.09.18-.18.27-.27-4.43-4.43-9.92-7.16-15.65-8.2-3.32,4.79-5.27,10.6-5.27,16.87Z"/>
          <path class="cls-3" d="M70.69,508.55l1.1,1.05c.15.13.29.26.44.39l.28.24c.23.2.47.39.71.58.04.03.08.06.12.09.28.22.56.44.85.64.19.14.38.28.58.41,0,0,0,0,0,0,.19.13.39.27.59.4.3.2.6.39.9.57.31.19.62.37.93.54,0,0,0,0,.02,0,.2.11.4.22.61.33.24.13.47.25.71.36.03.02.07.04.1.05.03.02.06.03.1.05.12.06.25.12.37.17.04.02.09.04.13.06.04.02.09.04.13.06.24.11.49.22.73.32l1.05.42c.28.1.56.21.84.3.13.04.25.09.38.13.36.12.73.23,1.09.34,0,0,.02,0,.02,0,.38.11.75.21,1.13.3.13.03.25.06.38.09.26.06.52.11.77.17.12.02.25.05.37.07l.38.07c.13.02.26.04.38.06.38.06.77.12,1.15.16l.37.04c.12.01.24.02.35.04.24.02.47.04.71.06l.36.02c.12,0,.23.01.35.02.12,0,.24.01.36.02l1.06.02h0c0-6.27-1.95-12.08-5.27-16.87-5.73,1.03-11.22,3.77-15.65,8.2Z"/>
          <path class="cls-3" d="M62.02,487.62h0c0,.36,0,.71.02,1.07,0,.12,0,.24.02.36,0,.12.01.23.02.35,0,.12.02.24.02.36.02.24.04.47.06.71.01.12.02.24.04.35.01.12.03.25.04.37.05.39.1.77.16,1.15.02.13.04.26.06.38.02.13.05.25.07.38.02.12.05.25.07.37.05.26.11.52.17.77.03.13.06.25.09.38.09.38.19.75.3,1.13,0,0,0,.02,0,.02.1.36.22.73.34,1.09.04.13.08.25.13.38.1.28.2.56.3.84.13.35.27.71.42,1.05.1.25.21.49.32.73,0,0,0,.01,0,.02.04.08.08.17.12.25.06.12.11.25.17.37.02.03.03.06.05.09.01.03.03.05.04.08.06.11.11.23.17.34.17.34.35.67.53,1,0,0,0,.01,0,.02.17.31.35.62.54.93.18.3.37.6.57.9.13.2.26.4.4.59,0,0,0,0,0,0,.13.2.27.39.41.58.21.29.42.57.64.85.03.04.06.08.09.12.19.24.38.48.58.71.08.1.16.19.24.28.13.15.26.29.39.44.34.37.69.74,1.05,1.1,4.43-4.43,7.17-9.92,8.2-15.65-4.79-3.32-10.6-5.27-16.87-5.27Z"/>
        </g>
        <path class="cls-3" d="M192.66,500.6l2.04,2.53-3.21-.51c-8.51-1.32-16.93,3.54-20.04,11.57l-1.17,3.04-1.17-3.04c-3.1-8.03-11.53-12.89-20.04-11.57l-3.21.51,2.05-2.53c5.4-6.7,5.4-16.44,0-23.14l-2.05-2.53,3.21.5c8.51,1.33,16.94-3.54,20.04-11.57l1.17-3.03,1.17,3.03c2.76,7.15,9.74,11.79,17.24,11.79.93,0,1.86-.07,2.8-.22l3.21-.5-2.04,2.53c-5.4,6.7-5.4,16.44,0,23.14Z"/>
      </g>
      <g>
        <path class="cls-1" d="M192.48,234.78c.47,0,.93.09,1.37.29.68.3,1.35.61,2,.95,1.66.85,3.64-.37,3.64-2.24v-7.81c0-2.58-1.06-4.91-3.19-7.01-2.13-2.09-4.44-3.14-6.96-3.14h-25.32c-2.58,0-4.91,1.04-7.01,3.14-2.09,2.09-3.14,4.43-3.14,7.01v57.42c0,2.58,1.05,4.91,3.14,7.01,2.09,2.09,4.43,3.14,7.01,3.14h25.32c2.51,0,4.83-1.05,6.96-3.14,2.13-2.09,3.19-4.43,3.19-7.01v-3.73c0-.74-.31-1.45-.87-1.93-7.69-6.62-12.24-16.33-12.24-26.77,0-4.88,1-9.63,2.96-14.12.55-1.25,1.78-2.05,3.13-2.05ZM176.67,273.05h0c-1.39,0-2.51-1.13-2.51-2.51v-31.9c0-1.39,1.13-2.51,2.51-2.51h0c1.39,0,2.51,1.13,2.51,2.51v31.9c0,1.39-1.13,2.51-2.51,2.51Z"/>
        <path class="cls-1" d="M263.08,266.52c1.38-1.87,2.08-3.77,2.08-5.71v-34.89c0-2.58-1.05-4.91-3.14-7.01-2.1-2.09-4.43-3.14-7.01-3.14l-32.95-.09c-1.39,0-2.52,1.12-2.52,2.51v16.81c0,1.9,2.01,3.09,3.69,2.22,1.1-.57,2.24-1.09,3.42-1.56,1.76-.68,3.74.18,4.44,1.94,1.66,4.23,2.44,8.59,2.44,12.88,0,10.6-4.8,20.77-13.06,27.49-.58.47-.93,1.17-.93,1.92v10.99c0,1.39,1.13,2.51,2.51,2.51h15.27c1.39,0,2.51-1.13,2.51-2.51v-7.93c0-1.39,1.13-2.51,2.51-2.51h0c1.39,0,2.51,1.13,2.51,2.51v7.93c0,1.39,1.13,2.51,2.51,2.51h15.27c1.39,0,2.51-1.13,2.51-2.51v-10.92c0-1.99-.69-3.91-2.08-5.75-.56-.74-1.16-1.38-1.8-1.94-1.15-.99-1.16-2.77-.01-3.76.65-.57,1.25-1.23,1.81-1.98ZM242.34,260.14h0c-1.39,0-2.51-1.13-2.51-2.51v-19.04c0-1.39,1.13-2.51,2.51-2.51h0c1.39,0,2.51,1.13,2.51,2.51v19.04c0,1.39-1.13,2.51-2.51,2.51Z"/>
        <path class="cls-1" d="M88.42,238.73v3.23c0,1.39,1.13,2.51,2.51,2.51h4.38c1.39,0,2.51,1.13,2.51,2.51v15.37c0,1.39-1.13,2.51-2.51,2.51h-4.38c-1.39,0-2.51,1.13-2.51,2.51v3.33c0,1.39,1.13,2.51,2.51,2.51h10.15c1.39,0,2.51,1.13,2.51,2.51v15.28c0,1.39-1.13,2.51-2.51,2.51h-22.81c-2.58,0-4.92-1.05-7.01-3.14-2.1-2.09-3.14-4.43-3.14-7.01v-57.32c0-2.58,1.04-4.91,3.14-7.01,2.09-2.09,4.43-3.14,7.01-3.14h22.81c1.39,0,2.51,1.13,2.51,2.51v15.28c0,1.39-1.13,2.51-2.51,2.51h-10.15c-1.39,0-2.51,1.13-2.51,2.51Z"/>
        <path class="cls-1" d="M151.54,283.39c0,2.58-1.05,4.91-3.14,7.01-2.09,2.09-4.43,3.14-7.01,3.14h-25.32c-2.51,0-4.83-1.05-6.96-3.14-2.13-2.09-3.19-4.43-3.19-7.01v-57.42c0-2.58,1.06-4.91,3.19-7.01,2.13-2.09,4.45-3.14,6.96-3.14h25.32c2.58,0,4.91,1.05,7.01,3.14,2.09,2.09,3.14,4.43,3.14,7.01v16.43c0,1.39-1.13,2.51-2.51,2.51h-15.27c-1.39,0-2.51-1.13-2.51-2.51v-3.77c0-1.39-1.13-2.51-2.51-2.51h0c-1.39,0-2.51,1.13-2.51,2.51v32.09c0,1.39,1.13,2.51,2.51,2.51h0c1.39,0,2.51-1.13,2.51-2.51v-3.77c0-1.39,1.13-2.51,2.51-2.51h15.27c1.39,0,2.51,1.13,2.51,2.51v16.43Z"/>
        <path class="cls-1" d="M351.08,283.34c0,2.58-1.05,4.91-3.14,7.01-2.1,2.1-4.43,3.14-7.01,3.14h-25.32c-2.51,0-4.83-1.05-6.96-3.14-2.13-2.09-3.19-4.43-3.19-7.01v-57.42c0-2.58,1.06-4.91,3.19-7.01,2.13-2.09,4.45-3.14,6.96-3.14h25.32c2.58,0,4.91,1.05,7.01,3.14,2.09,2.09,3.14,4.43,3.14,7.01v16.43c0,1.39-1.13,2.51-2.51,2.51h-15.27c-1.39,0-2.51-1.13-2.51-2.51v-3.77c0-1.39-1.13-2.51-2.51-2.51h0c-1.39,0-2.51,1.13-2.51,2.51v32.09c0,1.39,1.13,2.51,2.51,2.51h0c1.39,0,2.51-1.13,2.51-2.51v-3.77c0-1.39,1.13-2.51,2.51-2.51h15.27c1.39,0,2.51,1.13,2.51,2.51v16.43Z"/>
        <path class="cls-1" d="M287.77,238.54v3.24c0,1.39,1.13,2.51,2.51,2.51h4.38c1.39,0,2.51,1.13,2.51,2.51v15.37c0,1.39-1.13,2.51-2.51,2.51h-4.38c-1.39,0-2.51,1.13-2.51,2.51v3.33c0,1.39,1.13,2.51,2.51,2.51h10.15c1.39,0,2.51,1.13,2.51,2.51v15.28c0,1.39-1.13,2.51-2.51,2.51h-22.81c-2.58,0-4.92-1.05-7.01-3.14-2.1-2.09-3.14-4.43-3.14-7.01v-57.32c0-2.58,1.04-4.91,3.14-7.01,2.09-2.09,4.43-3.14,7.01-3.14h22.81c1.39,0,2.51,1.13,2.51,2.51v15.28c0,1.39-1.13,2.51-2.51,2.51h-10.15c-1.39,0-2.51,1.13-2.51,2.51Z"/>
        <g>
          <path class="cls-1" d="M208.74,250.8c-3.44-6.02-8.79-11.02-15.64-14.01-.2-.09-.41-.13-.62-.13-.59,0-1.16.35-1.41.93-1.9,4.36-2.8,8.9-2.8,13.37,0,12.1,6.6,23.67,17.79,29.59-3.96-10.17-2.63-21.11,2.69-29.74Z"/>
          <path class="cls-1" d="M229.33,238.28h0c-.31-.79-1.21-1.18-2-.87h0c-17.22,6.76-25.69,26.2-18.93,43.41h0c.31.79,1.21,1.18,2,.87,17.22-6.76,25.69-26.2,18.93-43.41Z"/>
        </g>
      </g>
      <g>
        <path class="cls-1" d="M115.75,415.27c0,4.36-1.8,8.31-5.39,11.84-3.59,3.54-7.51,5.31-11.76,5.31h-42.8c-4.36,0-8.31-1.77-11.84-5.31-3.54-3.54-5.31-7.49-5.31-11.84v-97.03c0-4.35,1.77-8.3,5.31-11.84,3.54-3.54,7.49-5.31,11.84-5.31h42.8c4.25,0,8.17,1.77,11.76,5.31,3.59,3.54,5.39,7.49,5.39,11.84v97.03ZM81.45,393.77v-54.37c0-2.22-1.8-4.02-4.02-4.02h-.46c-2.22,0-4.02,1.8-4.02,4.02v54.37c0,2.22,1.8,4.02,4.02,4.02h.46c2.22,0,4.02-1.8,4.02-4.02Z"/>
        <path class="cls-1" d="M199.78,415.27c0,4.36-1.77,8.31-5.31,11.84-3.54,3.54-7.43,5.31-11.68,5.31h-42.8c-4.36,0-8.31-1.77-11.84-5.31-3.54-3.54-5.31-7.49-5.31-11.84v-110.33c0-2.22,1.8-4.02,4.02-4.02h26.27c2.22,0,4.02,1.8,4.02,4.02v89.16c0,2.22,1.8,4.02,4.02,4.02h.46c2.22,0,4.02-1.8,4.02-4.02v-89.16c0-2.22,1.8-4.02,4.02-4.02h26.1c2.22,0,4.02,1.8,4.02,4.02v110.33Z"/>
        <path class="cls-1" d="M289.95,432.26h-26.27c-2.22,0-4.02-1.8-4.02-4.02v-13.85c0-2.22-1.8-4.02-4.02-4.02h-7.97c-2.22,0-4.02,1.8-4.02,4.02v13.85c0,2.22-1.8,4.02-4.02,4.02h-26.27c-2.22,0-4.02-1.8-4.02-4.02v-123.29c0-2.22,1.81-4.02,4.03-4.02l55.92.15c4.25,0,8.17,1.77,11.76,5.31,3.59,3.54,5.39,7.49,5.39,11.84v58.97c0,3.27-1.2,6.48-3.59,9.64-.02.03-.05.06-.07.09-2.02,2.64-.24,6.44,3.09,6.44h4.08c2.22,0,4.02,1.8,4.02,4.02v30.84c0,2.22-1.8,4.02-4.02,4.02ZM252.15,372.05v-32.64c0-2.22-1.8-4.02-4.02-4.02h-.46c-2.22,0-4.02,1.8-4.02,4.02v32.64c0,2.22,1.8,4.02,4.02,4.02h.46c2.22,0,4.02-1.8,4.02-4.02Z"/>
        <path class="cls-1" d="M380.55,415.27c0,4.36-1.8,8.31-5.39,11.84-3.59,3.54-7.51,5.31-11.76,5.31h-42.8c-4.36,0-8.31-1.77-11.84-5.31-3.54-3.54-5.31-7.49-5.31-11.84v-97.03c0-4.35,1.77-8.3,5.31-11.84,3.54-3.54,7.49-5.31,11.84-5.31h42.8c4.25,0,8.17,1.77,11.76,5.31,3.59,3.54,5.39,7.49,5.39,11.84v97.03ZM346.24,393.77v-54.37c0-2.22-1.8-4.02-4.02-4.02h-.46c-2.22,0-4.02,1.8-4.02,4.02v54.37c0,2.22,1.8,4.02,4.02,4.02h.46c2.22,0,4.02-1.8,4.02-4.02Z"/>
      </g>
      <g>
        <path class="cls-1" d="M205.88,89.47c-10.48-18.33-26.79-33.58-47.65-42.68-.61-.27-1.25-.4-1.89-.4-1.81,0-3.54,1.06-4.31,2.82-5.8,13.28-8.54,27.11-8.54,40.73,0,36.88,20.11,72.1,54.2,90.14-12.08-31-8.01-64.31,8.19-90.62Z"/>
        <path class="cls-1" d="M268.63,51.34h0c-.95-2.42-3.68-3.61-6.1-2.66h0c-52.45,20.59-78.28,79.81-57.69,132.26h0c.95,2.42,3.68,3.61,6.1,2.66,52.45-20.59,78.28-79.81,57.69-132.26Z"/>
      </g>
    </g>
  </g>
</svg>