<?xml version="1.0" encoding="UTF-8"?>
<svg id="Camada_2" data-name="Camada 2" xmlns="http://www.w3.org/2000/svg" viewBox="0 0 453.46 213.02">
  <defs>
    <style>
      .cls-1 {
        fill: #faf7d4;
      }
    </style>
  </defs>
  <g id="Camada_1-2" data-name="Camada 1">
    <g>
      <path class="cls-1" d="M199.75,30.56c.75,0,1.49.15,2.19.46,1.09.47,2.15.98,3.2,1.52,2.66,1.36,5.82-.6,5.82-3.59v-12.49c0-4.12-1.7-7.86-5.11-11.21-3.4-3.35-7.11-5.02-11.13-5.02h-40.51c-4.13,0-7.86,1.67-11.21,5.02-3.35,3.35-5.03,7.09-5.03,11.21v91.85c0,4.12,1.68,7.86,5.03,11.21,3.35,3.35,7.08,5.03,11.21,5.03h40.51c4.02,0,7.73-1.68,11.13-5.03,3.41-3.35,5.11-7.09,5.11-11.21v-5.97c0-1.18-.49-2.32-1.39-3.09-12.3-10.59-19.57-26.12-19.57-42.82,0-7.8,1.6-15.4,4.74-22.59.88-2,2.84-3.28,5.01-3.28ZM174.47,91.77h-.01c-2.22,0-4.02-1.8-4.02-4.02v-51.03c0-2.22,1.8-4.02,4.02-4.02h.01c2.22,0,4.02,1.8,4.02,4.02v51.03c0,2.22-1.8,4.02-4.02,4.02Z"/>
      <path class="cls-1" d="M312.69,81.33c2.21-2.99,3.32-6.03,3.32-9.13V16.38c0-4.12-1.68-7.85-5.02-11.21-3.36-3.34-7.09-5.02-11.21-5.02L247.06,0c-2.22,0-4.03,1.8-4.03,4.02v26.88c0,3.03,3.21,4.94,5.9,3.55,1.76-.92,3.59-1.75,5.48-2.49,2.81-1.09,5.99.29,7.1,3.1,2.66,6.76,3.91,13.74,3.91,20.6,0,16.95-7.67,33.23-20.9,43.98-.93.76-1.49,1.87-1.49,3.07v17.58c0,2.22,1.8,4.02,4.02,4.02h24.43c2.22,0,4.02-1.8,4.02-4.02v-12.68c0-2.22,1.8-4.02,4.02-4.02h0c2.22,0,4.02,1.8,4.02,4.02v12.68c0,2.22,1.8,4.02,4.02,4.02h24.43c2.22,0,4.02-1.8,4.02-4.02v-17.47c0-3.19-1.11-6.26-3.32-9.2-.89-1.18-1.85-2.21-2.88-3.1-1.84-1.58-1.85-4.43-.02-6.02,1.04-.9,2.01-1.96,2.9-3.17ZM279.52,71.12h0c-2.22,0-4.02-1.8-4.02-4.02v-30.46c0-2.22,1.8-4.02,4.02-4.02h0c2.22,0,4.02,1.8,4.02,4.02v30.46c0,2.22-1.8,4.02-4.02,4.02Z"/>
      <path class="cls-1" d="M33.29,36.88v5.17c0,2.22,1.8,4.02,4.02,4.02h7.01c2.22,0,4.02,1.8,4.02,4.02v24.59c0,2.22-1.8,4.02-4.02,4.02h-7.01c-2.22,0-4.02,1.8-4.02,4.02v5.33c0,2.22,1.8,4.02,4.02,4.02h16.24c2.22,0,4.02,1.8,4.02,4.02v24.44c0,2.22-1.8,4.02-4.02,4.02H17.06c-4.13,0-7.87-1.68-11.21-5.03-3.36-3.35-5.03-7.09-5.03-11.21V16.62c0-4.12,1.67-7.86,5.03-11.21C9.19,2.06,12.93.38,17.06.38h36.49c2.22,0,4.02,1.8,4.02,4.02v24.44c0,2.22-1.8,4.02-4.02,4.02h-16.24c-2.22,0-4.02,1.8-4.02,4.02Z"/>
      <path class="cls-1" d="M134.26,108.31c0,4.12-1.68,7.86-5.03,11.21-3.35,3.35-7.09,5.03-11.21,5.03h-40.51c-4.02,0-7.73-1.67-11.13-5.03-3.4-3.35-5.1-7.09-5.1-11.21V16.46c0-4.12,1.7-7.86,5.1-11.21,3.4-3.35,7.11-5.03,11.13-5.03h40.51c4.12,0,7.86,1.68,11.21,5.03,3.35,3.35,5.03,7.09,5.03,11.21v26.29c0,2.22-1.8,4.02-4.02,4.02h-24.43c-2.22,0-4.02-1.8-4.02-4.02v-6.03c0-2.22-1.8-4.02-4.02-4.02h0c-2.22,0-4.02,1.8-4.02,4.02v51.34c0,2.22,1.8,4.02,4.02,4.02h0c2.22,0,4.02-1.8,4.02-4.02v-6.03c0-2.22,1.8-4.02,4.02-4.02h24.43c2.22,0,4.02,1.8,4.02,4.02v26.29Z"/>
      <path class="cls-1" d="M453.46,108.23c0,4.12-1.68,7.86-5.03,11.21s-7.09,5.03-11.21,5.03h-40.51c-4.02,0-7.73-1.67-11.13-5.03-3.4-3.35-5.1-7.09-5.1-11.21V16.38c0-4.12,1.7-7.86,5.1-11.21,3.4-3.35,7.11-5.03,11.13-5.03h40.51c4.12,0,7.86,1.68,11.21,5.03,3.35,3.35,5.03,7.09,5.03,11.21v26.29c0,2.22-1.8,4.02-4.02,4.02h-24.43c-2.22,0-4.02-1.8-4.02-4.02v-6.03c0-2.22-1.8-4.02-4.02-4.02h0c-2.22,0-4.02,1.8-4.02,4.02v51.34c0,2.22,1.8,4.02,4.02,4.02h0c2.22,0,4.02-1.8,4.02-4.02v-6.03c0-2.22,1.8-4.02,4.02-4.02h24.43c2.22,0,4.02,1.8,4.02,4.02v26.29Z"/>
      <path class="cls-1" d="M352.19,36.57v5.18c0,2.22,1.8,4.02,4.02,4.02h7.01c2.22,0,4.02,1.8,4.02,4.02v24.58c0,2.22-1.8,4.02-4.02,4.02h-7.01c-2.22,0-4.02,1.8-4.02,4.02v5.33c0,2.22,1.8,4.02,4.02,4.02h16.24c2.22,0,4.02,1.8,4.02,4.02v24.44c0,2.22-1.8,4.02-4.02,4.02h-36.49c-4.13,0-7.87-1.68-11.21-5.03-3.36-3.35-5.03-7.09-5.03-11.21V16.31c0-4.12,1.67-7.86,5.03-11.21,3.34-3.35,7.08-5.03,11.21-5.03h36.49c2.22,0,4.02,1.8,4.02,4.02v24.44c0,2.22-1.8,4.02-4.02,4.02h-16.24c-2.22,0-4.02,1.8-4.02,4.02Z"/>
      <path class="cls-1" d="M225.76,56.17c-5.5-9.63-14.07-17.63-25.02-22.41-.32-.14-.66-.21-.99-.21-.95,0-1.86.56-2.26,1.48-3.05,6.97-4.48,14.24-4.48,21.39,0,19.36,10.56,37.86,28.46,47.33-6.34-16.27-4.2-33.77,4.3-47.58Z"/>
      <path class="cls-1" d="M258.71,36.15h0c-.5-1.27-1.93-1.9-3.2-1.4h0c-27.54,10.81-41.1,41.9-30.29,69.45h0c.5,1.27,1.93,1.9,3.2,1.4,27.54-10.81,41.1-41.9,30.29-69.45Z"/>
      <g>
        <path class="cls-1" d="M17.05,145.5l1.69.83c-1.58,2.5-4.36,4.16-7.63,4.16-5.2,0-9.11-4.16-9.11-9.29s3.91-9.29,9.11-9.29c3.27,0,6.04,1.64,7.63,4.16l-1.69.81c-1.27-1.87-3.41-3.12-5.94-3.12-4.17,0-7.15,3.33-7.15,7.44s2.98,7.44,7.15,7.44c2.53,0,4.67-1.25,5.94-3.15Z"/>
        <path class="cls-1" d="M34.84,132.07v10.9c0,5.18-2.98,7.52-6.78,7.52s-6.94-2.24-6.94-7.44v-10.98h1.9v11.06c0,3.64,2.3,5.49,5.04,5.49s4.88-1.92,4.88-5.49v-11.06h1.9Z"/>
        <path class="cls-1" d="M40.04,132.07v18.21h-1.9v-18.21h1.9Z"/>
        <path class="cls-1" d="M58.2,141.21c0,5.02-3.64,9.08-9.32,9.08h-5.68v-18.21h5.68c5.75,0,9.32,4.11,9.32,9.13ZM56.17,141.21c0-4.01-2.83-7.26-7.42-7.26h-3.64v14.46h3.62c4.72,0,7.44-3.23,7.44-7.21Z"/>
        <path class="cls-1" d="M70.31,145h-7.47l-2.01,5.28h-2.11l6.97-18.21h1.74l7,18.21h-2.11l-2.01-5.28ZM69.6,143.13l-3.04-8.07-3.01,8.07h6.05Z"/>
        <path class="cls-1" d="M87.92,150.29l-3.96-6.92h-5.12v6.92h-1.9v-18.21h6.92c3.46,0,5.81,2.58,5.81,5.65,0,2.39-1.48,4.47-3.72,5.28l4.17,7.28h-2.19ZM78.84,141.49h5.01c2.35,0,3.83-1.74,3.83-3.77s-1.48-3.77-3.83-3.77h-5.01v7.54Z"/>
        <path class="cls-1" d="M114.94,141.21c0,5.02-3.64,9.08-9.32,9.08h-5.68v-18.21h5.68c5.75,0,9.32,4.11,9.32,9.13ZM112.91,141.21c0-4.01-2.82-7.26-7.42-7.26h-3.64v14.46h3.62c4.73,0,7.44-3.23,7.44-7.21Z"/>
        <path class="cls-1" d="M127.05,145h-7.47l-2.01,5.28h-2.11l6.97-18.21h1.74l7,18.21h-2.11l-2.01-5.28ZM126.34,143.13l-3.04-8.07-3.01,8.07h6.05Z"/>
        <path class="cls-1" d="M155.58,145.5l1.69.83c-1.58,2.5-4.36,4.16-7.63,4.16-5.2,0-9.11-4.16-9.11-9.29s3.91-9.29,9.11-9.29c3.27,0,6.04,1.64,7.63,4.16l-1.69.81c-1.27-1.87-3.41-3.12-5.94-3.12-4.17,0-7.15,3.33-7.15,7.44s2.98,7.44,7.15,7.44c2.53,0,4.67-1.25,5.94-3.15Z"/>
        <path class="cls-1" d="M161.68,132.07v18.21h-1.9v-18.21h1.9Z"/>
        <path class="cls-1" d="M179.84,141.21c0,5.02-3.64,9.08-9.32,9.08h-5.68v-18.21h5.68c5.75,0,9.32,4.11,9.32,9.13ZM177.81,141.21c0-4.01-2.83-7.26-7.42-7.26h-3.64v14.46h3.62c4.72,0,7.44-3.23,7.44-7.21Z"/>
        <path class="cls-1" d="M191.95,145h-7.47l-2.01,5.28h-2.11l6.97-18.21h1.74l7,18.21h-2.11l-2.01-5.28ZM191.24,143.13l-3.04-8.07-3.01,8.07h6.04Z"/>
        <path class="cls-1" d="M213.57,141.21c0,5.02-3.64,9.08-9.32,9.08h-5.68v-18.21h5.68c5.75,0,9.32,4.11,9.32,9.13ZM211.53,141.21c0-4.01-2.83-7.26-7.42-7.26h-3.64v14.46h3.62c4.72,0,7.44-3.23,7.44-7.21Z"/>
        <path class="cls-1" d="M228.48,148.41v1.87h-12.27v-18.21h12.12v1.87h-10.22v6.3h9.4v1.87h-9.4v6.3h10.37Z"/>
        <path class="cls-1" d="M251.04,148.41v1.87h-12.27v-18.21h12.12v1.87h-10.22v6.3h9.4v1.87h-9.4v6.3h10.37ZM248.01,126.87l-2.61,3.56h-1.45l2.06-3.56h2.01Z"/>
        <path class="cls-1" d="M275.98,145.5l1.69.83c-1.58,2.5-4.36,4.16-7.63,4.16-5.2,0-9.11-4.16-9.11-9.29s3.91-9.29,9.11-9.29c3.27,0,6.04,1.64,7.63,4.16l-1.69.81c-1.27-1.87-3.41-3.12-5.94-3.12-4.17,0-7.15,3.33-7.15,7.44s2.98,7.44,7.15,7.44c2.53,0,4.67-1.25,5.94-3.15Z"/>
        <path class="cls-1" d="M293.77,132.07v10.9c0,5.18-2.98,7.52-6.78,7.52s-6.94-2.24-6.94-7.44v-10.98h1.9v11.06c0,3.64,2.3,5.49,5.04,5.49s4.88-1.92,4.88-5.49v-11.06h1.9Z"/>
        <path class="cls-1" d="M298.97,132.07v18.21h-1.9v-18.21h1.9Z"/>
        <path class="cls-1" d="M317.13,141.21c0,5.02-3.64,9.08-9.32,9.08h-5.68v-18.21h5.68c5.75,0,9.32,4.11,9.32,9.13ZM315.09,141.21c0-4.01-2.82-7.26-7.42-7.26h-3.64v14.46h3.62c4.72,0,7.44-3.23,7.44-7.21Z"/>
        <path class="cls-1" d="M329.24,145h-7.47l-2.01,5.28h-2.11l6.97-18.21h1.74l7,18.21h-2.11l-2.01-5.28ZM328.53,143.13l-3.04-8.07-3.01,8.07h6.04Z"/>
        <path class="cls-1" d="M346.84,150.29l-3.96-6.92h-5.12v6.92h-1.9v-18.21h6.92c3.46,0,5.81,2.58,5.81,5.65,0,2.39-1.48,4.47-3.72,5.28l4.17,7.28h-2.19ZM337.76,141.49h5.02c2.35,0,3.83-1.74,3.83-3.77s-1.48-3.77-3.83-3.77h-5.02v7.54Z"/>
        <path class="cls-1" d="M373.87,141.21c0,5.02-3.64,9.08-9.32,9.08h-5.68v-18.21h5.68c5.75,0,9.32,4.11,9.32,9.13ZM371.84,141.21c0-4.01-2.82-7.26-7.42-7.26h-3.64v14.46h3.62c4.72,0,7.44-3.23,7.44-7.21Z"/>
        <path class="cls-1" d="M385.98,145h-7.47l-2.01,5.28h-2.11l6.97-18.21h1.74l7,18.21h-2.11l-2.01-5.28ZM385.27,143.13l-3.04-8.07-3.01,8.07h6.04Z"/>
        <path class="cls-1" d="M414.14,132.07l-7.05,18.21h-1.74l-7.07-18.21h2.14l5.81,15.22,5.81-15.22h2.11Z"/>
        <path class="cls-1" d="M418.28,132.07v18.21h-1.9v-18.21h1.9Z"/>
        <path class="cls-1" d="M436.44,141.21c0,5.02-3.64,9.08-9.32,9.08h-5.68v-18.21h5.68c5.75,0,9.32,4.11,9.32,9.13ZM434.41,141.21c0-4.01-2.82-7.26-7.42-7.26h-3.64v14.46h3.62c4.72,0,7.44-3.23,7.44-7.21Z"/>
        <path class="cls-1" d="M448.56,145h-7.47l-2.01,5.28h-2.11l6.97-18.21h1.74l7,18.21h-2.11l-2.01-5.28ZM447.84,143.13l-3.04-8.07-3.01,8.07h6.04Z"/>
      </g>
      <path class="cls-1" d="M219.17,159.32h-42.04c-3.11,0-5.62,2.52-5.62,5.62v42.04c0,3.11,2.52,5.62,5.62,5.62h42.04c3.11,0,5.62-2.52,5.62-5.62v-42.04c0-3.11-2.52-5.62-5.62-5.62ZM214.58,194.45l1.5,1.86-2.36-.37c-6.24-.97-12.43,2.59-14.7,8.49l-.86,2.23-.86-2.23c-2.28-5.9-8.46-9.46-14.71-8.49l-2.36.37,1.5-1.86c3.97-4.92,3.97-12.06,0-16.98l-1.5-1.86,2.36.37c6.25.98,12.43-2.59,14.71-8.49l.86-2.22.86,2.22c2.03,5.25,7.15,8.65,12.65,8.65.68,0,1.37-.05,2.06-.16l2.36-.37-1.5,1.86c-3.97,4.92-3.97,12.06,0,16.98Z"/>
      <path class="cls-1" d="M104.83,159.73h-42.04c-3.11,0-5.62,2.52-5.62,5.62v42.04c0,3.11,2.52,5.62,5.62,5.62h42.04c3.11,0,5.62-2.52,5.62-5.62v-42.04c0-3.11-2.52-5.62-5.62-5.62ZM69.59,180.95c0-2.93.59-5.91,1.84-8.76.17-.38.54-.61.93-.61.14,0,.27.03.41.09,4.49,1.96,8,5.24,10.25,9.18-3.49,5.66-4.36,12.83-1.76,19.49-7.33-3.88-11.66-11.46-11.66-19.39ZM84.1,201.1c-.52.2-1.11-.05-1.31-.57-4.43-11.28,1.13-24.02,12.41-28.45h0c.52-.2,1.11.05,1.31.57,4.43,11.28-1.13,24.02-12.41,28.45Z"/>
      <path class="cls-1" d="M162,159.32h-42.04c-3.11,0-5.62,2.52-5.62,5.62v42.04c0,3.11,2.52,5.62,5.62,5.62h42.04c3.11,0,5.62-2.52,5.62-5.62v-42.04c0-3.11-2.52-5.62-5.62-5.62ZM155.87,204.77c0,.4-.32.72-.72.72h-3.34c-.4,0-.72-.32-.72-.72v-17.06c0-6.56-4.52-11.89-10.1-11.89s-10.1,5.32-10.1,11.89v17.06c0,.4-.32.72-.72.72h-3.34c-.4,0-.72-.32-.72-.72v-23.44c0-7.98,6.29-14.5,14.18-14.87,8.52-.4,15.59,6.55,15.59,15.08v23.23Z"/>
      <path class="cls-1" d="M42,171.02c-3.25,3.25-7.28,5.26-11.49,6.02-2.44-3.51-3.87-7.78-3.87-12.38,0,4.6-1.43,8.87-3.87,12.38-4.21-.76-8.24-2.76-11.49-6.02,3.25,3.25,5.26,7.28,6.02,11.49-3.51,2.44-7.78,3.87-12.38,3.87,4.6,0,8.87,1.43,12.38,3.87-.76,4.21-2.76,8.24-6.02,11.49,3.25-3.25,7.28-5.26,11.49-6.02,2.44,3.51,3.87,7.78,3.87,12.38,0-4.6,1.43-8.86,3.87-12.38,4.21.76,8.23,2.76,11.49,6.02-3.25-3.25-5.26-7.28-6.02-11.49,3.51-2.44,7.78-3.87,12.38-3.87-4.6,0-8.86-1.43-12.38-3.87.76-4.21,2.76-8.23,6.02-11.49Z"/>
      <path class="cls-1" d="M47.66,159.73H5.62c-3.11,0-5.62,2.52-5.62,5.62v42.04c0,3.11,2.52,5.62,5.62,5.62h42.04c3.11,0,5.62-2.52,5.62-5.62v-42.04c0-3.11-2.52-5.62-5.62-5.62ZM48.36,186.38v.78c-.02.09-.02.17-.03.26,0,.09,0,.17-.01.26l-.02.27c-.01.17-.03.35-.04.52,0,.09-.02.17-.03.26l-.03.27c-.03.2-.05.4-.08.61,0,0,0,0,0,.01-.06.4-.13.8-.21,1.2-.04.2-.08.4-.13.6,0,0,0,.02,0,.03-.05.19-.09.38-.15.57-.05.19-.1.38-.16.56-.04.13-.08.26-.12.39-.03.08-.05.16-.08.24-.06.19-.13.38-.2.57l-.42,1.06c-.06.15-.13.3-.2.45l-.13.27c-.04.08-.08.16-.11.24l-.23.47c-.13.25-.26.5-.4.75-.09.15-.18.31-.27.46-.09.15-.18.3-.27.45,0,0,0,0,0,0-.09.14-.18.28-.27.41-.01.02-.03.04-.04.06-.09.14-.18.27-.28.41-.08.12-.17.23-.25.35-.05.07-.1.14-.15.21l-.16.21c-.05.07-.11.14-.16.21-.05.07-.11.14-.16.2-.05.07-.11.14-.16.2l-.35.41c-.05.06-.1.12-.16.18l-.31.35c-.06.07-.13.14-.19.2-.06.07-.13.14-.2.2,0,0,0,0-.01.01-.06.06-.12.12-.18.19-.07.07-.13.13-.2.2-.07.07-.13.13-.2.2-.14.13-.27.25-.41.38-.07.06-.14.12-.21.19-.07.06-.14.12-.21.18-.3.26-.61.51-.93.75-.07.05-.14.11-.21.16-.56.42-1.14.81-1.73,1.17-.15.09-.3.18-.45.27-.16.09-.32.18-.48.27-.15.08-.3.16-.45.23-.08.04-.16.08-.23.12-.07.04-.14.07-.21.1-.09.04-.17.08-.26.12-.08.04-.16.07-.24.11-.08.04-.16.07-.24.11-.06.03-.11.05-.17.07l-.11.05c-.16.07-.33.14-.49.2-.08.03-.16.06-.25.09-.12.04-.24.09-.36.13-.29.11-.59.2-.89.3-.13.04-.26.08-.39.12-.39.11-.78.21-1.17.3,0,0-.02,0-.03,0-.21.05-.41.09-.62.13-.33.06-.66.12-.99.17-.21.03-.43.06-.65.09l-.26.03c-.09,0-.17.02-.26.03-.17.02-.35.03-.52.04-.09,0-.17.01-.26.02-.09,0-.17,0-.26.01s-.17,0-.26.01c-.26,0-.52.01-.78.01h-.78c-.09-.02-.17-.02-.26-.03-.09,0-.17,0-.26-.01l-.27-.02c-.17-.01-.35-.03-.52-.04-.09,0-.17-.02-.26-.03l-.27-.03c-.28-.03-.56-.07-.85-.12-.09-.02-.19-.03-.28-.05l-.28-.05c-.09-.02-.18-.03-.27-.05-.19-.04-.38-.08-.57-.12-.09-.02-.19-.04-.28-.07-.28-.07-.55-.14-.83-.22,0,0-.01,0-.02,0-.27-.08-.53-.16-.8-.25-.09-.03-.19-.06-.28-.09-.21-.07-.41-.15-.62-.22l-.77-.31c-.18-.08-.36-.15-.54-.24-.03-.02-.07-.03-.1-.05-.03-.02-.07-.03-.1-.05-.09-.04-.18-.08-.27-.13-.02-.01-.05-.02-.07-.03-.03-.01-.05-.03-.08-.04-.18-.09-.35-.17-.52-.27-.15-.08-.3-.16-.44-.24,0,0,0,0-.01,0-.23-.13-.46-.26-.68-.4-.22-.13-.44-.27-.66-.42-.15-.1-.29-.19-.43-.29,0,0,0,0,0,0-.14-.1-.28-.2-.43-.3-.21-.15-.42-.31-.62-.47-.03-.02-.06-.04-.09-.07-.18-.14-.35-.28-.52-.43l-.21-.18c-.11-.09-.22-.19-.32-.29l-.81-.77c-.27-.27-.52-.54-.77-.81-.1-.11-.19-.21-.29-.32-.06-.07-.12-.14-.18-.21-.15-.17-.29-.35-.43-.52-.02-.03-.04-.06-.07-.09-.16-.21-.32-.41-.47-.62-.1-.14-.2-.28-.3-.43,0,0,0,0,0,0-.1-.14-.2-.29-.29-.43-.15-.22-.29-.44-.42-.66-.14-.22-.27-.45-.4-.68,0,0,0,0,0-.01-.14-.24-.26-.49-.39-.74-.04-.08-.08-.16-.12-.25,0-.02-.02-.04-.03-.06-.01-.02-.02-.05-.03-.07-.04-.09-.09-.18-.13-.27-.03-.06-.06-.12-.09-.18,0,0,0,0,0-.01-.08-.18-.16-.36-.24-.54-.11-.26-.21-.51-.31-.77-.08-.2-.15-.41-.22-.62-.03-.09-.06-.19-.09-.28-.09-.27-.17-.53-.25-.8,0,0,0-.01,0-.02-.08-.28-.15-.55-.22-.83-.02-.09-.04-.19-.07-.28-.04-.19-.08-.38-.12-.57-.02-.09-.04-.18-.05-.27-.02-.09-.03-.19-.05-.28-.02-.09-.03-.19-.05-.28-.04-.28-.09-.56-.12-.85,0-.09-.02-.18-.03-.27,0-.09-.02-.17-.03-.26-.02-.17-.03-.35-.04-.52,0-.09-.01-.18-.02-.27,0-.09,0-.17-.01-.26,0-.09,0-.17-.01-.26,0-.26-.01-.52-.01-.78h0s.01-.78.01-.78c0-.09,0-.17.01-.26,0-.09,0-.17.01-.26l.02-.26c.01-.17.03-.35.04-.52,0-.09.02-.17.03-.26l.03-.26c.03-.22.06-.43.09-.65.05-.33.11-.66.17-.99.04-.21.09-.41.13-.62,0,0,0-.02,0-.03.09-.39.19-.78.3-1.17.04-.13.08-.26.12-.39.09-.3.19-.59.3-.89.04-.12.09-.24.13-.36.03-.08.06-.16.09-.25.06-.16.13-.33.2-.49l.05-.11c.02-.06.05-.11.07-.17.03-.08.07-.16.11-.24.04-.08.07-.16.11-.24l.13-.26c.03-.07.07-.14.1-.21.04-.08.08-.16.12-.23.08-.15.15-.3.23-.45l.27-.48c.09-.15.18-.3.27-.45l1.17-1.73c.05-.07.1-.14.16-.21l.75-.93c.06-.07.12-.14.18-.21l.19-.21c.12-.14.25-.27.38-.41.06-.07.13-.14.2-.2l.2-.2c.06-.06.12-.12.19-.18,0,0,0,0,.01-.01.07-.07.13-.13.2-.2.07-.06.14-.13.2-.19.11-.11.23-.21.35-.31.06-.05.12-.11.18-.16.14-.12.27-.24.41-.35.07-.05.13-.11.2-.16.07-.05.14-.11.2-.16.07-.05.14-.11.21-.16.07-.05.14-.11.21-.16.07-.05.14-.1.21-.15.37-.27.75-.53,1.13-.77.13-.08.26-.16.39-.24.11-.07.23-.14.34-.2.23-.13.46-.26.69-.38.12-.06.23-.12.35-.18.16-.08.31-.16.47-.23.08-.04.16-.08.24-.11.09-.04.18-.08.27-.13.15-.07.3-.13.45-.2.35-.15.71-.29,1.06-.42.19-.07.38-.14.57-.2.08-.03.16-.05.24-.08.13-.04.26-.08.39-.12.19-.06.37-.11.56-.16.19-.05.38-.1.57-.15,0,0,.02,0,.03,0,.2-.05.4-.09.6-.13.4-.08.8-.15,1.2-.21,0,0,0,0,.01,0,.2-.03.4-.06.61-.08.09,0,.18-.02.27-.03.09,0,.17-.02.26-.03.17-.02.35-.03.52-.04.09,0,.18-.01.27-.02.09,0,.17,0,.26-.01.09,0,.17,0,.26-.01.26,0,.52-.01.78-.01s.52,0,.78.01c.09,0,.17,0,.26.01.09,0,.17,0,.26.01l.26.02c.17.01.35.03.52.04.09,0,.17.02.26.03s.17.02.26.03c.2.03.41.05.61.08,0,0,0,0,.01,0,.28.04.56.09.84.14,0,0,0,0,0,0,.27.05.55.11.82.17,0,0,0,0,.02,0,.26.06.51.12.77.19.29.08.58.16.87.25.1.03.2.06.3.1.2.07.39.13.59.2.08.03.16.06.25.09.08.03.16.06.25.09.07.03.15.06.22.09.13.05.25.1.38.16.06.02.11.05.17.07.41.18.82.37,1.22.58.14.07.28.15.42.22,0,0,.01,0,.02,0,.15.08.3.17.45.25,0,0,0,0,0,0,.15.09.3.18.45.27t0,0c.15.09.29.18.44.28,0,0,.01,0,.02,0,.21.14.43.28.64.43.01,0,.03.02.04.03.13.09.26.18.39.28.31.23.62.46.92.71.07.06.14.12.21.18.07.06.14.12.21.18.07.06.14.12.21.18.07.06.14.12.21.19.07.06.14.13.21.19.2.19.41.38.6.58s.39.4.58.6c.06.07.13.14.19.21.06.07.12.14.19.21.06.07.12.14.18.21.06.07.12.14.18.21.06.07.12.14.18.21.25.3.48.61.71.92.09.13.19.26.28.39,0,.01.02.03.03.04.15.21.29.42.43.64,0,0,0,.01,0,.02.09.15.19.29.28.44t0,0c.09.15.18.3.27.45,0,0,0,0,0,0,.09.15.17.3.25.45,0,0,0,.01,0,.02.08.14.15.28.22.42.21.4.4.81.58,1.22.03.06.05.11.07.17.05.13.11.25.16.38.03.07.06.15.09.22.03.08.06.16.09.25.03.08.06.16.09.25.07.2.14.39.2.59.03.1.07.2.1.3.09.29.18.58.25.87.07.25.13.51.19.77,0,0,0,0,0,.02.06.27.12.55.17.82,0,0,0,0,0,0,.05.28.1.56.14.84,0,0,0,0,0,.01.03.2.06.41.08.61,0,.09.02.17.03.26s.02.17.03.26c.02.17.03.35.04.52,0,.09.01.17.02.26,0,.09,0,.17.01.26s0,.17.01.26c0,.26.01.52.01.78h0Z"/>
      <path class="cls-1" d="M447.84,159.32h-42.04c-3.11,0-5.62,2.52-5.62,5.62v42.04c0,3.11,2.52,5.62,5.62,5.62h42.04c3.11,0,5.62-2.52,5.62-5.62v-42.04c0-3.11-2.52-5.62-5.62-5.62ZM443.25,194.45l1.5,1.86-2.36-.37c-6.24-.97-12.43,2.59-14.7,8.49l-.86,2.23-.86-2.23c-2.28-5.9-8.46-9.46-14.71-8.49l-2.36.37,1.5-1.86c3.97-4.92,3.97-12.06,0-16.98l-1.5-1.86,2.36.37c6.25.98,12.43-2.59,14.71-8.49l.86-2.22.86,2.22c2.03,5.25,7.15,8.65,12.65,8.65.68,0,1.37-.05,2.06-.16l2.36-.37-1.5,1.86c-3.97,4.92-3.97,12.06,0,16.98Z"/>
      <path class="cls-1" d="M333.5,159.73h-42.04c-3.11,0-5.62,2.52-5.62,5.62v42.04c0,3.11,2.52,5.62,5.62,5.62h42.04c3.11,0,5.62-2.52,5.62-5.62v-42.04c0-3.11-2.52-5.62-5.62-5.62ZM298.26,180.95c0-2.93.59-5.91,1.84-8.76.17-.38.54-.61.93-.61.14,0,.27.03.41.09,4.49,1.96,8,5.24,10.25,9.18-3.49,5.66-4.36,12.83-1.76,19.49-7.33-3.88-11.66-11.46-11.66-19.39ZM312.77,201.1c-.52.2-1.11-.05-1.31-.57h0c-4.43-11.28,1.13-24.02,12.41-28.45h0c.52-.2,1.11.05,1.31.57,4.43,11.28-1.13,24.02-12.41,28.45Z"/>
      <path class="cls-1" d="M390.67,159.32h-42.04c-3.11,0-5.62,2.52-5.62,5.62v42.04c0,3.11,2.52,5.62,5.62,5.62h42.04c3.11,0,5.62-2.52,5.62-5.62v-42.04c0-3.11-2.52-5.62-5.62-5.62ZM384.54,204.77c0,.4-.32.72-.72.72h-3.34c-.4,0-.72-.32-.72-.72v-17.06c0-6.56-4.52-11.89-10.1-11.89s-10.1,5.32-10.1,11.89v17.06c0,.4-.32.72-.72.72h-3.34c-.4,0-.72-.32-.72-.72v-23.44c0-7.98,6.29-14.5,14.18-14.87,8.52-.4,15.59,6.55,15.59,15.08v23.23Z"/>
      <path class="cls-1" d="M276.34,159.73h-42.04c-3.11,0-5.62,2.52-5.62,5.62v42.04c0,3.11,2.52,5.62,5.62,5.62h42.04c3.11,0,5.62-2.52,5.62-5.62v-42.04c0-3.11-2.52-5.62-5.62-5.62ZM277.03,186.38v.78c-.02.09-.02.17-.03.26,0,.09,0,.17-.01.26l-.02.27c-.01.17-.03.35-.04.52,0,.09-.02.17-.03.26l-.03.27c-.03.2-.05.4-.08.61,0,0,0,0,0,.01-.06.4-.13.8-.21,1.2-.04.2-.08.4-.13.6,0,0,0,.02,0,.03-.05.19-.09.38-.15.57-.05.19-.1.38-.16.56-.04.13-.08.26-.12.39-.03.08-.05.16-.08.24-.06.19-.13.38-.2.57l-.42,1.06c-.06.15-.13.3-.2.45l-.13.27c-.04.08-.08.16-.11.24l-.23.47c-.13.25-.26.5-.4.75-.09.15-.18.31-.27.46-.09.15-.18.3-.27.45,0,0,0,0,0,0-.09.14-.18.28-.27.41-.01.02-.03.04-.04.06-.09.14-.18.27-.28.41-.08.12-.17.23-.25.35-.05.07-.1.14-.15.21l-.16.21c-.05.07-.11.14-.16.21-.05.07-.11.14-.16.2-.05.07-.11.14-.16.2l-.35.41c-.05.06-.1.12-.16.18l-.31.35c-.06.07-.13.14-.19.2-.06.07-.13.14-.2.2,0,0,0,0-.01.01-.06.06-.12.12-.18.19-.07.07-.13.13-.2.2-.07.07-.13.13-.2.2-.14.13-.27.25-.41.38-.07.06-.14.12-.21.19-.07.06-.14.12-.21.18-.3.26-.61.51-.93.75-.07.05-.14.11-.21.16-.56.42-1.14.81-1.73,1.17-.15.09-.3.18-.45.27-.16.09-.32.18-.48.27-.15.08-.3.16-.45.23-.08.04-.16.08-.23.12-.07.04-.14.07-.21.1-.09.04-.17.08-.26.12-.08.04-.16.07-.24.11-.08.04-.16.07-.24.11-.06.03-.11.05-.17.07l-.11.05c-.16.07-.33.14-.49.2-.08.03-.16.06-.25.09-.12.04-.24.09-.36.13-.29.11-.59.2-.89.3-.13.04-.26.08-.39.12-.39.11-.78.21-1.17.3,0,0-.02,0-.03,0-.21.05-.41.09-.62.13-.33.06-.66.12-.99.17-.21.03-.43.06-.65.09l-.26.03c-.09,0-.17.02-.26.03-.17.02-.35.03-.52.04-.09,0-.17.01-.26.02-.09,0-.17,0-.26.01s-.17,0-.26.01c-.26,0-.52.01-.78.01h-.78c-.09-.02-.17-.02-.26-.03-.09,0-.17,0-.26-.01l-.27-.02c-.17-.01-.35-.03-.52-.04-.09,0-.17-.02-.26-.03l-.27-.03c-.28-.03-.56-.07-.85-.12-.09-.02-.19-.03-.28-.05l-.28-.05c-.09-.02-.18-.03-.27-.05-.19-.04-.38-.08-.57-.12-.09-.02-.19-.04-.28-.07-.28-.07-.55-.14-.83-.22,0,0-.01,0-.02,0-.27-.08-.53-.16-.8-.25-.09-.03-.19-.06-.28-.09-.21-.07-.41-.15-.62-.22l-.77-.31c-.18-.08-.36-.15-.54-.24-.03-.02-.07-.03-.1-.05-.03-.02-.07-.03-.1-.05-.09-.04-.18-.08-.27-.13-.02-.01-.05-.02-.07-.03-.03-.01-.05-.03-.08-.04-.18-.09-.35-.17-.52-.27-.15-.08-.3-.16-.44-.24,0,0,0,0-.01,0-.23-.13-.46-.26-.68-.4-.22-.13-.44-.27-.66-.42-.15-.1-.29-.19-.43-.29,0,0,0,0,0,0-.14-.1-.28-.2-.43-.3-.21-.15-.42-.31-.62-.47-.03-.02-.06-.04-.09-.07-.18-.14-.35-.28-.52-.43l-.21-.18c-.11-.09-.22-.19-.32-.29l-.81-.77c-.27-.27-.52-.54-.77-.81-.1-.11-.19-.21-.29-.32-.06-.07-.12-.14-.18-.21-.15-.17-.29-.35-.43-.52-.02-.03-.04-.06-.07-.09-.16-.21-.32-.41-.47-.62-.1-.14-.2-.28-.3-.43,0,0,0,0,0,0-.1-.14-.2-.29-.29-.43-.15-.22-.29-.44-.42-.66-.14-.22-.27-.45-.4-.68,0,0,0,0,0-.01-.14-.24-.26-.49-.39-.74-.04-.08-.08-.16-.12-.25,0-.02-.02-.04-.03-.06-.01-.02-.02-.05-.03-.07-.04-.09-.09-.18-.13-.27-.03-.06-.06-.12-.09-.18,0,0,0,0,0-.01-.08-.18-.16-.36-.24-.54-.11-.26-.21-.51-.31-.77-.08-.2-.15-.41-.22-.62-.03-.09-.06-.19-.09-.28-.09-.27-.17-.53-.25-.8,0,0,0-.01,0-.02-.08-.28-.15-.55-.22-.83-.02-.09-.04-.19-.07-.28-.04-.19-.08-.38-.12-.57-.02-.09-.04-.18-.05-.27-.02-.09-.03-.19-.05-.28-.02-.09-.03-.19-.05-.28-.04-.28-.09-.56-.12-.85,0-.09-.02-.18-.03-.27,0-.09-.02-.17-.03-.26-.02-.17-.03-.35-.04-.52,0-.09-.01-.18-.02-.27,0-.09,0-.17-.01-.26,0-.09,0-.17-.01-.26,0-.26-.01-.52-.01-.78h0s.01-.78.01-.78c0-.09,0-.17.01-.26,0-.09,0-.17.01-.26l.02-.26c.01-.17.03-.35.04-.52,0-.09.02-.17.03-.26l.03-.26c.03-.22.06-.43.09-.65.05-.33.11-.66.17-.99.04-.21.09-.41.13-.62,0,0,0-.02,0-.03.09-.39.19-.78.3-1.17.04-.13.08-.26.12-.39.09-.3.19-.59.3-.89.04-.12.09-.24.13-.36.03-.08.06-.16.09-.25.06-.16.13-.33.2-.49l.05-.11c.02-.06.05-.11.07-.17.03-.08.07-.16.11-.24.04-.08.07-.16.11-.24l.13-.26c.03-.07.07-.14.1-.21.04-.08.08-.16.12-.23.08-.15.15-.3.23-.45l.27-.48c.09-.15.18-.3.27-.45l1.17-1.73c.05-.07.1-.14.16-.21l.75-.93c.06-.07.12-.14.18-.21l.19-.21c.12-.14.25-.27.38-.41.06-.07.13-.14.2-.2l.2-.2c.06-.06.12-.12.19-.18,0,0,0,0,.01-.01.07-.07.13-.13.2-.2.07-.06.14-.13.2-.19.11-.11.23-.21.35-.31.06-.05.12-.11.18-.16.14-.12.27-.24.41-.35.07-.05.13-.11.2-.16.07-.05.14-.11.2-.16.07-.05.14-.11.21-.16.07-.05.14-.11.21-.16.07-.05.14-.1.21-.15.37-.27.75-.53,1.13-.77.13-.08.26-.16.39-.24.11-.07.23-.14.34-.2.23-.13.46-.26.69-.38.12-.06.23-.12.35-.18.16-.08.31-.16.47-.23.08-.04.16-.08.24-.11.09-.04.18-.08.27-.13.15-.07.3-.13.45-.2.35-.15.71-.29,1.06-.42.19-.07.38-.14.57-.2.08-.03.16-.05.24-.08.13-.04.26-.08.39-.12.19-.06.37-.11.56-.16.19-.05.38-.1.57-.15,0,0,.02,0,.03,0,.2-.05.4-.09.6-.13.4-.08.8-.15,1.2-.21,0,0,0,0,.01,0,.2-.03.4-.06.61-.08.09,0,.18-.02.27-.03.09,0,.17-.02.26-.03.17-.02.35-.03.52-.04.09,0,.18-.01.27-.02.09,0,.17,0,.26-.01.09,0,.17,0,.26-.01.26,0,.52-.01.78-.01s.52,0,.78.01c.09,0,.17,0,.26.01.09,0,.17,0,.26.01l.26.02c.17.01.35.03.52.04.09,0,.17.02.26.03.09,0,.17.02.26.03.2.03.41.05.61.08,0,0,0,0,.01,0,.28.04.56.09.84.14,0,0,0,0,0,0,.27.05.55.11.82.17,0,0,0,0,.02,0,.26.06.51.12.77.19.29.08.58.16.87.25.1.03.2.06.3.1.2.07.39.13.59.2.08.03.16.06.25.09.08.03.16.06.25.09.07.03.15.06.22.09.13.05.25.1.38.16.06.02.11.05.17.07.41.18.82.37,1.22.58.14.07.28.15.42.22,0,0,.01,0,.02,0,.15.08.3.17.45.25,0,0,0,0,0,0,.15.09.3.18.45.27t0,0c.15.09.29.18.44.28,0,0,.01,0,.02,0,.21.14.43.28.64.43.01,0,.03.02.04.03.13.09.26.18.39.28.31.23.62.46.92.71.07.06.14.12.21.18.07.06.14.12.21.18.07.06.14.12.21.18.07.06.14.12.21.19.07.06.14.13.21.19.2.19.41.38.6.58s.39.4.58.6c.06.07.13.14.19.21.06.07.12.14.19.21.06.07.12.14.18.21.06.07.12.14.18.21.06.07.12.14.18.21.25.3.48.61.71.92.09.13.19.26.28.39,0,.01.02.03.03.04.15.21.29.42.43.64,0,0,0,.01,0,.02.09.15.19.29.28.44t0,0c.09.15.18.3.27.45,0,0,0,0,0,0,.09.15.17.3.25.45,0,0,0,.01,0,.02.08.14.15.28.22.42.21.4.4.81.58,1.22.03.06.05.11.07.17.05.13.11.25.16.38.03.07.06.15.09.22.03.08.06.16.09.25.03.08.06.16.09.25.07.2.14.39.2.59.03.1.07.2.1.3.09.29.18.58.25.87.07.25.13.51.19.77,0,0,0,0,0,.02.06.27.12.55.17.82,0,0,0,0,0,0,.05.28.1.56.14.84,0,0,0,0,0,.01.03.2.06.41.08.61,0,.09.02.17.03.26s.02.17.03.26c.02.17.03.35.04.52,0,.09.01.17.02.26,0,.09,0,.17.01.26s0,.17.01.26c0,.26.01.52.01.78h0Z"/>
      <path class="cls-1" d="M270.67,171.02c-3.25,3.25-7.28,5.26-11.49,6.02-2.44-3.51-3.87-7.78-3.87-12.38,0,4.6-1.43,8.87-3.87,12.38-4.21-.76-8.24-2.76-11.49-6.02,3.25,3.25,5.26,7.28,6.02,11.49-3.51,2.44-7.78,3.87-12.38,3.87,4.6,0,8.87,1.43,12.38,3.87-.76,4.21-2.76,8.24-6.02,11.49,3.25-3.25,7.28-5.26,11.49-6.02,2.44,3.51,3.87,7.78,3.87,12.38,0-4.6,1.43-8.86,3.87-12.38,4.21.76,8.23,2.76,11.49,6.02-3.25-3.25-5.26-7.28-6.02-11.49,3.51-2.44,7.78-3.87,12.38-3.87-4.6,0-8.86-1.43-12.38-3.87.76-4.21,2.76-8.23,6.02-11.49Z"/>
    </g>
  </g>
</svg>