<?xml version="1.0" encoding="UTF-8"?>
<svg id="Camada_2" data-name="Camada 2" xmlns="http://www.w3.org/2000/svg" viewBox="0 0 353.74 322.74">
  <defs>
    <style>
      .cls-1 {
        fill: #8b71b1;
      }
    </style>
  </defs>
  <g id="Camada_1-2" data-name="Camada 1">
    <g>
      <path class="cls-1" d="M214.47,74.4c-4.68-8.19-11.97-15-21.3-19.07-.27-.12-.55-.18-.84-.18-.81,0-1.58.48-1.93,1.26-2.59,5.94-3.81,12.12-3.81,18.21,0,16.48,8.99,32.22,24.22,40.28-5.4-13.85-3.58-28.74,3.66-40.5ZM242.52,57.36c-.43-1.08-1.65-1.61-2.73-1.19-17.97,7.06-28.95,24.26-28.95,42.46,0,5.54,1.02,11.18,3.17,16.65.32.83,1.11,1.34,1.95,1.34.26,0,.52-.05.77-.15,23.45-9.2,34.99-35.67,25.79-59.11ZM242.52,57.36c-.43-1.08-1.65-1.61-2.73-1.19-17.97,7.06-28.95,24.26-28.95,42.46,0,5.54,1.02,11.18,3.17,16.65.32.83,1.11,1.34,1.95,1.34.26,0,.52-.05.77-.15,23.45-9.2,34.99-35.67,25.79-59.11ZM214.47,74.4c-4.68-8.19-11.97-15-21.3-19.07-.27-.12-.55-.18-.84-.18-.81,0-1.58.48-1.93,1.26-2.59,5.94-3.81,12.12-3.81,18.21,0,16.48,8.99,32.22,24.22,40.28-5.4-13.85-3.58-28.74,3.66-40.5ZM214.47,74.4c-4.68-8.19-11.97-15-21.3-19.07-.27-.12-.55-.18-.84-.18-.81,0-1.58.48-1.93,1.26-2.59,5.94-3.81,12.12-3.81,18.21,0,16.48,8.99,32.22,24.22,40.28-5.4-13.85-3.58-28.74,3.66-40.5ZM242.52,57.36c-.43-1.08-1.65-1.61-2.73-1.19-17.97,7.06-28.95,24.26-28.95,42.46,0,5.54,1.02,11.18,3.17,16.65.32.83,1.11,1.34,1.95,1.34.26,0,.52-.05.77-.15,23.45-9.2,34.99-35.67,25.79-59.11ZM242.52,57.36c-.43-1.08-1.65-1.61-2.73-1.19-17.97,7.06-28.95,24.26-28.95,42.46,0,5.54,1.02,11.18,3.17,16.65.32.83,1.11,1.34,1.95,1.34.26,0,.52-.05.77-.15,23.45-9.2,34.99-35.67,25.79-59.11ZM214.47,74.4c-4.68-8.19-11.97-15-21.3-19.07-.27-.12-.55-.18-.84-.18-.81,0-1.58.48-1.93,1.26-2.59,5.94-3.81,12.12-3.81,18.21,0,16.48,8.99,32.22,24.22,40.28-5.4-13.85-3.58-28.74,3.66-40.5ZM214.47,74.4c-4.68-8.19-11.97-15-21.3-19.07-.27-.12-.55-.18-.84-.18-.81,0-1.58.48-1.93,1.26-2.59,5.94-3.81,12.12-3.81,18.21,0,16.48,8.99,32.22,24.22,40.28-5.4-13.85-3.58-28.74,3.66-40.5ZM242.52,57.36c-.43-1.08-1.65-1.61-2.73-1.19-17.97,7.06-28.95,24.26-28.95,42.46,0,5.54,1.02,11.18,3.17,16.65.32.83,1.11,1.34,1.95,1.34.26,0,.52-.05.77-.15,23.45-9.2,34.99-35.67,25.79-59.11ZM242.52,57.36c-.43-1.08-1.65-1.61-2.73-1.19-17.97,7.06-28.95,24.26-28.95,42.46,0,5.54,1.02,11.18,3.17,16.65.32.83,1.11,1.34,1.95,1.34.26,0,.52-.05.77-.15,23.45-9.2,34.99-35.67,25.79-59.11ZM214.47,74.4c-4.68-8.19-11.97-15-21.3-19.07-.27-.12-.55-.18-.84-.18-.81,0-1.58.48-1.93,1.26-2.59,5.94-3.81,12.12-3.81,18.21,0,16.48,8.99,32.22,24.22,40.28-5.4-13.85-3.58-28.74,3.66-40.5ZM214.47,74.4c-4.68-8.19-11.97-15-21.3-19.07-.27-.12-.55-.18-.84-.18-.81,0-1.58.48-1.93,1.26-2.59,5.94-3.81,12.12-3.81,18.21,0,16.48,8.99,32.22,24.22,40.28-5.4-13.85-3.58-28.74,3.66-40.5ZM242.52,57.36c-.43-1.08-1.65-1.61-2.73-1.19-17.97,7.06-28.95,24.26-28.95,42.46,0,5.54,1.02,11.18,3.17,16.65.32.83,1.11,1.34,1.95,1.34.26,0,.52-.05.77-.15,23.45-9.2,34.99-35.67,25.79-59.11ZM242.52,57.36c-.43-1.08-1.65-1.61-2.73-1.19-17.97,7.06-28.95,24.26-28.95,42.46,0,5.54,1.02,11.18,3.17,16.65.32.83,1.11,1.34,1.95,1.34.26,0,.52-.05.77-.15,23.45-9.2,34.99-35.67,25.79-59.11ZM214.47,74.4c-4.68-8.19-11.97-15-21.3-19.07-.27-.12-.55-.18-.84-.18-.81,0-1.58.48-1.93,1.26-2.59,5.94-3.81,12.12-3.81,18.21,0,16.48,8.99,32.22,24.22,40.28-5.4-13.85-3.58-28.74,3.66-40.5ZM214.47,74.4c-4.68-8.19-11.97-15-21.3-19.07-.27-.12-.55-.18-.84-.18-.81,0-1.58.48-1.93,1.26-2.59,5.94-3.81,12.12-3.81,18.21,0,16.48,8.99,32.22,24.22,40.28-5.4-13.85-3.58-28.74,3.66-40.5ZM242.52,57.36c-.43-1.08-1.65-1.61-2.73-1.19-17.97,7.06-28.95,24.26-28.95,42.46,0,5.54,1.02,11.18,3.17,16.65.32.83,1.11,1.34,1.95,1.34.26,0,.52-.05.77-.15,23.45-9.2,34.99-35.67,25.79-59.11ZM242.52,57.36c-.43-1.08-1.65-1.61-2.73-1.19-17.97,7.06-28.95,24.26-28.95,42.46,0,5.54,1.02,11.18,3.17,16.65.32.83,1.11,1.34,1.95,1.34.26,0,.52-.05.77-.15,23.45-9.2,34.99-35.67,25.79-59.11ZM214.47,74.4c-4.68-8.19-11.97-15-21.3-19.07-.27-.12-.55-.18-.84-.18-.81,0-1.58.48-1.93,1.26-2.59,5.94-3.81,12.12-3.81,18.21,0,16.48,8.99,32.22,24.22,40.28-5.4-13.85-3.58-28.74,3.66-40.5ZM214.47,74.4c-4.68-8.19-11.97-15-21.3-19.07-.27-.12-.55-.18-.84-.18-.81,0-1.58.48-1.93,1.26-2.59,5.94-3.81,12.12-3.81,18.21,0,16.48,8.99,32.22,24.22,40.28-5.4-13.85-3.58-28.74,3.66-40.5ZM242.52,57.36c-.43-1.08-1.65-1.61-2.73-1.19-17.97,7.06-28.95,24.26-28.95,42.46,0,5.54,1.02,11.18,3.17,16.65.32.83,1.11,1.34,1.95,1.34.26,0,.52-.05.77-.15,23.45-9.2,34.99-35.67,25.79-59.11ZM242.52,57.36c-.43-1.08-1.65-1.61-2.73-1.19-17.97,7.06-28.95,24.26-28.95,42.46,0,5.54,1.02,11.18,3.17,16.65.32.83,1.11,1.34,1.95,1.34.26,0,.52-.05.77-.15,23.45-9.2,34.99-35.67,25.79-59.11ZM214.47,74.4c-4.68-8.19-11.97-15-21.3-19.07-.27-.12-.55-.18-.84-.18-.81,0-1.58.48-1.93,1.26-2.59,5.94-3.81,12.12-3.81,18.21,0,16.48,8.99,32.22,24.22,40.28-5.4-13.85-3.58-28.74,3.66-40.5ZM214.47,74.4c-4.68-8.19-11.97-15-21.3-19.07-.27-.12-.55-.18-.84-.18-.81,0-1.58.48-1.93,1.26-2.59,5.94-3.81,12.12-3.81,18.21,0,16.48,8.99,32.22,24.22,40.28-5.4-13.85-3.58-28.74,3.66-40.5ZM242.52,57.36c-.43-1.08-1.65-1.61-2.73-1.19-17.97,7.06-28.95,24.26-28.95,42.46,0,5.54,1.02,11.18,3.17,16.65.32.83,1.11,1.34,1.95,1.34.26,0,.52-.05.77-.15,23.45-9.2,34.99-35.67,25.79-59.11ZM242.52,57.36c-.43-1.08-1.65-1.61-2.73-1.19-17.97,7.06-28.95,24.26-28.95,42.46,0,5.54,1.02,11.18,3.17,16.65.32.83,1.11,1.34,1.95,1.34.26,0,.52-.05.77-.15,23.45-9.2,34.99-35.67,25.79-59.11ZM214.47,74.4c-4.68-8.19-11.97-15-21.3-19.07-.27-.12-.55-.18-.84-.18-.81,0-1.58.48-1.93,1.26-2.59,5.94-3.81,12.12-3.81,18.21,0,16.48,8.99,32.22,24.22,40.28-5.4-13.85-3.58-28.74,3.66-40.5ZM52.2,201.29c-1.32,0-2.52.54-3.38,1.4-.86.86-1.4,2.06-1.4,3.38v36.22c0,2.64,2.14,4.79,4.78,4.79,1.32,0,2.52-.54,3.38-1.41.86-.86,1.4-2.06,1.4-3.38v-36.22c0-2.64-2.14-4.78-4.78-4.78ZM214.47,74.4c-4.68-8.19-11.97-15-21.3-19.07-.27-.12-.55-.18-.84-.18-.81,0-1.58.48-1.93,1.26-2.59,5.94-3.81,12.12-3.81,18.21,0,16.48,8.99,32.22,24.22,40.28-5.4-13.85-3.58-28.74,3.66-40.5ZM242.52,57.36c-.43-1.08-1.65-1.61-2.73-1.19-17.97,7.06-28.95,24.26-28.95,42.46,0,5.54,1.02,11.18,3.17,16.65.32.83,1.11,1.34,1.95,1.34.26,0,.52-.05.77-.15,23.45-9.2,34.99-35.67,25.79-59.11ZM242.52,57.36c-.43-1.08-1.65-1.61-2.73-1.19-17.97,7.06-28.95,24.26-28.95,42.46,0,5.54,1.02,11.18,3.17,16.65.32.83,1.11,1.34,1.95,1.34.26,0,.52-.05.77-.15,23.45-9.2,34.99-35.67,25.79-59.11ZM214.47,74.4c-4.68-8.19-11.97-15-21.3-19.07-.27-.12-.55-.18-.84-.18-.81,0-1.58.48-1.93,1.26-2.59,5.94-3.81,12.12-3.81,18.21,0,16.48,8.99,32.22,24.22,40.28-5.4-13.85-3.58-28.74,3.66-40.5ZM52.2,201.29c-1.32,0-2.52.54-3.38,1.4-.86.86-1.4,2.06-1.4,3.38v36.22c0,2.64,2.14,4.79,4.78,4.79,1.32,0,2.52-.54,3.38-1.41.86-.86,1.4-2.06,1.4-3.38v-36.22c0-2.64-2.14-4.78-4.78-4.78ZM259.58,0H8.25C3.69,0,0,3.7,0,8.26v306.23c0,4.56,3.69,8.25,8.25,8.25h251.33c4.56,0,8.26-3.69,8.26-8.25V8.26c0-4.56-3.7-8.26-8.26-8.26ZM8.8,29.29c0-4.9,1.99-9.34,5.99-13.33,3.97-3.98,8.41-5.98,13.32-5.98h43.39c2.64,0,4.78,2.14,4.78,4.78v29.06c0,2.64-2.14,4.78-4.78,4.78h-19.31c-2.64,0-4.78,2.14-4.78,4.78v6.16c0,2.64,2.14,4.78,4.78,4.78h19.31c2.64,0,4.78,2.14,4.78,4.78v29.23c0,2.64-2.14,4.78-4.78,4.78h-19.31c-2.64,0-4.78,2.14-4.78,4.78v6.34c0,2.64,2.14,4.78,4.78,4.78h19.31c2.64,0,4.78,2.14,4.78,4.78v29.06c0,2.64-2.14,4.78-4.78,4.78H28.11c-4.91,0-9.35-2-13.32-5.98-4-3.99-5.99-8.43-5.99-13.33V29.29ZM95.59,248.36c0,3.68-1.32,7.3-3.95,10.85-1.06,1.42-2.2,2.67-3.42,3.74-2.16,1.89-2.14,5.34.03,7.22,1.21,1.05,2.34,2.27,3.39,3.66,2.63,3.49,3.95,7.14,3.95,10.94v20.77c0,2.64-2.14,4.78-4.78,4.78h-29.05c-2.64,0-4.78-2.14-4.78-4.78v-15.07c0-2.64-2.14-4.78-4.78-4.78-1.32,0-2.52.54-3.38,1.4s-1.4,2.06-1.4,3.38v15.07c0,2.64-2.14,4.78-4.78,4.78H13.59c-2.64,0-4.78-2.14-4.78-4.78v-138.25c0-2.64,2.14-4.79,4.79-4.78l62.68.17c4.9,0,9.35,2,13.33,5.98,3.99,3.98,5.98,8.43,5.98,13.33v66.37ZM86.76,151.65c-4.04-3.98-6.06-8.42-6.06-13.33V29.11c0-4.9,2.02-9.35,6.06-13.33,4.05-3.99,8.46-5.98,13.24-5.98h48.17c4.91,0,9.35,1.99,13.33,5.98,3.99,3.98,5.98,8.43,5.98,13.33v31.25c0,2.64-2.14,4.78-4.78,4.78h-29.05c-2.64,0-4.78-2.14-4.78-4.78v-7.17c0-2.64-2.14-4.78-4.78-4.78-1.32,0-2.51.54-3.38,1.4-.87.86-1.4,2.06-1.4,3.38v61.05c0,2.64,2.14,4.78,4.78,4.78,1.32,0,2.51-.53,3.38-1.4s1.4-2.06,1.4-3.38v-7.18c0-2.64,2.14-4.78,4.78-4.78h29.05c2.64,0,4.78,2.14,4.78,4.78v31.26c0,4.91-1.99,9.35-5.98,13.33-3.98,3.99-8.42,5.98-13.33,5.98h-48.17c-4.78,0-9.19-1.99-13.24-5.98ZM167.49,196.43c0,2.64-2.14,4.78-4.78,4.78h-19.31c-2.64,0-4.78,2.14-4.78,4.78v6.16c0,2.64,2.14,4.78,4.78,4.78h19.31c2.64,0,4.78,2.14,4.78,4.78v29.23c0,2.64-2.14,4.78-4.78,4.78h-19.31c-2.64,0-4.78,2.14-4.78,4.78v6.33c0,2.64,2.14,4.78,4.78,4.78h19.31c2.64,0,4.78,2.14,4.78,4.78v29.06c0,2.64-2.14,4.79-4.78,4.79h-43.39c-4.91,0-9.36-2-13.33-5.99-4-3.98-5.98-8.43-5.98-13.33v-109.02c0-4.9,1.98-9.35,5.98-13.33,3.97-3.98,8.42-5.98,13.33-5.98h43.39c2.64,0,4.78,2.14,4.78,4.78v29.06ZM171.89,29.1c0-4.9,1.99-9.33,5.98-13.33,3.98-3.97,8.43-5.97,13.33-5.97h48.17c4.78,0,9.19,2,13.24,5.97,4.04,4,6.07,8.43,6.07,13.33v109.22c0,4.91-2.03,9.36-6.07,13.33-4.05,3.98-8.46,5.98-13.24,5.98h-48.17c-4.9,0-9.35-2-13.33-5.98-3.99-3.97-5.98-8.42-5.98-13.33V29.1ZM259.03,213.24c0,2.64-2.14,4.78-4.78,4.78h-29.05c-2.64,0-4.78-2.14-4.78-4.78v-7.17c0-2.64-2.14-4.78-4.78-4.78-1.32,0-2.52.54-3.38,1.4-.86.86-1.4,2.06-1.4,3.38v61.05c0,2.64,2.14,4.78,4.78,4.78,1.32,0,2.52-.53,3.38-1.4.86-.87,1.4-2.06,1.4-3.38v-7.17c0-2.64,2.14-4.78,4.78-4.78h29.05c2.64,0,4.78,2.14,4.78,4.78v31.25c0,4.91-1.99,9.35-5.97,13.33-3.99,3.99-8.43,5.98-13.33,5.98h-48.17c-4.79,0-9.2-1.99-13.24-5.98-4.05-3.98-6.07-8.42-6.07-13.33v-109.21c0-4.9,2.02-9.35,6.07-13.33,4.04-3.98,8.45-5.98,13.24-5.98h48.17c4.9,0,9.34,2,13.33,5.98,3.98,3.98,5.97,8.43,5.97,13.33v31.25ZM214.01,115.28c.32.83,1.11,1.34,1.95,1.34.26,0,.52-.05.77-.15,23.45-9.2,34.99-35.67,25.79-59.11-.43-1.08-1.65-1.61-2.73-1.19-17.97,7.06-28.95,24.26-28.95,42.46,0,5.54,1.02,11.18,3.17,16.65ZM210.81,114.9c-5.4-13.85-3.58-28.74,3.66-40.5-4.68-8.19-11.97-15-21.3-19.07-.27-.12-.55-.18-.84-.18-.81,0-1.58.48-1.93,1.26-2.59,5.94-3.81,12.12-3.81,18.21,0,16.48,8.99,32.22,24.22,40.28ZM52.2,201.29c-1.32,0-2.52.54-3.38,1.4-.86.86-1.4,2.06-1.4,3.38v36.22c0,2.64,2.14,4.79,4.78,4.79,1.32,0,2.52-.54,3.38-1.41.86-.86,1.4-2.06,1.4-3.38v-36.22c0-2.64-2.14-4.78-4.78-4.78ZM214.47,74.4c-4.68-8.19-11.97-15-21.3-19.07-.27-.12-.55-.18-.84-.18-.81,0-1.58.48-1.93,1.26-2.59,5.94-3.81,12.12-3.81,18.21,0,16.48,8.99,32.22,24.22,40.28-5.4-13.85-3.58-28.74,3.66-40.5ZM242.52,57.36c-.43-1.08-1.65-1.61-2.73-1.19-17.97,7.06-28.95,24.26-28.95,42.46,0,5.54,1.02,11.18,3.17,16.65.32.83,1.11,1.34,1.95,1.34.26,0,.52-.05.77-.15,23.45-9.2,34.99-35.67,25.79-59.11ZM242.52,57.36c-.43-1.08-1.65-1.61-2.73-1.19-17.97,7.06-28.95,24.26-28.95,42.46,0,5.54,1.02,11.18,3.17,16.65.32.83,1.11,1.34,1.95,1.34.26,0,.52-.05.77-.15,23.45-9.2,34.99-35.67,25.79-59.11ZM214.47,74.4c-4.68-8.19-11.97-15-21.3-19.07-.27-.12-.55-.18-.84-.18-.81,0-1.58.48-1.93,1.26-2.59,5.94-3.81,12.12-3.81,18.21,0,16.48,8.99,32.22,24.22,40.28-5.4-13.85-3.58-28.74,3.66-40.5ZM214.47,74.4c-4.68-8.19-11.97-15-21.3-19.07-.27-.12-.55-.18-.84-.18-.81,0-1.58.48-1.93,1.26-2.59,5.94-3.81,12.12-3.81,18.21,0,16.48,8.99,32.22,24.22,40.28-5.4-13.85-3.58-28.74,3.66-40.5ZM242.52,57.36c-.43-1.08-1.65-1.61-2.73-1.19-17.97,7.06-28.95,24.26-28.95,42.46,0,5.54,1.02,11.18,3.17,16.65.32.83,1.11,1.34,1.95,1.34.26,0,.52-.05.77-.15,23.45-9.2,34.99-35.67,25.79-59.11ZM242.52,57.36c-.43-1.08-1.65-1.61-2.73-1.19-17.97,7.06-28.95,24.26-28.95,42.46,0,5.54,1.02,11.18,3.17,16.65.32.83,1.11,1.34,1.95,1.34.26,0,.52-.05.77-.15,23.45-9.2,34.99-35.67,25.79-59.11ZM214.47,74.4c-4.68-8.19-11.97-15-21.3-19.07-.27-.12-.55-.18-.84-.18-.81,0-1.58.48-1.93,1.26-2.59,5.94-3.81,12.12-3.81,18.21,0,16.48,8.99,32.22,24.22,40.28-5.4-13.85-3.58-28.74,3.66-40.5ZM214.47,74.4c-4.68-8.19-11.97-15-21.3-19.07-.27-.12-.55-.18-.84-.18-.81,0-1.58.48-1.93,1.26-2.59,5.94-3.81,12.12-3.81,18.21,0,16.48,8.99,32.22,24.22,40.28-5.4-13.85-3.58-28.74,3.66-40.5ZM242.52,57.36c-.43-1.08-1.65-1.61-2.73-1.19-17.97,7.06-28.95,24.26-28.95,42.46,0,5.54,1.02,11.18,3.17,16.65.32.83,1.11,1.34,1.95,1.34.26,0,.52-.05.77-.15,23.45-9.2,34.99-35.67,25.79-59.11ZM242.52,57.36c-.43-1.08-1.65-1.61-2.73-1.19-17.97,7.06-28.95,24.26-28.95,42.46,0,5.54,1.02,11.18,3.17,16.65.32.83,1.11,1.34,1.95,1.34.26,0,.52-.05.77-.15,23.45-9.2,34.99-35.67,25.79-59.11ZM214.47,74.4c-4.68-8.19-11.97-15-21.3-19.07-.27-.12-.55-.18-.84-.18-.81,0-1.58.48-1.93,1.26-2.59,5.94-3.81,12.12-3.81,18.21,0,16.48,8.99,32.22,24.22,40.28-5.4-13.85-3.58-28.74,3.66-40.5ZM214.47,74.4c-4.68-8.19-11.97-15-21.3-19.07-.27-.12-.55-.18-.84-.18-.81,0-1.58.48-1.93,1.26-2.59,5.94-3.81,12.12-3.81,18.21,0,16.48,8.99,32.22,24.22,40.28-5.4-13.85-3.58-28.74,3.66-40.5ZM242.52,57.36c-.43-1.08-1.65-1.61-2.73-1.19-17.97,7.06-28.95,24.26-28.95,42.46,0,5.54,1.02,11.18,3.17,16.65.32.83,1.11,1.34,1.95,1.34.26,0,.52-.05.77-.15,23.45-9.2,34.99-35.67,25.79-59.11ZM242.52,57.36c-.43-1.08-1.65-1.61-2.73-1.19-17.97,7.06-28.95,24.26-28.95,42.46,0,5.54,1.02,11.18,3.17,16.65.32.83,1.11,1.34,1.95,1.34.26,0,.52-.05.77-.15,23.45-9.2,34.99-35.67,25.79-59.11ZM214.47,74.4c-4.68-8.19-11.97-15-21.3-19.07-.27-.12-.55-.18-.84-.18-.81,0-1.58.48-1.93,1.26-2.59,5.94-3.81,12.12-3.81,18.21,0,16.48,8.99,32.22,24.22,40.28-5.4-13.85-3.58-28.74,3.66-40.5ZM214.47,74.4c-4.68-8.19-11.97-15-21.3-19.07-.27-.12-.55-.18-.84-.18-.81,0-1.58.48-1.93,1.26-2.59,5.94-3.81,12.12-3.81,18.21,0,16.48,8.99,32.22,24.22,40.28-5.4-13.85-3.58-28.74,3.66-40.5ZM242.52,57.36c-.43-1.08-1.65-1.61-2.73-1.19-17.97,7.06-28.95,24.26-28.95,42.46,0,5.54,1.02,11.18,3.17,16.65.32.83,1.11,1.34,1.95,1.34.26,0,.52-.05.77-.15,23.45-9.2,34.99-35.67,25.79-59.11ZM242.52,57.36c-.43-1.08-1.65-1.61-2.73-1.19-17.97,7.06-28.95,24.26-28.95,42.46,0,5.54,1.02,11.18,3.17,16.65.32.83,1.11,1.34,1.95,1.34.26,0,.52-.05.77-.15,23.45-9.2,34.99-35.67,25.79-59.11ZM214.47,74.4c-4.68-8.19-11.97-15-21.3-19.07-.27-.12-.55-.18-.84-.18-.81,0-1.58.48-1.93,1.26-2.59,5.94-3.81,12.12-3.81,18.21,0,16.48,8.99,32.22,24.22,40.28-5.4-13.85-3.58-28.74,3.66-40.5ZM214.47,74.4c-4.68-8.19-11.97-15-21.3-19.07-.27-.12-.55-.18-.84-.18-.81,0-1.58.48-1.93,1.26-2.59,5.94-3.81,12.12-3.81,18.21,0,16.48,8.99,32.22,24.22,40.28-5.4-13.85-3.58-28.74,3.66-40.5ZM242.52,57.36c-.43-1.08-1.65-1.61-2.73-1.19-17.97,7.06-28.95,24.26-28.95,42.46,0,5.54,1.02,11.18,3.17,16.65.32.83,1.11,1.34,1.95,1.34.26,0,.52-.05.77-.15,23.45-9.2,34.99-35.67,25.79-59.11ZM242.52,57.36c-.43-1.08-1.65-1.61-2.73-1.19-17.97,7.06-28.95,24.26-28.95,42.46,0,5.54,1.02,11.18,3.17,16.65.32.83,1.11,1.34,1.95,1.34.26,0,.52-.05.77-.15,23.45-9.2,34.99-35.67,25.79-59.11ZM214.47,74.4c-4.68-8.19-11.97-15-21.3-19.07-.27-.12-.55-.18-.84-.18-.81,0-1.58.48-1.93,1.26-2.59,5.94-3.81,12.12-3.81,18.21,0,16.48,8.99,32.22,24.22,40.28-5.4-13.85-3.58-28.74,3.66-40.5ZM214.47,74.4c-4.68-8.19-11.97-15-21.3-19.07-.27-.12-.55-.18-.84-.18-.81,0-1.58.48-1.93,1.26-2.59,5.94-3.81,12.12-3.81,18.21,0,16.48,8.99,32.22,24.22,40.28-5.4-13.85-3.58-28.74,3.66-40.5ZM242.52,57.36c-.43-1.08-1.65-1.61-2.73-1.19-17.97,7.06-28.95,24.26-28.95,42.46,0,5.54,1.02,11.18,3.17,16.65.32.83,1.11,1.34,1.95,1.34.26,0,.52-.05.77-.15,23.45-9.2,34.99-35.67,25.79-59.11ZM242.52,57.36c-.43-1.08-1.65-1.61-2.73-1.19-17.97,7.06-28.95,24.26-28.95,42.46,0,5.54,1.02,11.18,3.17,16.65.32.83,1.11,1.34,1.95,1.34.26,0,.52-.05.77-.15,23.45-9.2,34.99-35.67,25.79-59.11ZM214.47,74.4c-4.68-8.19-11.97-15-21.3-19.07-.27-.12-.55-.18-.84-.18-.81,0-1.58.48-1.93,1.26-2.59,5.94-3.81,12.12-3.81,18.21,0,16.48,8.99,32.22,24.22,40.28-5.4-13.85-3.58-28.74,3.66-40.5ZM214.47,74.4c-4.68-8.19-11.97-15-21.3-19.07-.27-.12-.55-.18-.84-.18-.81,0-1.58.48-1.93,1.26-2.59,5.94-3.81,12.12-3.81,18.21,0,16.48,8.99,32.22,24.22,40.28-5.4-13.85-3.58-28.74,3.66-40.5ZM242.52,57.36c-.43-1.08-1.65-1.61-2.73-1.19-17.97,7.06-28.95,24.26-28.95,42.46,0,5.54,1.02,11.18,3.17,16.65.32.83,1.11,1.34,1.95,1.34.26,0,.52-.05.77-.15,23.45-9.2,34.99-35.67,25.79-59.11ZM242.52,57.36c-.43-1.08-1.65-1.61-2.73-1.19-17.97,7.06-28.95,24.26-28.95,42.46,0,5.54,1.02,11.18,3.17,16.65.32.83,1.11,1.34,1.95,1.34.26,0,.52-.05.77-.15,23.45-9.2,34.99-35.67,25.79-59.11ZM214.47,74.4c-4.68-8.19-11.97-15-21.3-19.07-.27-.12-.55-.18-.84-.18-.81,0-1.58.48-1.93,1.26-2.59,5.94-3.81,12.12-3.81,18.21,0,16.48,8.99,32.22,24.22,40.28-5.4-13.85-3.58-28.74,3.66-40.5Z"/>
      <path class="cls-1" d="M345.21,245.19h-63.78c-4.71,0-8.53,3.66-8.53,8.18v61.19c0,4.52,3.82,8.18,8.53,8.18h63.78c4.71,0,8.53-3.66,8.53-8.18v-61.19c0-4.52-3.82-8.18-8.53-8.18ZM338.24,296.32l2.27,2.71-3.58-.54c-9.47-1.42-18.85,3.77-22.3,12.35l-1.31,3.25-1.3-3.25c-3.45-8.58-12.84-13.77-22.31-12.35l-3.58.54,2.28-2.71c6.01-7.16,6.01-17.55,0-24.71l-2.28-2.71,3.58.54c9.47,1.42,18.86-3.78,22.31-12.36l1.3-3.24,1.31,3.24c3.07,7.63,10.84,12.59,19.19,12.59,1.03,0,2.07-.07,3.11-.23l3.58-.54-2.27,2.71c-6.01,7.16-6.01,17.55,0,24.71Z"/>
      <path class="cls-1" d="M345.21,81.73h-63.78c-4.71,0-8.53,3.66-8.53,8.18v61.19c0,4.52,3.82,8.19,8.53,8.19h63.78c4.71,0,8.53-3.67,8.53-8.19v-61.19c0-4.52-3.82-8.18-8.53-8.18ZM291.75,112.61c0-4.26.89-8.59,2.78-12.75.25-.55.82-.88,1.41-.88.21,0,.42.04.62.12,6.8,2.85,12.12,7.63,15.55,13.36-5.29,8.24-6.62,18.67-2.68,28.38-11.12-5.65-17.68-16.68-17.68-28.23ZM313.76,141.93c-.19.07-.38.1-.57.1-.61,0-1.18-.35-1.42-.93-1.57-3.83-2.31-7.78-2.31-11.66,0-12.76,8.01-24.81,21.13-29.75.79-.29,1.68.08,1.99.84,6.72,16.42-1.7,34.96-18.82,41.4Z"/>
      <path class="cls-1" d="M345.21,163.46h-63.78c-4.71,0-8.53,3.66-8.53,8.18v61.19c0,4.52,3.82,8.18,8.53,8.18h63.78c4.71,0,8.53-3.66,8.53-8.18v-61.19c0-4.52-3.82-8.18-8.53-8.18ZM335.9,229.6c0,.58-.49,1.06-1.1,1.06h-5.06c-.61,0-1.1-.48-1.1-1.06v-24.83c0-9.56-6.85-17.31-15.32-17.31s-15.32,7.75-15.32,17.31v24.83c0,.58-.49,1.06-1.1,1.06h-5.06c-.61,0-1.1-.48-1.1-1.06v-34.12c0-11.62,9.54-21.1,21.51-21.64,12.93-.58,23.65,9.54,23.65,21.95v33.81Z"/>
      <path class="cls-1" d="M336.26,40.26c3.16-.96,6.52-1.48,10.01-1.48-6.98,0-13.45-2.08-18.78-5.63,1.15-6.13,4.19-11.99,9.13-16.72-4.94,4.73-11.05,7.65-17.43,8.75-3.7-5.11-5.87-11.32-5.87-18.01,0,6.69-2.17,12.9-5.87,18.01-6.38-1.1-12.49-4.02-17.43-8.75,4.94,4.73,7.98,10.59,9.13,16.72-5.33,3.55-11.8,5.63-18.78,5.63,6.98,0,13.45,2.08,18.78,5.63-1.15,6.12-4.19,11.99-9.13,16.72,4.94-4.73,11.05-7.65,17.43-8.76,1.85,2.56,3.32,5.39,4.32,8.42,1.01,3.02,1.55,6.25,1.55,9.6,0-6.7,2.17-12.9,5.87-18.02,6.38,1.11,12.49,4.03,17.43,8.76-4.94-4.73-7.98-10.6-9.13-16.72,2.67-1.78,5.61-3.18,8.77-4.15ZM336.26,40.26c3.16-.96,6.52-1.48,10.01-1.48-6.98,0-13.45-2.08-18.78-5.63,1.15-6.13,4.19-11.99,9.13-16.72-4.94,4.73-11.05,7.65-17.43,8.75-3.7-5.11-5.87-11.32-5.87-18.01,0,6.69-2.17,12.9-5.87,18.01-6.38-1.1-12.49-4.02-17.43-8.75,4.94,4.73,7.98,10.59,9.13,16.72-5.33,3.55-11.8,5.63-18.78,5.63,6.98,0,13.45,2.08,18.78,5.63-1.15,6.12-4.19,11.99-9.13,16.72,4.94-4.73,11.05-7.65,17.43-8.76,1.85,2.56,3.32,5.39,4.32,8.42,1.01,3.02,1.55,6.25,1.55,9.6,0-6.7,2.17-12.9,5.87-18.02,6.38,1.11,12.49,4.03,17.43,8.76-4.94-4.73-7.98-10.6-9.13-16.72,2.67-1.78,5.61-3.18,8.77-4.15ZM336.26,40.26c3.16-.96,6.52-1.48,10.01-1.48-6.98,0-13.45-2.08-18.78-5.63,1.15-6.13,4.19-11.99,9.13-16.72-4.94,4.73-11.05,7.65-17.43,8.75-3.7-5.11-5.87-11.32-5.87-18.01,0,6.69-2.17,12.9-5.87,18.01-6.38-1.1-12.49-4.02-17.43-8.75,4.94,4.73,7.98,10.59,9.13,16.72-5.33,3.55-11.8,5.63-18.78,5.63,6.98,0,13.45,2.08,18.78,5.63-1.15,6.12-4.19,11.99-9.13,16.72,4.94-4.73,11.05-7.65,17.43-8.76,1.85,2.56,3.32,5.39,4.32,8.42,1.01,3.02,1.55,6.25,1.55,9.6,0-6.7,2.17-12.9,5.87-18.02,6.38,1.11,12.49,4.03,17.43,8.76-4.94-4.73-7.98-10.6-9.13-16.72,2.67-1.78,5.61-3.18,8.77-4.15ZM336.26,40.26c3.16-.96,6.52-1.48,10.01-1.48-6.98,0-13.45-2.08-18.78-5.63,1.15-6.13,4.19-11.99,9.13-16.72-4.94,4.73-11.05,7.65-17.43,8.75-3.7-5.11-5.87-11.32-5.87-18.01,0,6.69-2.17,12.9-5.87,18.01-6.38-1.1-12.49-4.02-17.43-8.75,4.94,4.73,7.98,10.59,9.13,16.72-5.33,3.55-11.8,5.63-18.78,5.63,6.98,0,13.45,2.08,18.78,5.63-1.15,6.12-4.19,11.99-9.13,16.72,4.94-4.73,11.05-7.65,17.43-8.76,1.85,2.56,3.32,5.39,4.32,8.42,1.01,3.02,1.55,6.25,1.55,9.6,0-6.7,2.17-12.9,5.87-18.02,6.38,1.11,12.49,4.03,17.43,8.76-4.94-4.73-7.98-10.6-9.13-16.72,2.67-1.78,5.61-3.18,8.77-4.15ZM336.26,40.26c3.16-.96,6.52-1.48,10.01-1.48-6.98,0-13.45-2.08-18.78-5.63,1.15-6.13,4.19-11.99,9.13-16.72-4.94,4.73-11.05,7.65-17.43,8.75-3.7-5.11-5.87-11.32-5.87-18.01,0,6.69-2.17,12.9-5.87,18.01-6.38-1.1-12.49-4.02-17.43-8.75,4.94,4.73,7.98,10.59,9.13,16.72-5.33,3.55-11.8,5.63-18.78,5.63,6.98,0,13.45,2.08,18.78,5.63-1.15,6.12-4.19,11.99-9.13,16.72,4.94-4.73,11.05-7.65,17.43-8.76,1.85,2.56,3.32,5.39,4.32,8.42,1.01,3.02,1.55,6.25,1.55,9.6,0-6.7,2.17-12.9,5.87-18.02,6.38,1.11,12.49,4.03,17.43,8.76-4.94-4.73-7.98-10.6-9.13-16.72,2.67-1.78,5.61-3.18,8.77-4.15ZM336.26,40.26c3.16-.96,6.52-1.48,10.01-1.48-6.98,0-13.45-2.08-18.78-5.63,1.15-6.13,4.19-11.99,9.13-16.72-4.94,4.73-11.05,7.65-17.43,8.75-3.7-5.11-5.87-11.32-5.87-18.01,0,6.69-2.17,12.9-5.87,18.01-6.38-1.1-12.49-4.02-17.43-8.75,4.94,4.73,7.98,10.59,9.13,16.72-5.33,3.55-11.8,5.63-18.78,5.63,6.98,0,13.45,2.08,18.78,5.63-1.15,6.12-4.19,11.99-9.13,16.72,4.94-4.73,11.05-7.65,17.43-8.76,1.85,2.56,3.32,5.39,4.32,8.42,1.01,3.02,1.55,6.25,1.55,9.6,0-6.7,2.17-12.9,5.87-18.02,6.38,1.11,12.49,4.03,17.43,8.76-4.94-4.73-7.98-10.6-9.13-16.72,2.67-1.78,5.61-3.18,8.77-4.15ZM336.26,40.26c3.16-.96,6.52-1.48,10.01-1.48-6.98,0-13.45-2.08-18.78-5.63,1.15-6.13,4.19-11.99,9.13-16.72-4.94,4.73-11.05,7.65-17.43,8.75-3.7-5.11-5.87-11.32-5.87-18.01,0,6.69-2.17,12.9-5.87,18.01-6.38-1.1-12.49-4.02-17.43-8.75,4.94,4.73,7.98,10.59,9.13,16.72-5.33,3.55-11.8,5.63-18.78,5.63,6.98,0,13.45,2.08,18.78,5.63-1.15,6.12-4.19,11.99-9.13,16.72,4.94-4.73,11.05-7.65,17.43-8.76,1.85,2.56,3.32,5.39,4.32,8.42,1.01,3.02,1.55,6.25,1.55,9.6,0-6.7,2.17-12.9,5.87-18.02,6.38,1.11,12.49,4.03,17.43,8.76-4.94-4.73-7.98-10.6-9.13-16.72,2.67-1.78,5.61-3.18,8.77-4.15ZM336.26,40.26c3.16-.96,6.52-1.48,10.01-1.48-6.98,0-13.45-2.08-18.78-5.63,1.15-6.13,4.19-11.99,9.13-16.72-4.94,4.73-11.05,7.65-17.43,8.75-3.7-5.11-5.87-11.32-5.87-18.01,0,6.69-2.17,12.9-5.87,18.01-6.38-1.1-12.49-4.02-17.43-8.75,4.94,4.73,7.98,10.59,9.13,16.72-5.33,3.55-11.8,5.63-18.78,5.63,6.98,0,13.45,2.08,18.78,5.63-1.15,6.12-4.19,11.99-9.13,16.72,4.94-4.73,11.05-7.65,17.43-8.76,1.85,2.56,3.32,5.39,4.32,8.42,1.01,3.02,1.55,6.25,1.55,9.6,0-6.7,2.17-12.9,5.87-18.02,6.38,1.11,12.49,4.03,17.43,8.76-4.94-4.73-7.98-10.6-9.13-16.72,2.67-1.78,5.61-3.18,8.77-4.15ZM336.26,40.26c3.16-.96,6.52-1.48,10.01-1.48-6.98,0-13.45-2.08-18.78-5.63,1.15-6.13,4.19-11.99,9.13-16.72-4.94,4.73-11.05,7.65-17.43,8.75-3.7-5.11-5.87-11.32-5.87-18.01,0,6.69-2.17,12.9-5.87,18.01-6.38-1.1-12.49-4.02-17.43-8.75,4.94,4.73,7.98,10.59,9.13,16.72-5.33,3.55-11.8,5.63-18.78,5.63,6.98,0,13.45,2.08,18.78,5.63-1.15,6.12-4.19,11.99-9.13,16.72,4.94-4.73,11.05-7.65,17.43-8.76,1.85,2.56,3.32,5.39,4.32,8.42,1.01,3.02,1.55,6.25,1.55,9.6,0-6.7,2.17-12.9,5.87-18.02,6.38,1.11,12.49,4.03,17.43,8.76-4.94-4.73-7.98-10.6-9.13-16.72,2.67-1.78,5.61-3.18,8.77-4.15ZM336.26,40.26c3.16-.96,6.52-1.48,10.01-1.48-6.98,0-13.45-2.08-18.78-5.63,1.15-6.13,4.19-11.99,9.13-16.72-4.94,4.73-11.05,7.65-17.43,8.75-3.7-5.11-5.87-11.32-5.87-18.01,0,6.69-2.17,12.9-5.87,18.01-6.38-1.1-12.49-4.02-17.43-8.75,4.94,4.73,7.98,10.59,9.13,16.72-5.33,3.55-11.8,5.63-18.78,5.63,6.98,0,13.45,2.08,18.78,5.63-1.15,6.12-4.19,11.99-9.13,16.72,4.94-4.73,11.05-7.65,17.43-8.76,1.85,2.56,3.32,5.39,4.32,8.42,1.01,3.02,1.55,6.25,1.55,9.6,0-6.7,2.17-12.9,5.87-18.02,6.38,1.11,12.49,4.03,17.43,8.76-4.94-4.73-7.98-10.6-9.13-16.72,2.67-1.78,5.61-3.18,8.77-4.15ZM345.21,0h-63.78c-4.71,0-8.53,3.66-8.53,8.18v61.19c0,4.52,3.82,8.19,8.53,8.19h63.78c4.71,0,8.53-3.67,8.53-8.19V8.18c0-4.52-3.82-8.18-8.53-8.18ZM346.25,39.92c-.01.12-.01.25-.02.38-.01.12-.01.24-.02.37l-.03.38c-.02.25-.04.51-.06.76-.01.12-.03.25-.04.38l-.05.39c-.04.29-.08.59-.12.88,0,.01-.01.01-.01.02-.09.58-.19,1.16-.32,1.74-.06.29-.13.58-.2.87,0,.02-.01.03-.01.04-.07.28-.14.56-.22.83-.08.28-.16.55-.24.82l-.18.57c-.04.12-.08.23-.12.35-.09.28-.2.56-.3.83l-.63,1.55c-.1.22-.2.44-.3.66l-.19.39c-.06.12-.11.24-.17.35l-.35.69c-.2.37-.4.73-.62,1.09-.13.23-.27.45-.4.67-.14.22-.28.44-.42.65h0c-.13.21-.27.41-.41.61-.02.03-.04.06-.06.09-.14.2-.28.4-.42.59-.13.18-.25.35-.38.51-.08.11-.16.21-.24.31l-.24.3c-.08.1-.16.2-.24.3-.08.1-.16.2-.24.3-.09.1-.17.2-.25.29l-.54.61c-.07.08-.15.17-.23.26l-.48.5c-.1.1-.19.2-.29.29-.09.1-.19.2-.29.3-.01.01-.02.01-.02.02-.1.09-.19.18-.28.27-.1.1-.2.19-.3.29-.11.09-.21.19-.31.28-.21.19-.41.37-.62.55-.11.09-.21.18-.32.27-.1.09-.21.18-.31.26-.46.38-.93.75-1.41,1.1-.1.08-.21.15-.31.23-.86.61-1.74,1.18-2.63,1.7-.23.13-.46.26-.69.39l-.72.39c-.22.11-.45.23-.68.34-.12.06-.24.11-.35.17-.11.05-.22.11-.33.15-.13.06-.26.13-.4.18-.12.06-.24.11-.36.17-.12.05-.24.1-.37.15-.08.04-.17.07-.26.11l-.16.07c-.25.1-.5.19-.74.29-.13.04-.25.09-.38.13-.18.07-.36.13-.54.2-.45.15-.89.29-1.35.43-.19.05-.39.11-.58.16-.59.17-1.18.31-1.78.45h-.04c-.31.07-.62.14-.93.2-.5.09-1,.17-1.5.25-.33.04-.66.08-.98.12l-.4.05-.39.03c-.26.03-.53.05-.79.07-.13.01-.26.01-.39.02-.14.01-.27.02-.4.02-.13.01-.26.01-.4.02-.39.01-.78.02-1.18.02l-1.19-.02c-.13-.01-.26-.01-.39-.02-.13,0-.26-.01-.39-.02l-.4-.02c-.26-.02-.52-.04-.79-.07-.13-.01-.26-.02-.39-.03l-.41-.05c-.43-.05-.86-.11-1.28-.17-.15-.02-.29-.05-.43-.07l-.43-.07c-.13-.03-.27-.05-.41-.08-.28-.06-.57-.11-.86-.18-.14-.03-.28-.06-.42-.09-.42-.1-.84-.21-1.26-.32-.01,0-.02-.01-.03-.01-.4-.11-.81-.23-1.21-.36-.14-.04-.28-.08-.42-.13-.32-.1-.63-.21-.94-.33l-1.17-.45c-.28-.11-.55-.22-.82-.34-.05-.02-.1-.04-.15-.07-.05-.02-.1-.04-.15-.06-.13-.06-.27-.13-.41-.19-.03-.01-.07-.03-.1-.05-.04-.02-.08-.04-.12-.05-.26-.13-.53-.26-.79-.39-.23-.12-.45-.23-.67-.35-.01,0-.02-.01-.02-.01-.35-.19-.69-.38-1.03-.58-.34-.19-.68-.4-1.01-.61-.22-.14-.44-.28-.65-.42h-.01c-.21-.15-.43-.3-.64-.45-.32-.22-.64-.45-.95-.68-.04-.04-.09-.07-.13-.1-.27-.21-.53-.41-.79-.62l-.32-.26c-.16-.14-.32-.28-.49-.42l-1.23-1.12c-.4-.39-.79-.78-1.16-1.18-.15-.16-.3-.31-.44-.47-.09-.1-.18-.2-.27-.3-.22-.25-.44-.51-.65-.76-.03-.04-.07-.08-.1-.13-.25-.3-.49-.6-.72-.91-.15-.2-.31-.41-.46-.61h0c-.15-.21-.29-.43-.44-.64-.22-.31-.43-.64-.64-.96-.21-.33-.41-.66-.6-.99,0-.01-.01-.01-.01-.02-.21-.35-.4-.71-.59-1.07-.06-.12-.13-.24-.19-.36-.01-.03-.03-.06-.05-.09-.01-.03-.03-.06-.05-.1-.06-.13-.13-.26-.19-.39-.04-.09-.09-.18-.13-.27,0,0-.01-.01-.01-.02-.12-.26-.24-.52-.36-.78-.16-.37-.32-.75-.47-1.12-.11-.3-.23-.6-.34-.9-.04-.14-.09-.27-.13-.41-.14-.39-.26-.77-.38-1.16,0-.01,0-.02-.01-.03-.11-.4-.23-.8-.33-1.21-.03-.13-.07-.27-.1-.4-.06-.28-.12-.55-.18-.83-.03-.13-.06-.26-.08-.39-.03-.14-.05-.27-.08-.41-.02-.14-.05-.27-.07-.41-.07-.41-.13-.82-.18-1.23-.01-.13-.03-.26-.05-.39-.01-.13-.02-.26-.04-.38-.02-.25-.04-.51-.06-.76-.01-.13-.02-.25-.03-.38s-.01-.25-.02-.37c-.01-.13-.01-.26-.02-.38-.01-.38-.02-.76-.02-1.14l.02-1.14c0-.13,0-.25.02-.38.01-.12.01-.25.02-.38l.03-.37c.02-.26.04-.51.06-.76.02-.13.03-.25.04-.38l.05-.38c.04-.31.08-.63.13-.94.08-.48.16-.96.26-1.44.06-.3.13-.6.2-.89,0-.02.01-.03.01-.04.14-.57.29-1.14.46-1.7.06-.19.11-.38.18-.57.14-.43.28-.86.44-1.29.07-.17.14-.35.2-.52.05-.12.1-.24.15-.36.09-.24.2-.48.3-.71l.07-.16c.04-.08.07-.17.11-.25.05-.12.11-.24.16-.35.06-.12.11-.23.17-.35l.19-.38c.05-.11.1-.21.16-.31.06-.12.12-.23.18-.34.12-.22.23-.44.35-.65l.41-.7c.13-.22.26-.44.4-.65l1.78-2.53c.08-.1.16-.2.24-.3l1.14-1.35c.09-.1.18-.2.27-.3l.29-.3c.18-.2.37-.4.57-.6.1-.1.2-.19.3-.29l.29-.29c.1-.09.19-.18.29-.27,0-.01.01-.01.02-.02.1-.09.2-.19.3-.28.1-.1.21-.19.31-.28.18-.16.35-.31.53-.46.09-.08.18-.15.27-.22.2-.18.41-.35.62-.51.11-.08.21-.17.31-.24.1-.08.21-.16.31-.24.1-.08.21-.16.31-.23.11-.08.21-.16.32-.23.1-.08.21-.15.32-.23.56-.39,1.13-.77,1.72-1.12.19-.12.39-.24.59-.36.17-.1.34-.19.51-.29.35-.19.69-.38,1.04-.56.18-.09.35-.18.53-.26.24-.12.48-.24.72-.35.12-.05.24-.11.36-.16.14-.06.28-.12.41-.18.23-.1.46-.2.69-.29.53-.21,1.07-.41,1.61-.6.29-.1.58-.2.87-.29.12-.04.24-.08.36-.11l.6-.18c.28-.08.56-.16.85-.23.29-.07.58-.14.87-.21.01,0,.02-.01.04-.01.3-.07.6-.13.91-.19.6-.12,1.2-.23,1.81-.31h.02c.31-.05.61-.09.92-.12.14-.02.27-.03.41-.05.13-.01.26-.03.39-.04.27-.02.53-.04.79-.06.14,0,.27-.02.4-.02.13-.01.26-.02.39-.02.13-.01.26-.02.39-.02.4-.01.8-.02,1.19-.02s.79.01,1.18.02c.14,0,.27.01.4.02.13,0,.26.01.4.02.13,0,.26.01.39.02.26.02.53.04.79.06.13.01.26.03.39.04.13.02.26.03.4.04.31.04.62.08.93.12,0,0,.01,0,.02,0,.42.06.84.13,1.27.2h.01c.42.08.83.17,1.25.26h.02c.39.09.78.18,1.16.28.44.11.88.24,1.32.37.15.04.3.09.45.14.3.1.6.2.9.3.12.04.25.09.37.13.13.05.25.09.38.14.11.04.22.08.33.13.19.07.38.15.57.23.09.03.18.07.26.11.63.26,1.25.54,1.86.84.21.11.42.21.63.32.01,0,.02.01.03.01.23.12.45.24.68.37,0,0,.01,0,.01.01.23.12.46.25.69.38h0c.23.14.45.27.67.41,0,0,.02.01.03.01.32.2.64.41.96.62.02,0,.04.03.06.04.2.13.39.26.59.4.47.33.94.68,1.39,1.04.11.08.22.17.33.25.1.09.21.18.32.26.1.09.21.18.31.27.11.09.21.18.32.27.1.09.21.18.31.27.31.28.62.56.92.85s.59.58.88.88c.1.1.19.2.29.3.09.1.18.2.28.3.09.1.18.2.27.3.09.11.18.21.27.31.09.1.18.21.27.31.37.44.73.89,1.08,1.34.14.19.28.37.42.56.01.02.03.04.04.06.22.31.44.61.64.93.01,0,.01.01.02.02.14.21.28.43.42.64h0c.14.22.27.44.4.66t.01.02c.13.21.26.43.38.65.01.01.01.02.02.03.11.2.22.4.33.6.31.59.61,1.18.88,1.78.04.08.08.17.11.25.08.18.16.37.24.55.05.11.09.22.13.32.05.12.1.24.15.36.04.12.09.24.14.36.11.29.21.57.31.86.05.14.1.29.14.43.14.42.27.84.39,1.27.1.37.2.74.29,1.11,0,.01,0,.02.01.02.09.4.18.8.26,1.2h0c.08.42.15.82.22,1.23v.02c.04.3.09.6.12.89.02.13.03.26.05.38,0,.13.03.25.04.38.02.25.04.5.06.76.01.12.02.25.03.37.01.13.01.26.02.38.01.13.01.25.02.38.01.38.02.76.02,1.14l-.02,1.14ZM336.62,16.43c-4.94,4.73-11.05,7.65-17.43,8.75-3.7-5.11-5.87-11.32-5.87-18.01,0,6.69-2.17,12.9-5.87,18.01-6.38-1.1-12.49-4.02-17.43-8.75,4.94,4.73,7.98,10.59,9.13,16.72-5.33,3.55-11.8,5.63-18.78,5.63,6.98,0,13.45,2.08,18.78,5.63-1.15,6.12-4.19,11.99-9.13,16.72,4.94-4.73,11.05-7.65,17.43-8.76,1.85,2.56,3.32,5.39,4.32,8.42,1.01,3.02,1.55,6.25,1.55,9.6,0-6.7,2.17-12.9,5.87-18.02,6.38,1.11,12.49,4.03,17.43,8.76-4.94-4.73-7.98-10.6-9.13-16.72,2.67-1.78,5.61-3.18,8.77-4.15,3.16-.96,6.52-1.48,10.01-1.48-6.98,0-13.45-2.08-18.78-5.63,1.15-6.13,4.19-11.99,9.13-16.72ZM336.26,40.26c3.16-.96,6.52-1.48,10.01-1.48-6.98,0-13.45-2.08-18.78-5.63,1.15-6.13,4.19-11.99,9.13-16.72-4.94,4.73-11.05,7.65-17.43,8.75-3.7-5.11-5.87-11.32-5.87-18.01,0,6.69-2.17,12.9-5.87,18.01-6.38-1.1-12.49-4.02-17.43-8.75,4.94,4.73,7.98,10.59,9.13,16.72-5.33,3.55-11.8,5.63-18.78,5.63,6.98,0,13.45,2.08,18.78,5.63-1.15,6.12-4.19,11.99-9.13,16.72,4.94-4.73,11.05-7.65,17.43-8.76,1.85,2.56,3.32,5.39,4.32,8.42,1.01,3.02,1.55,6.25,1.55,9.6,0-6.7,2.17-12.9,5.87-18.02,6.38,1.11,12.49,4.03,17.43,8.76-4.94-4.73-7.98-10.6-9.13-16.72,2.67-1.78,5.61-3.18,8.77-4.15ZM336.26,40.26c3.16-.96,6.52-1.48,10.01-1.48-6.98,0-13.45-2.08-18.78-5.63,1.15-6.13,4.19-11.99,9.13-16.72-4.94,4.73-11.05,7.65-17.43,8.75-3.7-5.11-5.87-11.32-5.87-18.01,0,6.69-2.17,12.9-5.87,18.01-6.38-1.1-12.49-4.02-17.43-8.75,4.94,4.73,7.98,10.59,9.13,16.72-5.33,3.55-11.8,5.63-18.78,5.63,6.98,0,13.45,2.08,18.78,5.63-1.15,6.12-4.19,11.99-9.13,16.72,4.94-4.73,11.05-7.65,17.43-8.76,1.85,2.56,3.32,5.39,4.32,8.42,1.01,3.02,1.55,6.25,1.55,9.6,0-6.7,2.17-12.9,5.87-18.02,6.38,1.11,12.49,4.03,17.43,8.76-4.94-4.73-7.98-10.6-9.13-16.72,2.67-1.78,5.61-3.18,8.77-4.15ZM336.26,40.26c3.16-.96,6.52-1.48,10.01-1.48-6.98,0-13.45-2.08-18.78-5.63,1.15-6.13,4.19-11.99,9.13-16.72-4.94,4.73-11.05,7.65-17.43,8.75-3.7-5.11-5.87-11.32-5.87-18.01,0,6.69-2.17,12.9-5.87,18.01-6.38-1.1-12.49-4.02-17.43-8.75,4.94,4.73,7.98,10.59,9.13,16.72-5.33,3.55-11.8,5.63-18.78,5.63,6.98,0,13.45,2.08,18.78,5.63-1.15,6.12-4.19,11.99-9.13,16.72,4.94-4.73,11.05-7.65,17.43-8.76,1.85,2.56,3.32,5.39,4.32,8.42,1.01,3.02,1.55,6.25,1.55,9.6,0-6.7,2.17-12.9,5.87-18.02,6.38,1.11,12.49,4.03,17.43,8.76-4.94-4.73-7.98-10.6-9.13-16.72,2.67-1.78,5.61-3.18,8.77-4.15ZM336.26,40.26c3.16-.96,6.52-1.48,10.01-1.48-6.98,0-13.45-2.08-18.78-5.63,1.15-6.13,4.19-11.99,9.13-16.72-4.94,4.73-11.05,7.65-17.43,8.75-3.7-5.11-5.87-11.32-5.87-18.01,0,6.69-2.17,12.9-5.87,18.01-6.38-1.1-12.49-4.02-17.43-8.75,4.94,4.73,7.98,10.59,9.13,16.72-5.33,3.55-11.8,5.63-18.78,5.63,6.98,0,13.45,2.08,18.78,5.63-1.15,6.12-4.19,11.99-9.13,16.72,4.94-4.73,11.05-7.65,17.43-8.76,1.85,2.56,3.32,5.39,4.32,8.42,1.01,3.02,1.55,6.25,1.55,9.6,0-6.7,2.17-12.9,5.87-18.02,6.38,1.11,12.49,4.03,17.43,8.76-4.94-4.73-7.98-10.6-9.13-16.72,2.67-1.78,5.61-3.18,8.77-4.15ZM336.26,40.26c3.16-.96,6.52-1.48,10.01-1.48-6.98,0-13.45-2.08-18.78-5.63,1.15-6.13,4.19-11.99,9.13-16.72-4.94,4.73-11.05,7.65-17.43,8.75-3.7-5.11-5.87-11.32-5.87-18.01,0,6.69-2.17,12.9-5.87,18.01-6.38-1.1-12.49-4.02-17.43-8.75,4.94,4.73,7.98,10.59,9.13,16.72-5.33,3.55-11.8,5.63-18.78,5.63,6.98,0,13.45,2.08,18.78,5.63-1.15,6.12-4.19,11.99-9.13,16.72,4.94-4.73,11.05-7.65,17.43-8.76,1.85,2.56,3.32,5.39,4.32,8.42,1.01,3.02,1.55,6.25,1.55,9.6,0-6.7,2.17-12.9,5.87-18.02,6.38,1.11,12.49,4.03,17.43,8.76-4.94-4.73-7.98-10.6-9.13-16.72,2.67-1.78,5.61-3.18,8.77-4.15ZM336.26,40.26c3.16-.96,6.52-1.48,10.01-1.48-6.98,0-13.45-2.08-18.78-5.63,1.15-6.13,4.19-11.99,9.13-16.72-4.94,4.73-11.05,7.65-17.43,8.75-3.7-5.11-5.87-11.32-5.87-18.01,0,6.69-2.17,12.9-5.87,18.01-6.38-1.1-12.49-4.02-17.43-8.75,4.94,4.73,7.98,10.59,9.13,16.72-5.33,3.55-11.8,5.63-18.78,5.63,6.98,0,13.45,2.08,18.78,5.63-1.15,6.12-4.19,11.99-9.13,16.72,4.94-4.73,11.05-7.65,17.43-8.76,1.85,2.56,3.32,5.39,4.32,8.42,1.01,3.02,1.55,6.25,1.55,9.6,0-6.7,2.17-12.9,5.87-18.02,6.38,1.11,12.49,4.03,17.43,8.76-4.94-4.73-7.98-10.6-9.13-16.72,2.67-1.78,5.61-3.18,8.77-4.15ZM336.26,40.26c3.16-.96,6.52-1.48,10.01-1.48-6.98,0-13.45-2.08-18.78-5.63,1.15-6.13,4.19-11.99,9.13-16.72-4.94,4.73-11.05,7.65-17.43,8.75-3.7-5.11-5.87-11.32-5.87-18.01,0,6.69-2.17,12.9-5.87,18.01-6.38-1.1-12.49-4.02-17.43-8.75,4.94,4.73,7.98,10.59,9.13,16.72-5.33,3.55-11.8,5.63-18.78,5.63,6.98,0,13.45,2.08,18.78,5.63-1.15,6.12-4.19,11.99-9.13,16.72,4.94-4.73,11.05-7.65,17.43-8.76,1.85,2.56,3.32,5.39,4.32,8.42,1.01,3.02,1.55,6.25,1.55,9.6,0-6.7,2.17-12.9,5.87-18.02,6.38,1.11,12.49,4.03,17.43,8.76-4.94-4.73-7.98-10.6-9.13-16.72,2.67-1.78,5.61-3.18,8.77-4.15ZM336.26,40.26c3.16-.96,6.52-1.48,10.01-1.48-6.98,0-13.45-2.08-18.78-5.63,1.15-6.13,4.19-11.99,9.13-16.72-4.94,4.73-11.05,7.65-17.43,8.75-3.7-5.11-5.87-11.32-5.87-18.01,0,6.69-2.17,12.9-5.87,18.01-6.38-1.1-12.49-4.02-17.43-8.75,4.94,4.73,7.98,10.59,9.13,16.72-5.33,3.55-11.8,5.63-18.78,5.63,6.98,0,13.45,2.08,18.78,5.63-1.15,6.12-4.19,11.99-9.13,16.72,4.94-4.73,11.05-7.65,17.43-8.76,1.85,2.56,3.32,5.39,4.32,8.42,1.01,3.02,1.55,6.25,1.55,9.6,0-6.7,2.17-12.9,5.87-18.02,6.38,1.11,12.49,4.03,17.43,8.76-4.94-4.73-7.98-10.6-9.13-16.72,2.67-1.78,5.61-3.18,8.77-4.15ZM336.26,40.26c3.16-.96,6.52-1.48,10.01-1.48-6.98,0-13.45-2.08-18.78-5.63,1.15-6.13,4.19-11.99,9.13-16.72-4.94,4.73-11.05,7.65-17.43,8.75-3.7-5.11-5.87-11.32-5.87-18.01,0,6.69-2.17,12.9-5.87,18.01-6.38-1.1-12.49-4.02-17.43-8.75,4.94,4.73,7.98,10.59,9.13,16.72-5.33,3.55-11.8,5.63-18.78,5.63,6.98,0,13.45,2.08,18.78,5.63-1.15,6.12-4.19,11.99-9.13,16.72,4.94-4.73,11.05-7.65,17.43-8.76,1.85,2.56,3.32,5.39,4.32,8.42,1.01,3.02,1.55,6.25,1.55,9.6,0-6.7,2.17-12.9,5.87-18.02,6.38,1.11,12.49,4.03,17.43,8.76-4.94-4.73-7.98-10.6-9.13-16.72,2.67-1.78,5.61-3.18,8.77-4.15Z"/>
    </g>
  </g>
</svg>