<?xml version="1.0" encoding="UTF-8"?>
<svg id="Camada_2" data-name="Camada 2" xmlns="http://www.w3.org/2000/svg" viewBox="0 0 162.99 162.99">
  <defs>
    <style>
      .cls-1 {
        fill: #266e63;
      }
    </style>
  </defs>
  <g id="Camada_1-2" data-name="Camada 1">
    <path class="cls-1" d="M145.79,0H17.2C7.7,0,0,7.7,0,17.2v128.59c0,9.5,7.7,17.2,17.2,17.2h128.59c9.5,0,17.2-7.7,17.2-17.2V17.2c0-9.5-7.7-17.2-17.2-17.2ZM131.74,107.46l4.58,5.68-7.21-1.13c-19.09-2.97-38.01,7.94-44.98,25.97l-2.64,6.82-2.62-6.82c-6.96-18.03-25.88-28.94-44.99-25.97l-7.21,1.13,4.59-5.68c12.13-15.05,12.13-36.89,0-51.94l-4.59-5.68,7.21,1.12c19.11,2.99,38.03-7.94,44.99-25.97l2.62-6.8,2.64,6.8c6.2,16.05,21.86,26.47,38.69,26.47,2.09,0,4.18-.16,6.29-.5l7.21-1.12-4.58,5.68c-12.13,15.05-12.13,36.89,0,51.94Z"/>
  </g>
</svg>