<?xml version="1.0" encoding="UTF-8"?>
<svg id="Camada_2" data-name="Camada 2" xmlns="http://www.w3.org/2000/svg" viewBox="0 0 152.51 152.51">
  <defs>
    <style>
      .cls-1 {
        fill: #ea505e;
      }
    </style>
  </defs>
  <g id="Camada_1-2" data-name="Camada 1">
    <g>
      <path class="cls-1" d="M130.17,22.34c-.7-.7-1.41-1.38-2.12-2.04-.24-.22-.48-.44-.72-.66-.24-.22-.48-.44-.73-.65-.24-.22-.48-.43-.73-.64-.25-.21-.49-.42-.74-.63-.25-.21-.5-.42-.75-.62-1.06-.87-2.14-1.7-3.24-2.5-.45-.33-.9-.65-1.36-.97-.04-.03-.09-.06-.14-.09-.74-.51-1.48-1.01-2.23-1.49-.02-.01-.04-.02-.06-.03-.51-.33-1.03-.65-1.55-.97t0,0c-.52-.32-1.05-.63-1.59-.94,0,0-.02-.01-.03-.02-.52-.3-1.05-.59-1.58-.88-.02-.01-.04-.02-.06-.03-.48-.26-.97-.51-1.46-.77-1.42-.72-2.85-1.41-4.29-2.04-.2-.09-.4-.18-.6-.26-.44-.19-.89-.37-1.33-.56-.25-.1-.51-.2-.77-.3-.29-.11-.58-.23-.87-.33-.29-.11-.58-.22-.87-.32-.69-.25-1.38-.49-2.08-.72-.35-.12-.7-.23-1.04-.34-1.01-.32-2.03-.62-3.05-.89-.89-.24-1.79-.47-2.69-.68-.02,0-.03,0-.05,0-.95-.22-1.91-.42-2.88-.61-.01,0-.02,0-.03,0-.98-.19-1.96-.35-2.94-.5-.01,0-.03,0-.04,0-.72-.1-1.43-.2-2.15-.29-.3-.03-.61-.07-.91-.1-.3-.03-.61-.06-.91-.09-.61-.06-1.21-.11-1.83-.15-.3-.02-.61-.04-.91-.06-.3-.02-.61-.03-.92-.05s-.61-.03-.92-.04c-.91-.03-1.82-.05-2.74-.05,0,16.15,5.02,31.13,13.58,43.46,14.77-2.66,28.91-9.7,40.33-21.12Z"/>
      <path class="cls-1" d="M76.26,0c-.92,0-1.83.02-2.75.05-.3,0-.61.02-.92.04-.3.01-.6.03-.9.05-.31.02-.62.04-.93.06-.61.04-1.21.09-1.82.15-.3.03-.61.06-.91.09-.31.03-.63.07-.95.11-.71.09-1.42.18-2.13.29-.01,0-.03,0-.04,0-1.41.21-2.81.46-4.2.75-.71.14-1.41.3-2.11.47-.03,0-.06.01-.09.02-.67.16-1.34.33-2.01.51-.66.18-1.32.36-1.97.56-.46.13-.92.27-1.38.42-.28.09-.56.18-.83.27-.68.22-1.35.46-2.02.7-1.25.46-2.5.94-3.73,1.46-.53.22-1.06.45-1.58.69-.32.15-.64.29-.96.44-.28.13-.56.26-.84.4-.55.26-1.11.54-1.66.82-.41.21-.82.42-1.23.64-.81.43-1.61.88-2.41,1.35-.4.23-.79.47-1.19.71-.46.27-.92.56-1.37.85-1.35.85-2.67,1.76-3.98,2.71-.25.18-.49.36-.74.54-.24.18-.48.36-.73.55-.24.19-.48.37-.72.56-.24.19-.48.38-.72.57-.24.19-.47.39-.71.58-.49.4-.97.81-1.45,1.23-.21.18-.42.36-.62.55-.41.36-.81.72-1.21,1.1-.24.23-.48.45-.72.67-.24.23-.47.46-.71.69-.01.01-.03.03-.05.04-.22.22-.44.43-.65.65,11.42,11.42,25.56,18.46,40.34,21.12,8.56-12.33,13.58-27.31,13.58-43.46Z"/>
      <path class="cls-1" d="M22.34,22.34l-.69.7c-.23.24-.46.47-.69.71-.45.48-.89.95-1.33,1.43l-.65.73c-.21.24-.43.48-.64.73l-2.64,3.26c-.19.24-.37.48-.55.73l-4.11,6.08c-.32.52-.63,1.05-.94,1.59l-.94,1.67c-.28.52-.55,1.04-.82,1.57-.14.27-.28.55-.42.82-.13.25-.25.5-.36.75l-.44.92c-.13.28-.26.56-.39.84-.13.28-.25.56-.38.85-.09.2-.18.4-.26.6l-.16.38c-.24.57-.47,1.15-.7,1.72-.11.29-.22.58-.33.87-.16.42-.31.83-.46,1.25-.37,1.03-.72,2.07-1.04,3.12-.14.45-.27.91-.41,1.36-.39,1.36-.75,2.73-1.07,4.1,0,.03,0,.06-.02.09-.16.72-.32,1.44-.46,2.16-.23,1.16-.43,2.31-.6,3.47-.11.75-.22,1.51-.31,2.27l-.1.91c-.03.3-.06.61-.09.91-.06.61-.11,1.21-.15,1.83l-.06.91c-.02.3-.03.61-.05.92-.01.3-.03.61-.04.92l-.05,2.74c16.15,0,31.13-5.02,43.46-13.58-2.66-14.77-9.71-28.91-21.12-40.33Z"/>
      <path class="cls-1" d="M109.05,89.84c2.66,14.77,9.7,28.92,21.12,40.34.22-.22.43-.44.65-.65.01-.01.03-.03.04-.05.23-.23.46-.47.69-.71.23-.24.45-.47.67-.71l1.1-1.21c.19-.21.37-.42.55-.62l1.23-1.45c.19-.24.39-.47.58-.71.19-.24.38-.47.57-.72.19-.24.38-.48.56-.72l.55-.73c.18-.24.36-.49.54-.74.3-.41.59-.82.88-1.23.33-.47.66-.95.97-1.43.05-.07.1-.14.14-.22.32-.48.63-.96.94-1.45,0,0,0,0,0-.01.33-.52.65-1.04.96-1.57.32-.53.63-1.07.94-1.61.49-.88.96-1.76,1.42-2.64l.82-1.66.4-.84.44-.96c.24-.52.47-1.05.69-1.58l1.46-3.73c.24-.67.48-1.34.7-2.02.09-.27.18-.55.27-.83.15-.46.29-.92.42-1.38.2-.66.38-1.31.56-1.97.18-.67.35-1.34.51-2.01,0-.03.01-.06.02-.09.17-.7.32-1.4.47-2.11.29-1.4.54-2.8.75-4.2,0-.01,0-.03,0-.04.11-.71.2-1.42.29-2.13l.11-.95c.03-.3.06-.61.09-.91.06-.61.11-1.21.15-1.82l.06-.93c.02-.3.03-.6.05-.9.01-.3.03-.61.04-.92l.05-2.74h0c-16.15,0-31.13,5.01-43.46,13.58Z"/>
      <path class="cls-1" d="M152.51,76.25c0-.92-.02-1.83-.05-2.74,0-.31-.02-.61-.04-.92-.01-.3-.03-.61-.05-.92-.02-.3-.04-.61-.06-.91-.04-.61-.09-1.22-.15-1.83-.03-.3-.06-.61-.09-.91-.03-.3-.07-.61-.1-.91-.09-.72-.19-1.44-.29-2.15,0-.01,0-.03,0-.04-.15-.98-.31-1.96-.5-2.94,0,0,0-.02,0-.03-.19-.96-.39-1.92-.61-2.88,0-.02,0-.03,0-.05-.21-.9-.44-1.8-.68-2.69-.27-1.02-.57-2.04-.89-3.05-.11-.35-.22-.7-.34-1.04-.23-.7-.47-1.39-.72-2.08-.11-.29-.22-.58-.32-.87-.11-.29-.22-.58-.33-.87-.1-.25-.2-.51-.3-.77-.19-.45-.37-.89-.56-1.33-.08-.2-.17-.4-.26-.6-.63-1.45-1.31-2.88-2.04-4.29-.25-.49-.5-.97-.77-1.46,0-.02-.02-.04-.03-.06-.28-.53-.58-1.06-.88-1.58,0,0,0-.02-.02-.03-.3-.53-.61-1.06-.94-1.59t0,0c-.32-.52-.64-1.03-.97-1.55,0-.02-.02-.04-.03-.06-.48-.75-.98-1.49-1.49-2.23-.03-.04-.06-.09-.09-.14-.32-.46-.64-.91-.97-1.36-.8-1.1-1.63-2.18-2.5-3.24-.2-.25-.41-.5-.62-.75-.21-.24-.42-.49-.63-.74-.21-.24-.42-.49-.64-.73-.22-.24-.43-.49-.65-.73-.22-.24-.44-.48-.66-.72-.67-.72-1.35-1.43-2.04-2.12-11.42,11.42-18.46,25.56-21.12,40.33,12.33,8.56,27.31,13.58,43.46,13.58Z"/>
      <path class="cls-1" d="M76.26,152.51c.92,0,1.83-.02,2.74-.05.31,0,.61-.02.92-.04s.61-.03.92-.05c.3-.02.61-.04.91-.06.61-.04,1.22-.09,1.83-.15.3-.03.61-.06.91-.09l.91-.1c.76-.09,1.52-.2,2.27-.31,1.16-.18,2.32-.38,3.47-.6.72-.14,1.44-.3,2.16-.46.03,0,.06-.01.09-.02,1.38-.32,2.74-.68,4.1-1.07.45-.13.91-.26,1.36-.41,1.05-.32,2.09-.67,3.12-1.04.42-.15.84-.3,1.25-.46.29-.11.58-.22.87-.33.57-.23,1.15-.46,1.72-.7l.38-.16c.2-.08.4-.17.6-.26.28-.12.57-.25.85-.38.28-.13.56-.25.84-.39.31-.14.62-.29.92-.44.25-.12.5-.24.75-.37.27-.14.55-.27.82-.42.53-.27,1.05-.54,1.57-.82.56-.3,1.12-.61,1.67-.94.53-.31,1.06-.62,1.59-.94,2.08-1.26,4.11-2.63,6.08-4.11.24-.18.49-.37.73-.55,1.11-.84,2.19-1.72,3.26-2.64.24-.21.49-.43.73-.64.24-.22.49-.43.73-.65.48-.44.96-.88,1.43-1.33.24-.23.47-.46.71-.69.24-.23.47-.46.7-.69-11.42-11.42-25.56-18.46-40.33-21.12-8.56,12.33-13.58,27.31-13.58,43.46Z"/>
      <path class="cls-1" d="M22.34,130.17l2.85,2.7c.38.34.75.68,1.14,1.01l.73.62c.6.51,1.21,1.01,1.83,1.5.1.08.2.16.3.24.72.57,1.45,1.13,2.19,1.66.49.36.99.72,1.49,1.06,0,0,0,0,0,0,.5.34,1.01.69,1.52,1.02.77.51,1.54,1,2.33,1.47.79.48,1.59.95,2.39,1.39,0,0,.02.02.04.02.52.29,1.04.57,1.56.84.61.32,1.22.63,1.84.94.09.04.18.09.26.14.08.04.16.08.24.12.31.15.63.3.95.45.11.05.23.11.34.16.11.05.23.11.34.16.63.28,1.26.56,1.89.83l2.71,1.09c.72.27,1.44.53,2.17.78.32.11.65.22.97.32.94.31,1.87.6,2.81.87.02,0,.04,0,.06.01.97.27,1.94.53,2.91.77.33.08.65.16.98.23.66.15,1.33.29,1.99.43.32.06.63.13.95.19l.98.18c.33.06.66.11.99.17.99.16,1.98.3,2.97.42l.95.11c.3.03.61.06.91.09.61.06,1.21.11,1.82.15l.93.06c.3.02.6.03.9.05.3.01.61.03.92.04l2.74.05h0c0-16.15-5.02-31.13-13.58-43.46-14.77,2.66-28.92,9.7-40.34,21.12Z"/>
      <path class="cls-1" d="M0,76.25h0c0,.92.02,1.83.05,2.75,0,.3.02.61.04.92.01.3.03.6.05.9.02.31.04.62.06.93.04.61.09,1.21.15,1.82.03.3.06.61.09.91.03.31.07.63.11.95.12.99.26,1.98.42,2.97.05.33.11.66.17.99.06.33.12.66.18.98.06.32.12.63.19.95.13.67.27,1.33.43,1.99.07.33.15.65.23.98.24.97.49,1.94.77,2.91,0,.02,0,.04.01.06.27.94.56,1.88.87,2.81.1.32.21.65.32.97.25.73.51,1.45.78,2.17.34.91.71,1.82,1.09,2.71.27.63.54,1.26.83,1.89,0,.01.01.03.02.04.1.22.2.43.3.64.15.31.29.63.45.95.04.08.08.16.12.24.03.07.07.14.11.21.14.29.29.58.44.87.44.87.89,1.73,1.37,2.59,0,.01.01.03.02.04.45.8.91,1.6,1.39,2.39.47.78.96,1.56,1.47,2.33.34.51.68,1.02,1.02,1.52,0,0,0,0,0,0,.35.5.71,1,1.06,1.49.53.74,1.09,1.47,1.66,2.19.08.1.16.2.23.3.49.62.99,1.23,1.5,1.83.2.24.41.48.62.73.33.38.67.76,1.01,1.14.87.96,1.77,1.91,2.7,2.85,11.42-11.42,18.46-25.56,21.12-40.34-12.33-8.56-27.31-13.58-43.46-13.58Z"/>
    </g>
  </g>
</svg>