<?xml version="1.0" encoding="UTF-8"?>
<svg id="Camada_2" data-name="Camada 2" xmlns="http://www.w3.org/2000/svg" viewBox="0 0 143.72 165.95">
  <defs>
    <style>
      .cls-1 {
        fill: #266e63;
      }
    </style>
  </defs>
  <g id="Camada_1-2" data-name="Camada 1">
    <path class="cls-1" d="M137.72,117.02l6,7.45-9.46-1.49c-25.03-3.9-49.82,10.4-58.95,34.04l-3.45,8.93-3.43-8.93c-9.13-23.64-33.92-37.94-58.97-34.04l-9.46,1.49,6.02-7.45c15.9-19.72,15.9-48.36,0-68.08l-6.02-7.45,9.46,1.47c25.05,3.92,49.84-10.4,58.97-34.04l3.43-8.92,3.45,8.92c8.12,21.03,28.66,34.7,50.71,34.7,2.74,0,5.48-.21,8.24-.66l9.46-1.47-6,7.45c-15.9,19.72-15.9,48.36,0,68.08Z"/>
  </g>
</svg>